<?xml version="1.0" encoding="utf-8"?>
<!-- Generator: Adobe Illustrator 15.1.0, SVG Export Plug-In . SVG Version: 6.00 Build 0)  -->
<!DOCTYPE svg PUBLIC "-//W3C//DTD SVG 1.1//EN" "http://www.w3.org/Graphics/SVG/1.1/DTD/svg11.dtd">
<svg version="1.1" id="Layer_1" xmlns="http://www.w3.org/2000/svg" xmlns:xlink="http://www.w3.org/1999/xlink" x="0px" y="0px"
	 width="332.982px" height="206.99px" viewBox="0 0 332.982 206.99" enable-background="new 0 0 332.982 206.99"
	 xml:space="preserve">
<g>
	<path fill="none" stroke="#7EB847" stroke-width="0.75" stroke-miterlimit="10" d="M93.072,69.269
		c-6.854,3.588-12.211,14.3,3.213,10.714l43.924-18.569c0,0,8.146-5.341,11.07,0c0,0,11.068,23.925,11.783,25.711
		c0,0-44.281,27.498-47.14,28.925c0,0,0.574,16.561,33.933,3c0,0,14.555-8.504,26.562-8.275c12.006,0.229,41.539,8.225,41.539,8.225
		l-58.106-79.012c0,0-4.285-4.642-13.213,0C146.636,39.986,99.924,65.684,93.072,69.269z"/>
	<circle fill="none" stroke="#7EB847" stroke-width="0.75" stroke-miterlimit="10" cx="224.281" cy="78.611" r="22.319"/>
	<path fill="none" stroke="#7EB847" stroke-width="0.75" stroke-miterlimit="10" d="M51.965,133.241c0,0,2.425-1.671,4.709-1.201
		l0.027,16.621c0,0-0.33,5.067,1.322,8.151c0,0-1.211,0.881-3.414,0.661c0,0-3.746-3.084-2.646-18.064v-4.847L51.965,133.241
		L51.965,133.241z"/>
	<path fill="none" stroke="#7EB847" stroke-width="0.75" stroke-miterlimit="10" d="M57.584,132.839c0,0,0.621,1.043,1.763,2.386
		c1.873,2.203,1.981,4.664,1.981,4.664h2.644v6.389H61.22c0,0-0.07,1.654-1.873,3.745c-1.763,2.043-1.763,5.949-1.763,5.949V132.839
		z"/>
	<path fill="none" stroke="#7EB847" stroke-width="0.75" stroke-miterlimit="10" d="M47.45,138.528c0,0,2.863,11.676,1.764,14.319
		c-1.102,2.644,2.55,1.762,2.55,1.762l-1.229-19.386L47.45,138.528z"/>
	<path fill="none" stroke="#7EB847" stroke-width="0.75" stroke-miterlimit="10" d="M65.185,132.911c0,0,2.424-1.67,4.709-1.201
		l0.026,16.623c0,0-0.33,5.065,1.322,8.15c0,0-1.213,0.881-3.414,0.661c0,0-3.746-3.084-2.645-18.063v-4.848L65.185,132.911
		L65.185,132.911z"/>
	<path fill="none" stroke="#7EB847" stroke-width="0.75" stroke-miterlimit="10" d="M70.802,132.509c0,0,0.62,1.043,1.764,2.386
		c1.871,2.203,1.981,4.663,1.981,4.663h2.644v6.389h-2.754c0,0-0.068,1.655-1.871,3.745c-1.764,2.043-1.764,5.948-1.764,5.948
		V132.509z"/>
	<path fill="none" stroke="#7EB847" stroke-width="0.75" stroke-miterlimit="10" d="M77.394,132.968c0,0,2.424-1.672,4.709-1.201
		l0.026,16.622c0,0-0.33,5.067,1.322,8.151c0,0-1.213,0.881-3.414,0.66c0,0-3.746-3.084-2.645-18.063v-4.847L77.394,132.968
		L77.394,132.968z"/>
	<path fill="none" stroke="#7EB847" stroke-width="0.75" stroke-miterlimit="10" d="M83.011,132.563c0,0,0.622,1.043,1.764,2.387
		c1.871,2.202,1.981,4.664,1.981,4.664H89.4v6.387h-2.754c0,0-0.068,1.656-1.871,3.746c-1.764,2.043-1.764,5.947-1.764,5.947
		V132.563z"/>
	<path fill="none" stroke="#7EB847" stroke-width="0.75" stroke-miterlimit="10" d="M90.613,132.638c0,0,2.424-1.671,4.707-1.201
		l0.029,16.622c0,0-0.33,5.067,1.321,8.151c0,0-1.213,0.881-3.414,0.66c0,0-3.745-3.084-2.645-18.063v-4.847L90.613,132.638
		L90.613,132.638z"/>
	<path fill="none" stroke="#7EB847" stroke-width="0.75" stroke-miterlimit="10" d="M96.23,132.234c0,0,0.621,1.043,1.762,2.386
		c1.873,2.203,1.982,4.664,1.982,4.664h2.645v6.389h-2.754c0,0-0.07,1.654-1.873,3.746c-1.762,2.043-1.762,5.947-1.762,5.947
		V132.234z"/>
	<path fill="none" stroke="#7EB847" stroke-width="0.75" stroke-miterlimit="10" d="M103.279,132.939c0,0,2.424-1.671,4.709-1.2
		l0.027,16.621c0,0-0.33,5.066,1.321,8.151c0,0-1.211,0.881-3.414,0.661c0,0-3.746-3.084-2.645-18.064v-4.848L103.279,132.939
		L103.279,132.939z"/>
	<path fill="none" stroke="#7EB847" stroke-width="0.75" stroke-miterlimit="10" d="M108.896,132.536c0,0,0.623,1.043,1.764,2.387
		c1.873,2.203,1.982,4.662,1.982,4.662h2.643v6.39h-2.752c0,0-0.07,1.655-1.873,3.745c-1.764,2.043-1.764,5.947-1.764,5.947V132.536
		z"/>
	<path fill="none" stroke="#7EB847" stroke-width="0.75" stroke-miterlimit="10" d="M116.497,132.61c0,0,2.424-1.671,4.707-1.201
		l0.029,16.623c0,0-0.33,5.066,1.322,8.15c0,0-1.213,0.881-3.416,0.661c0,0-3.744-3.084-2.644-18.065v-4.847L116.497,132.61
		L116.497,132.61z"/>
	<path fill="none" stroke="#7EB847" stroke-width="0.75" stroke-miterlimit="10" d="M122.115,132.206c0,0,0.621,1.043,1.764,2.387
		c1.871,2.203,1.982,4.664,1.982,4.664h2.643v6.388h-2.754c0,0-0.069,1.655-1.871,3.746c-1.764,2.043-1.764,5.948-1.764,5.948
		V132.206z"/>
	<path fill="none" stroke="#7EB847" stroke-width="0.75" stroke-miterlimit="10" d="M128.706,132.665c0,0,2.424-1.67,4.709-1.201
		l0.027,16.623c0,0-0.33,5.065,1.322,8.15c0,0-1.211,0.881-3.414,0.661c0,0-3.746-3.084-2.646-18.063v-4.848L128.706,132.665
		L128.706,132.665z"/>
	<path fill="none" stroke="#7EB847" stroke-width="0.75" stroke-miterlimit="10" d="M134.323,132.263c0,0,0.623,1.043,1.764,2.386
		c1.871,2.203,1.982,4.664,1.982,4.664h2.643v6.39h-2.754c0,0-0.069,1.654-1.871,3.744c-1.764,2.043-1.764,5.948-1.764,5.948
		V132.263z"/>
	<path fill="none" stroke="#7EB847" stroke-width="0.75" stroke-miterlimit="10" d="M141.924,132.335c0,0,2.423-1.67,4.707-1.199
		l0.029,16.622c0,0-0.33,5.065,1.32,8.151c0,0-1.211,0.881-3.414,0.66c0,0-3.744-3.084-2.644-18.064v-4.848L141.924,132.335
		L141.924,132.335z"/>
	<path fill="none" stroke="#7EB847" stroke-width="0.75" stroke-miterlimit="10" d="M147.541,131.933c0,0,0.621,1.043,1.763,2.386
		c1.872,2.203,1.981,4.664,1.981,4.664h0.883v6.39h-0.992c0,0-0.069,1.654-1.872,3.744c-1.763,2.043-1.763,5.948-1.763,5.948
		V131.933L147.541,131.933z"/>
	<path fill="none" stroke="#7EB847" stroke-width="0.75" stroke-miterlimit="10" d="M153.906,131.327h13.828
		c0,0-1.543,22.693,0,26.184c0,0-11.896,0.917-14.318,0C153.415,157.51,151.484,136.396,153.906,131.327z"/>
	<path fill="none" stroke="#7EB847" stroke-width="0.75" stroke-miterlimit="10" d="M170.799,133.407c0,0,2.423-1.672,4.707-1.201
		l0.027,16.621c0,0-0.33,5.067,1.322,8.151c0,0-1.211,0.881-3.414,0.661c0,0-3.744-3.084-2.644-18.064v-4.847L170.799,133.407
		L170.799,133.407z"/>
	<path fill="none" stroke="#7EB847" stroke-width="0.75" stroke-miterlimit="10" d="M176.416,133.003c0,0,0.621,1.043,1.763,2.386
		c1.872,2.204,1.981,4.665,1.981,4.665h2.644v6.388h-2.753c0,0-0.069,1.655-1.872,3.745c-1.763,2.043-1.763,5.948-1.763,5.948
		V133.003z"/>
	<path fill="none" stroke="#7EB847" stroke-width="0.75" stroke-miterlimit="10" d="M184.017,133.077c0,0,2.424-1.672,4.709-1.201
		l0.026,16.621c0,0-0.33,5.067,1.322,8.151c0,0-1.213,0.881-3.416,0.661c0,0-3.744-3.084-2.643-18.064v-4.847L184.017,133.077
		L184.017,133.077z"/>
	<path fill="none" stroke="#7EB847" stroke-width="0.75" stroke-miterlimit="10" d="M189.633,132.674c0,0,0.621,1.042,1.765,2.386
		c1.871,2.203,1.981,4.663,1.981,4.663h0.882v6.389h-0.992c0,0-0.068,1.655-1.871,3.745c-1.765,2.043-1.765,5.948-1.765,5.948
		V132.674L189.633,132.674z"/>
	<path fill="none" stroke="#7EB847" stroke-width="0.75" stroke-miterlimit="10" d="M195.927,132.745c0,0,2.424-1.672,4.709-1.201
		l0.026,16.621c0,0-0.33,5.067,1.322,8.151c0,0-1.211,0.882-3.414,0.661c0,0-3.746-3.084-2.646-18.064v-4.848v-1.32H195.927z"/>
	<path fill="none" stroke="#7EB847" stroke-width="0.75" stroke-miterlimit="10" d="M201.543,132.341c0,0,0.623,1.043,1.765,2.386
		c1.873,2.204,1.981,4.664,1.981,4.664h2.644v6.39h-2.752c0,0-0.07,1.654-1.873,3.744c-1.765,2.043-1.765,5.948-1.765,5.948V132.341
		z"/>
	<path fill="none" stroke="#7EB847" stroke-width="0.75" stroke-miterlimit="10" d="M209.146,132.415c0,0,2.424-1.672,4.707-1.201
		l0.028,16.621c0,0-0.329,5.067,1.32,8.151c0,0-1.211,0.882-3.412,0.661c0,0-3.746-3.084-2.645-18.064v-4.847L209.146,132.415
		L209.146,132.415z"/>
	<path fill="none" stroke="#7EB847" stroke-width="0.75" stroke-miterlimit="10" d="M214.763,132.012c0,0,0.62,1.043,1.762,2.386
		c1.873,2.203,1.983,4.664,1.983,4.664h2.644v6.389h-2.754c0,0-0.07,1.654-1.873,3.745c-1.762,2.042-1.762,5.948-1.762,5.948
		V132.012z"/>
	<path fill="none" stroke="#7EB847" stroke-width="0.75" stroke-miterlimit="10" d="M221.355,132.47c0,0,2.424-1.672,4.707-1.201
		l0.028,16.622c0,0-0.329,5.065,1.322,8.151c0,0-1.213,0.881-3.414,0.66c0,0-3.746-3.084-2.645-18.063v-4.847L221.355,132.47
		L221.355,132.47z"/>
	<path fill="none" stroke="#7EB847" stroke-width="0.75" stroke-miterlimit="10" d="M226.972,132.066c0,0,0.62,1.043,1.764,2.386
		c1.871,2.203,1.981,4.664,1.981,4.664h2.644v6.389h-2.754c0,0-0.068,1.656-1.871,3.746c-1.764,2.043-1.764,5.947-1.764,5.947
		V132.066z"/>
	<path fill="none" stroke="#7EB847" stroke-width="0.75" stroke-miterlimit="10" d="M234.572,132.141c0,0,2.424-1.671,4.709-1.201
		l0.029,16.622c0,0-0.33,5.066,1.319,8.15c0,0-1.211,0.882-3.414,0.662c0,0-3.745-3.084-2.645-18.064v-4.848L234.572,132.141
		L234.572,132.141z"/>
	<path fill="none" stroke="#7EB847" stroke-width="0.75" stroke-miterlimit="10" d="M240.191,131.736c0,0,0.621,1.043,1.762,2.386
		c1.873,2.205,1.982,4.664,1.982,4.664h2.645v6.389h-2.754c0,0-0.07,1.654-1.873,3.746c-1.762,2.041-1.762,5.947-1.762,5.947
		V131.736z"/>
	<path fill="none" stroke="#7EB847" stroke-width="0.75" stroke-miterlimit="10" d="M247.24,132.442c0,0,2.424-1.671,4.709-1.201
		l0.027,16.623c0,0-0.33,5.066,1.321,8.15c0,0-1.211,0.881-3.414,0.661c0,0-3.745-3.084-2.645-18.064v-4.847L247.24,132.442
		L247.24,132.442z"/>
	<path fill="none" stroke="#7EB847" stroke-width="0.75" stroke-miterlimit="10" d="M252.857,132.04c0,0,0.623,1.043,1.762,2.386
		c1.875,2.202,1.984,4.663,1.984,4.663h2.643v6.39h-2.752c0,0-0.07,1.655-1.875,3.745c-1.762,2.043-1.762,5.947-1.762,5.947V132.04z
		"/>
	<path fill="none" stroke="#7EB847" stroke-width="0.75" stroke-miterlimit="10" d="M260.457,132.112c0,0,2.422-1.671,4.707-1.201
		l0.029,16.623c0,0-0.33,5.065,1.32,8.15c0,0-1.211,0.881-3.414,0.661c0,0-3.744-3.084-2.644-18.063v-4.848L260.457,132.112
		L260.457,132.112z"/>
	<path fill="none" stroke="#7EB847" stroke-width="0.75" stroke-miterlimit="10" d="M266.075,131.71c0,0,0.621,1.041,1.762,2.386
		c1.873,2.203,1.982,4.664,1.982,4.664h2.645v6.389h-2.754c0,0-0.069,1.655-1.873,3.745c-1.762,2.043-1.762,5.948-1.762,5.948
		V131.71z"/>
	<path fill="none" stroke="#7EB847" stroke-width="0.75" stroke-miterlimit="10" d="M272.666,132.167c0,0,2.424-1.67,4.707-1.2
		l0.029,16.622c0,0-0.33,5.066,1.322,8.15c0,0-1.213,0.881-3.414,0.661c0,0-3.746-3.084-2.646-18.063v-4.848L272.666,132.167
		L272.666,132.167z"/>
	<path fill="none" stroke="#7EB847" stroke-width="0.75" stroke-miterlimit="10" d="M278.284,131.765c0,0,0.621,1.043,1.762,2.386
		c1.873,2.203,1.982,4.664,1.982,4.664h2.645v6.39h-2.754c0,0-0.069,1.654-1.873,3.744c-1.762,2.043-1.762,5.948-1.762,5.948
		V131.765z"/>
	<path fill="none" stroke="#7EB847" stroke-width="0.75" stroke-miterlimit="10" d="M285.883,131.839c0,0,2.425-1.672,4.709-1.201
		l0.029,16.622c0,0-0.33,5.067,1.32,8.151c0,0-1.211,0.881-3.414,0.66c0,0-3.746-3.084-2.646-18.063v-4.847L285.883,131.839
		L285.883,131.839z"/>
	<path fill="none" stroke="#7EB847" stroke-width="0.75" stroke-miterlimit="10" d="M291.502,131.436c0,0,0.621,1.043,1.763,2.386
		c1.873,2.203,1.981,4.664,1.981,4.664h0.881v6.389h-0.989c0,0-0.07,1.656-1.873,3.746c-1.763,2.043-1.763,5.947-1.763,5.947
		V131.436z"/>
</g>
</svg>
