<?xml version="1.0" encoding="utf-8"?>
<!-- Generator: Adobe Illustrator 15.1.0, SVG Export Plug-In . SVG Version: 6.00 Build 0)  -->
<!DOCTYPE svg PUBLIC "-//W3C//DTD SVG 1.1//EN" "http://www.w3.org/Graphics/SVG/1.1/DTD/svg11.dtd">
<svg version="1.1" id="Layer_1" xmlns="http://www.w3.org/2000/svg" xmlns:xlink="http://www.w3.org/1999/xlink" x="0px" y="0px"
	 width="332.982px" height="206.99px" viewBox="0 0 332.982 206.99" enable-background="new 0 0 332.982 206.99"
	 xml:space="preserve">
<g>
	<path fill="none" stroke="#000000" stroke-width="0.75" stroke-miterlimit="10" d="M54.294,147.109c0,0,2.271-1.564,4.408-1.125
		l0.027,15.564c0,0-0.311,4.745,1.236,7.633c0,0-1.134,0.824-3.196,0.618c0,0-3.508-2.888-2.477-16.915v-4.539L54.294,147.109
		L54.294,147.109z"/>
	<path fill="none" stroke="#000000" stroke-width="0.75" stroke-miterlimit="10" d="M59.556,146.732c0,0,0.582,0.976,1.648,2.232
		c1.754,2.062,1.857,4.367,1.857,4.367h2.475v5.98h-2.578c0,0-0.064,1.551-1.754,3.508c-1.648,1.912-1.648,5.568-1.648,5.568
		V146.732L59.556,146.732z"/>
	<path fill="none" stroke="#000000" stroke-width="0.75" stroke-miterlimit="10" d="M50.067,152.06c0,0,2.682,10.933,1.649,13.407
		c-1.031,2.477,2.389,1.65,2.389,1.65l-1.15-18.152L50.067,152.06z"/>
	<path fill="none" stroke="#000000" stroke-width="0.75" stroke-miterlimit="10" d="M66.671,146.801c0,0,2.27-1.564,4.409-1.125
		l0.025,15.564c0,0-0.31,4.744,1.239,7.631c0,0-1.136,0.826-3.198,0.619c0,0-3.507-2.888-2.477-16.914v-4.539L66.671,146.801
		L66.671,146.801z"/>
	<path fill="none" stroke="#000000" stroke-width="0.75" stroke-miterlimit="10" d="M71.933,146.423c0,0,0.581,0.978,1.649,2.233
		c1.753,2.062,1.856,4.367,1.856,4.367h2.476v5.981h-2.579c0,0-0.064,1.55-1.753,3.506c-1.649,1.913-1.649,5.569-1.649,5.569
		V146.423L71.933,146.423z"/>
	<path fill="none" stroke="#000000" stroke-width="0.75" stroke-miterlimit="10" d="M78.105,146.853c0,0,2.269-1.565,4.408-1.125
		l0.026,15.564c0,0-0.31,4.745,1.237,7.632c0,0-1.134,0.824-3.197,0.619c0,0-3.507-2.889-2.475-16.915v-4.538V146.853z"/>
	<path fill="none" stroke="#000000" stroke-width="0.75" stroke-miterlimit="10" d="M83.365,146.474c0,0,0.582,0.978,1.65,2.234
		c1.752,2.062,1.855,4.366,1.855,4.366h2.477v5.982h-2.58c0,0-0.064,1.549-1.752,3.506c-1.65,1.913-1.65,5.569-1.65,5.569V146.474z"
		/>
	<path fill="none" stroke="#000000" stroke-width="0.75" stroke-miterlimit="10" d="M90.481,146.543c0,0,2.27-1.564,4.408-1.124
		l0.026,15.563c0,0-0.31,4.744,1.237,7.631c0,0-1.135,0.826-3.197,0.619c0,0-3.507-2.888-2.476-16.914v-4.539L90.481,146.543
		L90.481,146.543z"/>
	<path fill="none" stroke="#000000" stroke-width="0.75" stroke-miterlimit="10" d="M95.74,146.166c0,0,0.582,0.977,1.65,2.234
		c1.754,2.062,1.855,4.366,1.855,4.366h2.477v5.981h-2.578c0,0-0.065,1.551-1.754,3.507c-1.65,1.914-1.65,5.569-1.65,5.569V146.166z
		"/>
	<path fill="none" stroke="#000000" stroke-width="0.75" stroke-miterlimit="10" d="M102.341,146.826c0,0,2.27-1.564,4.408-1.125
		l0.026,15.563c0,0-0.31,4.745,1.238,7.632c0,0-1.136,0.826-3.197,0.62c0,0-3.507-2.888-2.477-16.915v-4.539L102.341,146.826
		L102.341,146.826z"/>
	<path fill="none" stroke="#000000" stroke-width="0.75" stroke-miterlimit="10" d="M107.603,146.449c0,0,0.582,0.977,1.649,2.233
		c1.754,2.063,1.856,4.367,1.856,4.367h2.476v5.981h-2.578c0,0-0.064,1.549-1.754,3.506c-1.649,1.914-1.649,5.57-1.649,5.57V146.449
		z"/>
	<path fill="none" stroke="#000000" stroke-width="0.75" stroke-miterlimit="10" d="M114.718,146.518c0,0,2.271-1.564,4.408-1.124
		l0.027,15.563c0,0-0.311,4.744,1.237,7.632c0,0-1.135,0.825-3.197,0.619c0,0-3.507-2.888-2.477-16.915v-4.539L114.718,146.518
		L114.718,146.518z"/>
	<path fill="none" stroke="#000000" stroke-width="0.75" stroke-miterlimit="10" d="M119.979,146.141c0,0,0.582,0.977,1.65,2.234
		c1.753,2.062,1.856,4.367,1.856,4.367h2.475v5.981h-2.578c0,0-0.064,1.55-1.753,3.507c-1.65,1.913-1.65,5.57-1.65,5.57V146.141z"/>
	<path fill="none" stroke="#000000" stroke-width="0.75" stroke-miterlimit="10" d="M126.151,146.57c0,0,2.27-1.564,4.409-1.125
		l0.026,15.563c0,0-0.31,4.744,1.237,7.632c0,0-1.134,0.825-3.197,0.619c0,0-3.507-2.889-2.476-16.915v-4.539V146.57L126.151,146.57
		z"/>
	<path fill="none" stroke="#000000" stroke-width="0.75" stroke-miterlimit="10" d="M131.411,146.191c0,0,0.582,0.978,1.65,2.234
		c1.753,2.062,1.855,4.367,1.855,4.367h2.477v5.982h-2.579c0,0-0.065,1.549-1.753,3.506c-1.65,1.912-1.65,5.569-1.65,5.569V146.191
		L131.411,146.191z"/>
	<path fill="none" stroke="#000000" stroke-width="0.75" stroke-miterlimit="10" d="M138.528,146.261c0,0,2.268-1.563,4.408-1.125
		l0.025,15.563c0,0-0.309,4.746,1.238,7.633c0,0-1.135,0.826-3.198,0.619c0,0-3.507-2.887-2.475-16.914v-4.539L138.528,146.261
		L138.528,146.261z"/>
	<path fill="none" stroke="#000000" stroke-width="0.75" stroke-miterlimit="10" d="M143.787,145.884c0,0,0.582,0.978,1.65,2.233
		c1.753,2.062,1.855,4.367,1.855,4.367h0.826v5.981h-0.929c0,0-0.065,1.549-1.753,3.507c-1.65,1.913-1.65,5.569-1.65,5.569V145.884z
		"/>
	<path fill="none" stroke="#000000" stroke-width="0.75" stroke-miterlimit="10" d="M149.745,145.316h12.948
		c0,0-1.444,21.25,0,24.517c0,0-11.139,0.858-13.407,0C149.286,169.833,147.479,150.062,149.745,145.316z"/>
	<path fill="none" stroke="#000000" stroke-width="0.75" stroke-miterlimit="10" d="M165.565,147.263c0,0,2.268-1.563,4.407-1.124
		l0.026,15.564c0,0-0.309,4.744,1.239,7.632c0,0-1.135,0.825-3.198,0.618c0,0-3.506-2.887-2.475-16.914v-4.538V147.263
		L165.565,147.263z"/>
	<path fill="none" stroke="#000000" stroke-width="0.75" stroke-miterlimit="10" d="M170.824,146.886c0,0,0.582,0.978,1.65,2.233
		c1.753,2.063,1.855,4.369,1.855,4.369h2.477v5.98h-2.579c0,0-0.065,1.549-1.753,3.506c-1.65,1.913-1.65,5.57-1.65,5.57V146.886z"/>
	<path fill="none" stroke="#000000" stroke-width="0.75" stroke-miterlimit="10" d="M177.941,146.955c0,0,2.27-1.564,4.409-1.125
		l0.026,15.563c0,0-0.31,4.745,1.237,7.632c0,0-1.134,0.825-3.197,0.619c0,0-3.507-2.888-2.476-16.914v-4.539V146.955z"/>
	<path fill="none" stroke="#000000" stroke-width="0.75" stroke-miterlimit="10" d="M183.2,146.578c0,0,0.582,0.976,1.65,2.232
		c1.753,2.062,1.855,4.367,1.855,4.367h0.826v5.982h-0.928c0,0-0.065,1.55-1.753,3.506c-1.65,1.912-1.65,5.57-1.65,5.57
		L183.2,146.578L183.2,146.578z"/>
	<path fill="none" stroke="#000000" stroke-width="0.75" stroke-miterlimit="10" d="M189.093,146.643c0,0,2.27-1.564,4.408-1.125
		l0.027,15.564c0,0-0.309,4.744,1.237,7.632c0,0-1.135,0.825-3.197,0.619c0,0-3.507-2.888-2.476-16.915v-4.539V146.643z"/>
	<path fill="none" stroke="#000000" stroke-width="0.75" stroke-miterlimit="10" d="M194.354,146.266c0,0,0.582,0.977,1.649,2.234
		c1.753,2.062,1.856,4.367,1.856,4.367h2.476v5.981h-2.579c0,0-0.065,1.55-1.753,3.506c-1.649,1.913-1.649,5.57-1.649,5.57V146.266z
		"/>
	<path fill="none" stroke="#000000" stroke-width="0.75" stroke-miterlimit="10" d="M201.471,146.335c0,0,2.27-1.565,4.407-1.125
		l0.027,15.563c0,0-0.312,4.744,1.237,7.631c0,0-1.136,0.826-3.197,0.619c0,0-3.507-2.888-2.477-16.914v-4.539v-1.235H201.471z"/>
	<path fill="none" stroke="#000000" stroke-width="0.75" stroke-miterlimit="10" d="M206.731,145.957c0,0,0.582,0.977,1.649,2.234
		c1.754,2.062,1.856,4.366,1.856,4.366h2.476v5.981h-2.578c0,0-0.064,1.55-1.754,3.508c-1.649,1.913-1.649,5.57-1.649,5.57V145.957z
		"/>
	<path fill="none" stroke="#000000" stroke-width="0.75" stroke-miterlimit="10" d="M212.903,146.386c0,0,2.269-1.565,4.408-1.125
		l0.026,15.563c0,0-0.31,4.744,1.238,7.631c0,0-1.135,0.826-3.198,0.621c0,0-3.506-2.889-2.475-16.916v-4.539V146.386z"/>
	<path fill="none" stroke="#000000" stroke-width="0.75" stroke-miterlimit="10" d="M218.161,146.009c0,0,0.583,0.978,1.651,2.233
		c1.752,2.062,1.855,4.367,1.855,4.367h2.476v5.981h-2.579c0,0-0.064,1.55-1.752,3.507c-1.651,1.913-1.651,5.569-1.651,5.569
		V146.009L218.161,146.009z"/>
	<path fill="none" stroke="#000000" stroke-width="0.75" stroke-miterlimit="10" d="M225.279,146.078c0,0,2.269-1.565,4.409-1.125
		l0.025,15.563c0,0-0.31,4.745,1.238,7.634c0,0-1.134,0.824-3.197,0.617c0,0-3.507-2.887-2.476-16.914v-4.539V146.078z"/>
	<path fill="none" stroke="#000000" stroke-width="0.75" stroke-miterlimit="10" d="M230.539,145.699c0,0,0.582,0.978,1.649,2.234
		c1.754,2.062,1.856,4.367,1.856,4.367h2.476v5.982h-2.578c0,0-0.065,1.549-1.754,3.506c-1.649,1.914-1.649,5.57-1.649,5.57V145.699
		z"/>
	<path fill="none" stroke="#000000" stroke-width="0.75" stroke-miterlimit="10" d="M237.14,146.361c0,0,2.271-1.564,4.408-1.125
		l0.027,15.563c0,0-0.31,4.745,1.237,7.632c0,0-1.134,0.825-3.197,0.619c0,0-3.507-2.889-2.477-16.915v-4.538L237.14,146.361
		L237.14,146.361z"/>
	<path fill="none" stroke="#000000" stroke-width="0.75" stroke-miterlimit="10" d="M242.401,145.984c0,0,0.582,0.976,1.648,2.233
		c1.756,2.062,1.858,4.367,1.858,4.367h2.475v5.981h-2.577c0,0-0.066,1.551-1.756,3.508c-1.648,1.912-1.648,5.568-1.648,5.568
		V145.984z"/>
	<path fill="none" stroke="#000000" stroke-width="0.75" stroke-miterlimit="10" d="M249.518,146.052c0,0,2.268-1.563,4.406-1.124
		l0.027,15.564c0,0-0.309,4.744,1.238,7.632c0,0-1.135,0.825-3.198,0.618c0,0-3.506-2.887-2.475-16.914v-4.539L249.518,146.052
		L249.518,146.052z"/>
	<path fill="none" stroke="#000000" stroke-width="0.75" stroke-miterlimit="10" d="M254.776,145.676c0,0,0.583,0.977,1.65,2.232
		c1.753,2.062,1.856,4.367,1.856,4.367h2.475v5.981h-2.579c0,0-0.064,1.55-1.752,3.507c-1.65,1.913-1.65,5.569-1.65,5.569V145.676
		L254.776,145.676z"/>
	<path fill="none" stroke="#000000" stroke-width="0.75" stroke-miterlimit="10" d="M260.949,146.104c0,0,2.269-1.564,4.408-1.125
		l0.025,15.564c0,0-0.31,4.744,1.238,7.632c0,0-1.136,0.825-3.198,0.619c0,0-3.507-2.888-2.475-16.915v-4.539L260.949,146.104
		L260.949,146.104z"/>
	<path fill="none" stroke="#000000" stroke-width="0.75" stroke-miterlimit="10" d="M266.208,145.727c0,0,0.583,0.977,1.65,2.234
		c1.753,2.062,1.855,4.367,1.855,4.367h2.477v5.981h-2.579c0,0-0.065,1.55-1.753,3.507c-1.65,1.912-1.65,5.569-1.65,5.569V145.727z"
		/>
	<path fill="none" stroke="#000000" stroke-width="0.75" stroke-miterlimit="10" d="M273.325,145.795c0,0,2.27-1.564,4.408-1.124
		l0.026,15.563c0,0-0.31,4.745,1.237,7.633c0,0-1.133,0.824-3.197,0.617c0,0-3.507-2.888-2.475-16.914v-4.539V145.795z"/>
	<path fill="none" stroke="#000000" stroke-width="0.75" stroke-miterlimit="10" d="M278.584,145.418c0,0,0.583,0.977,1.65,2.234
		c1.754,2.062,1.856,4.365,1.856,4.365h0.825V158h-0.928c0,0-0.065,1.55-1.754,3.507c-1.65,1.913-1.65,5.569-1.65,5.569V145.418z"/>
	<g>
		<circle fill="none" stroke="#000000" stroke-width="0.75" stroke-miterlimit="10" cx="241.766" cy="52.174" r="11.782"/>
		<path fill="none" stroke="#000000" stroke-width="0.75" stroke-miterlimit="10" d="M226.197,67.58h30.396l24.409,28.17
			c0,0,2.277,8.859-8.479,6.535l-15.596-16.966l0.513,16.569c0,0-8.113-0.502-15.189,8.729c0,0-11.956-10.732-16.054-7.936v-17.69
			l-13.316,15.424c0,0-10.281,5.557-10.756-4.668L226.197,67.58z"/>
	</g>
	<g>
		<circle fill="none" stroke="#000000" stroke-width="0.75" stroke-miterlimit="10" cx="91.601" cy="52.174" r="11.783"/>
		<path fill="none" stroke="#000000" stroke-width="0.75" stroke-miterlimit="10" d="M76.031,67.58h30.396l24.409,28.17
			c0,0,2.278,8.859-8.478,6.535l-15.597-16.966l0.514,16.569c0,0-5.553-2.467-15.19,8.729c0,0-11.957-10.732-16.054-7.936v-17.69
			l-13.316,15.424c0,0-10.281,5.557-10.756-4.668L76.031,67.58z"/>
	</g>
	<g>
		<circle fill="#FFFFFF" stroke="#000000" stroke-width="0.75" stroke-miterlimit="10" cx="168.002" cy="45.555" r="19.085"/>
		<path fill="#FFFFFF" stroke="#000000" stroke-width="0.75" stroke-miterlimit="10" d="M142.784,70.51h49.233l39.537,45.629
			c0,0,3.689,14.352-13.732,10.586l-25.261-27.482l0.83,26.838c0,0-11.513-2.311-24.604,14.143c0,0-19.367-17.386-26.004-12.854
			V98.717l-21.57,24.982c0,0-16.653,9-17.422-7.561L142.784,70.51z"/>
	</g>
	<path fill="none" stroke="#000000" stroke-width="0.75" stroke-miterlimit="10" d="M148.973,44.573c0,0,16.185-20.903,38.51,1.377
		c0,0-1.95-20.027-19.555-20.277C167.928,25.673,151.175,23.795,148.973,44.573z"/>
	<path fill="none" stroke="#000000" stroke-width="0.75" stroke-miterlimit="10" d="M152.505,70.51c0,0,15.698,23.29,28.177,0"/>
	<path fill="none" stroke="#000000" stroke-width="0.75" stroke-miterlimit="10" d="M142.784,98.717c0,0,11.523-22.542,5.334-28.207
		"/>
	<path fill="none" stroke="#000000" stroke-width="0.75" stroke-miterlimit="10" d="M192.484,99.422c0,0-11.523-23.105-5.334-28.912
		"/>
	<path fill="none" stroke="#000000" stroke-width="0.75" stroke-miterlimit="10" d="M232.504,67.58
		c0.619,0.899,8.387,14.502,17.537,0"/>
	<path fill="none" stroke="#000000" stroke-width="0.75" stroke-miterlimit="10" d="M226.188,85.208c0,0,7.392-14.039,3.472-17.627"
		/>
	<path fill="none" stroke="#000000" stroke-width="0.75" stroke-miterlimit="10" d="M256.965,85.654c0,0-7.337-14.396-3.417-18.075"
		/>
	
		<line fill="none" stroke="#000000" stroke-width="0.75" stroke-miterlimit="10" x1="76.031" y1="97.861" x2="107.151" y2="97.861"/>
</g>
</svg>
