<?xml version="1.0" encoding="utf-8"?>
<!-- Generator: Adobe Illustrator 15.1.0, SVG Export Plug-In . SVG Version: 6.00 Build 0)  -->
<!DOCTYPE svg PUBLIC "-//W3C//DTD SVG 1.1//EN" "http://www.w3.org/Graphics/SVG/1.1/DTD/svg11.dtd">
<svg version="1.1" id="Layer_1" xmlns="http://www.w3.org/2000/svg" xmlns:xlink="http://www.w3.org/1999/xlink" x="0px" y="0px"
	 width="332.982px" height="206.99px" viewBox="0 0 332.982 206.99" enable-background="new 0 0 332.982 206.99"
	 xml:space="preserve">
<g>
	<path fill="none" stroke="#7EB847" stroke-width="0.75" stroke-miterlimit="10" d="M112.438,26.425l25.949,34.043
		c0,0,7.889,2.873,6.437-4.479L112.438,26.425z"/>
	<path fill="none" stroke="#7EB847" stroke-width="0.75" stroke-miterlimit="10" d="M117.006,50.298c0,0,14.115,5.691,17.852,19.928
		c0,0-2.282,10.567-26.778,20.126l18.684-20.027c0,0-14.324-8.402-14.324-16.205C112.438,54.12,112.438,49.052,117.006,50.298z"/>
	<circle fill="none" stroke="#7EB847" stroke-width="0.75" stroke-miterlimit="10" cx="155.816" cy="60.977" r="8.102"/>
	
		<rect x="94.23" y="92.437" fill="none" stroke="#7EB847" stroke-width="0.75" stroke-miterlimit="10" width="23.396" height="21.805"/>
	<path fill="#FFFFFF" stroke="#7EB847" stroke-width="0.75" stroke-miterlimit="10" d="M55.105,26.425L91.71,74.453
		c0,0,11.129,4.054,9.08-6.32L55.105,26.425z"/>
	<path fill="#FFFFFF" stroke="#7EB847" stroke-width="0.75" stroke-miterlimit="10" d="M61.547,60.104
		c0,0,19.914,8.029,25.186,28.114c0,0-3.221,14.909-37.776,28.395l26.356-28.253c0,0-20.207-11.854-20.207-22.861
		C55.105,65.497,55.105,58.346,61.547,60.104z"/>
	<circle fill="#FFFFFF" stroke="#7EB847" stroke-width="0.75" stroke-miterlimit="10" cx="116.302" cy="75.17" r="11.431"/>
	
		<rect x="29.766" y="119.554" fill="#FFFFFF" stroke="#7EB847" stroke-width="0.75" stroke-miterlimit="10" width="32.66" height="30.619"/>
	<g>
		<path fill="none" stroke="#7EB847" stroke-width="0.75" stroke-miterlimit="10" d="M44.449,157.358c0,0,1.186-0.817,2.303-0.588
			l0.014,8.127c0,0-0.162,2.477,0.646,3.984c0,0-0.595,0.43-1.67,0.323c0,0-1.83-1.508-1.293-8.831v-2.37V157.358z"/>
		<path fill="none" stroke="#7EB847" stroke-width="0.75" stroke-miterlimit="10" d="M47.197,157.161c0,0,0.304,0.51,0.861,1.166
			c0.914,1.076,0.969,2.279,0.969,2.279h1.293v3.123h-1.348c0,0-0.033,0.81-0.914,1.832c-0.861,0.998-0.861,2.907-0.861,2.907
			V157.161z"/>
		<path fill="none" stroke="#7EB847" stroke-width="0.75" stroke-miterlimit="10" d="M42.242,159.942c0,0,1.399,5.709,0.862,7
			c-0.539,1.293,1.246,0.861,1.246,0.861l-0.602-9.478L42.242,159.942z"/>
		<path fill="none" stroke="#7EB847" stroke-width="0.75" stroke-miterlimit="10" d="M50.912,157.197c0,0,1.186-0.816,2.303-0.587
			l0.014,8.125c0,0-0.162,2.477,0.646,3.983c0,0-0.595,0.431-1.67,0.324c0,0-1.832-1.508-1.293-8.831v-2.37V157.197z"/>
		<path fill="none" stroke="#7EB847" stroke-width="0.75" stroke-miterlimit="10" d="M53.658,157c0,0,0.303,0.51,0.86,1.167
			c0.916,1.077,0.969,2.28,0.969,2.28h1.294v3.122h-1.347c0,0-0.035,0.81-0.916,1.832c-0.86,0.998-0.86,2.906-0.86,2.906V157z"/>
		<path fill="none" stroke="#7EB847" stroke-width="0.75" stroke-miterlimit="10" d="M56.879,157.224c0,0,1.188-0.816,2.303-0.586
			l0.017,8.125c0,0-0.162,2.478,0.645,3.984c0,0-0.592,0.431-1.668,0.322c0,0-1.832-1.508-1.295-8.83v-2.369L56.879,157.224
			L56.879,157.224z"/>
		<path fill="none" stroke="#7EB847" stroke-width="0.75" stroke-miterlimit="10" d="M59.627,157.026c0,0,0.305,0.511,0.86,1.168
			c0.914,1.076,0.97,2.279,0.97,2.279h1.293v3.123h-1.349c0,0-0.032,0.809-0.914,1.83c-0.86,0.999-0.86,2.908-0.86,2.908V157.026z"
			/>
		<path fill="none" stroke="#7EB847" stroke-width="0.75" stroke-miterlimit="10" d="M63.342,157.063c0,0,1.186-0.817,2.303-0.588
			l0.015,8.127c0,0-0.162,2.477,0.646,3.984c0,0-0.592,0.43-1.67,0.323c0,0-1.83-1.509-1.293-8.831v-2.37V157.063z"/>
		<path fill="none" stroke="#7EB847" stroke-width="0.75" stroke-miterlimit="10" d="M66.088,156.866c0,0,0.303,0.509,0.861,1.166
			c0.916,1.076,0.969,2.279,0.969,2.279h1.293v3.123h-1.346c0,0-0.035,0.81-0.916,1.832c-0.861,0.998-0.861,2.907-0.861,2.907
			V156.866z"/>
		<path fill="none" stroke="#7EB847" stroke-width="0.75" stroke-miterlimit="10" d="M69.535,157.21c0,0,1.184-0.816,2.301-0.587
			l0.014,8.125c0,0-0.162,2.478,0.646,3.985c0,0-0.593,0.431-1.668,0.322c0,0-1.832-1.507-1.293-8.83v-2.371V157.21z"/>
		<path fill="none" stroke="#7EB847" stroke-width="0.75" stroke-miterlimit="10" d="M72.281,157.015c0,0,0.304,0.51,0.861,1.166
			c0.916,1.076,0.969,2.279,0.969,2.279h1.291v3.124h-1.344c0,0-0.035,0.81-0.916,1.831c-0.861,0.999-0.861,2.908-0.861,2.908
			V157.015z"/>
		<path fill="none" stroke="#7EB847" stroke-width="0.75" stroke-miterlimit="10" d="M75.996,157.049c0,0,1.186-0.817,2.301-0.586
			l0.014,8.125c0,0-0.16,2.478,0.646,3.983c0,0-0.592,0.433-1.67,0.324c0,0-1.828-1.508-1.291-8.832v-2.369V157.049z"/>
		<path fill="none" stroke="#7EB847" stroke-width="0.75" stroke-miterlimit="10" d="M78.742,156.853c0,0,0.303,0.51,0.862,1.166
			c0.914,1.078,0.967,2.28,0.967,2.28h1.294v3.122H80.52c0,0-0.033,0.811-0.914,1.832c-0.862,0.999-0.862,2.908-0.862,2.908
			L78.742,156.853L78.742,156.853z"/>
		<path fill="none" stroke="#7EB847" stroke-width="0.75" stroke-miterlimit="10" d="M81.965,157.077c0,0,1.186-0.817,2.301-0.587
			l0.017,8.125c0,0-0.162,2.477,0.645,3.985c0,0-0.592,0.431-1.67,0.322c0,0-1.83-1.507-1.291-8.831v-2.37L81.965,157.077
			L81.965,157.077z"/>
		<path fill="none" stroke="#7EB847" stroke-width="0.75" stroke-miterlimit="10" d="M84.711,156.879c0,0,0.305,0.511,0.86,1.167
			c0.916,1.077,0.97,2.279,0.97,2.279h1.293v3.124h-1.347c0,0-0.034,0.809-0.916,1.829c-0.86,1-0.86,2.908-0.86,2.908V156.879z"/>
		<path fill="none" stroke="#7EB847" stroke-width="0.75" stroke-miterlimit="10" d="M88.428,156.915c0,0,1.184-0.816,2.299-0.586
			l0.017,8.125c0,0-0.162,2.477,0.645,3.984c0,0-0.592,0.432-1.668,0.324c0,0-1.832-1.509-1.291-8.832v-2.369L88.428,156.915
			L88.428,156.915z"/>
		<path fill="none" stroke="#7EB847" stroke-width="0.75" stroke-miterlimit="10" d="M91.174,156.718c0,0,0.303,0.51,0.859,1.166
			c0.916,1.077,0.971,2.28,0.971,2.28h0.43v3.123H92.95c0,0-0.033,0.81-0.916,1.831c-0.859,0.999-0.859,2.908-0.859,2.908
			L91.174,156.718L91.174,156.718z"/>
		<path fill="none" stroke="#7EB847" stroke-width="0.75" stroke-miterlimit="10" d="M94.283,156.422h6.76c0,0-0.754,11.095,0,12.8
			c0,0-5.814,0.448-7,0C94.043,169.222,93.1,158.899,94.283,156.422z"/>
		<path fill="none" stroke="#7EB847" stroke-width="0.75" stroke-miterlimit="10" d="M102.541,157.438c0,0,1.184-0.816,2.303-0.586
			l0.014,8.125c0,0-0.162,2.477,0.646,3.983c0,0-0.592,0.431-1.67,0.323c0,0-1.83-1.508-1.293-8.831v-2.369V157.438L102.541,157.438
			z"/>
		<path fill="none" stroke="#7EB847" stroke-width="0.75" stroke-miterlimit="10" d="M105.287,157.242c0,0,0.305,0.509,0.86,1.166
			c0.916,1.077,0.972,2.28,0.972,2.28h1.291v3.123h-1.347c0,0-0.032,0.809-0.916,1.83c-0.86,1-0.86,2.908-0.86,2.908V157.242z"/>
		<path fill="none" stroke="#7EB847" stroke-width="0.75" stroke-miterlimit="10" d="M109.004,157.276c0,0,1.184-0.816,2.301-0.586
			l0.014,8.125c0,0-0.159,2.479,0.646,3.985c0,0-0.592,0.431-1.67,0.323c0,0-1.83-1.508-1.291-8.831v-2.37V157.276z"/>
		<path fill="none" stroke="#7EB847" stroke-width="0.75" stroke-miterlimit="10" d="M111.75,157.081c0,0,0.303,0.51,0.86,1.166
			c0.916,1.077,0.97,2.279,0.97,2.279h0.432v3.125h-0.484c0,0-0.034,0.809-0.916,1.83c-0.86,1-0.86,2.908-0.86,2.908L111.75,157.081
			L111.75,157.081z"/>
		<path fill="none" stroke="#7EB847" stroke-width="0.75" stroke-miterlimit="10" d="M114.826,157.115c0,0,1.186-0.817,2.303-0.587
			l0.014,8.125c0,0-0.164,2.477,0.646,3.984c0,0-0.593,0.432-1.668,0.323c0,0-1.832-1.507-1.293-8.831v-2.37L114.826,157.115
			L114.826,157.115z"/>
		<path fill="none" stroke="#7EB847" stroke-width="0.75" stroke-miterlimit="10" d="M117.572,156.917c0,0,0.304,0.51,0.861,1.167
			c0.916,1.077,0.969,2.28,0.969,2.28h1.293v3.123h-1.346c0,0-0.035,0.809-0.916,1.83c-0.861,1-0.861,2.908-0.861,2.908V156.917z"/>
		<path fill="none" stroke="#7EB847" stroke-width="0.75" stroke-miterlimit="10" d="M121.287,156.954c0,0,1.186-0.816,2.301-0.587
			l0.016,8.125c0,0-0.162,2.477,0.646,3.985c0,0-0.592,0.431-1.668,0.322c0,0-1.83-1.508-1.293-8.831v-2.37L121.287,156.954
			L121.287,156.954z"/>
		<path fill="none" stroke="#7EB847" stroke-width="0.75" stroke-miterlimit="10" d="M124.033,156.757c0,0,0.303,0.51,0.862,1.167
			c0.914,1.077,0.97,2.279,0.97,2.279h1.291v3.123h-1.347c0,0-0.033,0.81-0.914,1.832c-0.862,0.998-0.862,2.907-0.862,2.907V156.757
			z"/>
		<path fill="none" stroke="#7EB847" stroke-width="0.75" stroke-miterlimit="10" d="M127.256,156.981c0,0,1.186-0.817,2.301-0.588
			l0.017,8.127c0,0-0.162,2.477,0.646,3.983c0,0-0.594,0.431-1.67,0.324c0,0-1.83-1.509-1.293-8.831v-2.37V156.981z"/>
		<path fill="none" stroke="#7EB847" stroke-width="0.75" stroke-miterlimit="10" d="M130.002,156.784c0,0,0.305,0.51,0.86,1.166
			c0.916,1.076,0.972,2.279,0.972,2.279h1.291v3.123h-1.347c0,0-0.034,0.81-0.916,1.832c-0.86,0.998-0.86,2.907-0.86,2.907V156.784z
			"/>
		<path fill="none" stroke="#7EB847" stroke-width="0.75" stroke-miterlimit="10" d="M133.717,156.819c0,0,1.186-0.816,2.303-0.586
			l0.015,8.125c0,0-0.162,2.478,0.646,3.984c0,0-0.594,0.432-1.67,0.323c0,0-1.83-1.507-1.293-8.831v-2.37V156.819z"/>
		<path fill="none" stroke="#7EB847" stroke-width="0.75" stroke-miterlimit="10" d="M136.465,156.623c0,0,0.303,0.51,0.861,1.167
			c0.914,1.077,0.969,2.279,0.969,2.279h1.293v3.123h-1.349c0,0-0.032,0.811-0.913,1.832c-0.861,1-0.861,2.908-0.861,2.908V156.623
			L136.465,156.623z"/>
		<path fill="none" stroke="#7EB847" stroke-width="0.75" stroke-miterlimit="10" d="M139.91,156.968c0,0,1.186-0.816,2.301-0.587
			l0.014,8.126c0,0-0.16,2.477,0.646,3.984c0,0-0.593,0.431-1.67,0.322c0,0-1.83-1.508-1.291-8.83v-2.371V156.968z"/>
		<path fill="none" stroke="#7EB847" stroke-width="0.75" stroke-miterlimit="10" d="M142.656,156.771c0,0,0.303,0.51,0.86,1.166
			c0.916,1.078,0.969,2.28,0.969,2.28h1.293v3.123h-1.346c0,0-0.035,0.81-0.916,1.831c-0.86,0.999-0.86,2.908-0.86,2.908V156.771z"
			/>
		<path fill="none" stroke="#7EB847" stroke-width="0.75" stroke-miterlimit="10" d="M146.371,156.806c0,0,1.186-0.815,2.303-0.587
			l0.014,8.125c0,0-0.162,2.478,0.646,3.985c0,0-0.592,0.431-1.67,0.322c0,0-1.83-1.506-1.293-8.83v-2.369V156.806z"/>
		<path fill="none" stroke="#7EB847" stroke-width="0.75" stroke-miterlimit="10" d="M149.117,156.61c0,0,0.305,0.509,0.86,1.166
			c0.916,1.076,0.972,2.279,0.972,2.279h1.293v3.123h-1.349c0,0-0.033,0.809-0.916,1.83c-0.86,0.999-0.86,2.908-0.86,2.908V156.61
			L149.117,156.61z"/>
		<path fill="none" stroke="#7EB847" stroke-width="0.75" stroke-miterlimit="10" d="M152.34,156.834c0,0,1.186-0.817,2.301-0.588
			l0.017,8.126c0,0-0.162,2.477,0.645,3.984c0,0-0.592,0.432-1.668,0.324c0,0-1.83-1.509-1.293-8.832v-2.369L152.34,156.834
			L152.34,156.834z"/>
		<path fill="none" stroke="#7EB847" stroke-width="0.75" stroke-miterlimit="10" d="M155.088,156.636c0,0,0.303,0.51,0.858,1.168
			c0.916,1.076,0.972,2.279,0.972,2.279h1.291v3.123h-1.347c0,0-0.034,0.809-0.916,1.831c-0.858,0.999-0.858,2.907-0.858,2.907
			V156.636z"/>
		<path fill="none" stroke="#7EB847" stroke-width="0.75" stroke-miterlimit="10" d="M158.801,156.672c0,0,1.186-0.815,2.303-0.587
			l0.015,8.126c0,0-0.162,2.478,0.646,3.983c0,0-0.592,0.432-1.67,0.324c0,0-1.83-1.508-1.293-8.83v-2.371V156.672z"/>
		<path fill="none" stroke="#7EB847" stroke-width="0.75" stroke-miterlimit="10" d="M161.549,156.476c0,0,0.303,0.51,0.861,1.166
			c0.916,1.077,0.969,2.28,0.969,2.28h0.432v3.124h-0.483c0,0-0.035,0.809-0.916,1.831c-0.861,0.999-0.861,2.908-0.861,2.908
			L161.549,156.476L161.549,156.476z"/>
		<path fill="none" stroke="#7EB847" stroke-width="0.75" stroke-miterlimit="10" d="M165.412,155.819h6.762
			c0,0-0.756,11.094,0,12.799c0,0-5.816,0.447-7.002,0C165.172,168.618,164.229,158.297,165.412,155.819z"/>
		<path fill="none" stroke="#7EB847" stroke-width="0.75" stroke-miterlimit="10" d="M173.672,156.835c0,0,1.184-0.816,2.301-0.587
			l0.014,8.126c0,0-0.159,2.477,0.646,3.984c0,0-0.592,0.431-1.668,0.322c0,0-1.832-1.507-1.293-8.83v-2.369V156.835z"/>
		<path fill="none" stroke="#7EB847" stroke-width="0.75" stroke-miterlimit="10" d="M176.418,156.638c0,0,0.303,0.51,0.86,1.166
			c0.916,1.078,0.97,2.281,0.97,2.281h1.291v3.122h-1.345c0,0-0.034,0.81-0.916,1.832c-0.86,0.998-0.86,2.908-0.86,2.908V156.638z"
			/>
		<path fill="none" stroke="#7EB847" stroke-width="0.75" stroke-miterlimit="10" d="M180.133,156.674c0,0,1.186-0.817,2.301-0.587
			l0.017,8.126c0,0-0.162,2.478,0.645,3.985c0,0-0.592,0.43-1.67,0.322c0,0-1.828-1.508-1.291-8.83v-2.371L180.133,156.674
			L180.133,156.674z"/>
		<path fill="none" stroke="#7EB847" stroke-width="0.75" stroke-miterlimit="10" d="M182.879,156.478c0,0,0.305,0.51,0.863,1.166
			c0.914,1.078,0.967,2.28,0.967,2.28h0.432v3.124h-0.483c0,0-0.035,0.809-0.914,1.83c-0.863,0.999-0.863,2.908-0.863,2.908
			L182.879,156.478L182.879,156.478z"/>
		<path fill="none" stroke="#7EB847" stroke-width="0.75" stroke-miterlimit="10" d="M185.957,156.513c0,0,1.184-0.818,2.301-0.588
			l0.014,8.125c0,0-0.162,2.477,0.646,3.985c0,0-0.594,0.431-1.67,0.323c0,0-1.832-1.508-1.291-8.832v-2.369V156.513z"/>
		<path fill="none" stroke="#7EB847" stroke-width="0.75" stroke-miterlimit="10" d="M188.703,156.313c0,0,0.303,0.511,0.858,1.168
			c0.916,1.076,0.972,2.279,0.972,2.279h1.291v3.124h-1.347c0,0-0.035,0.81-0.916,1.83c-0.858,1-0.858,2.908-0.858,2.908V156.313z"
			/>
		<path fill="none" stroke="#7EB847" stroke-width="0.75" stroke-miterlimit="10" d="M192.418,156.351c0,0,1.184-0.816,2.301-0.588
			l0.014,8.127c0,0-0.159,2.477,0.646,3.984c0,0-0.592,0.432-1.67,0.323c0,0-1.83-1.509-1.291-8.831v-2.37V156.351z"/>
		<path fill="none" stroke="#7EB847" stroke-width="0.75" stroke-miterlimit="10" d="M195.162,156.153c0,0,0.305,0.511,0.862,1.168
			c0.914,1.076,0.972,2.279,0.972,2.279h1.289v3.123h-1.347c0,0-0.032,0.809-0.914,1.83c-0.862,1-0.862,2.908-0.862,2.908V156.153z"
			/>
		<path fill="none" stroke="#7EB847" stroke-width="0.75" stroke-miterlimit="10" d="M198.385,156.377c0,0,1.186-0.817,2.303-0.587
			l0.015,8.126c0,0-0.162,2.476,0.646,3.983c0,0-0.592,0.432-1.67,0.324c0,0-1.83-1.508-1.293-8.832v-2.369V156.377z"/>
		<path fill="none" stroke="#7EB847" stroke-width="0.75" stroke-miterlimit="10" d="M201.131,156.181c0,0,0.305,0.51,0.863,1.166
			c0.916,1.077,0.969,2.279,0.969,2.279h1.291v3.124h-1.344c0,0-0.035,0.81-0.916,1.831c-0.863,0.999-0.863,2.908-0.863,2.908
			V156.181z"/>
		<path fill="none" stroke="#7EB847" stroke-width="0.75" stroke-miterlimit="10" d="M204.848,156.216c0,0,1.187-0.816,2.301-0.587
			l0.015,8.125c0,0-0.16,2.478,0.646,3.985c0,0-0.594,0.431-1.67,0.322c0,0-1.83-1.508-1.291-8.83v-2.371V156.216z"/>
		<path fill="none" stroke="#7EB847" stroke-width="0.75" stroke-miterlimit="10" d="M207.594,156.021c0,0,0.303,0.508,0.861,1.166
			c0.916,1.076,0.969,2.28,0.969,2.28h1.293v3.123h-1.346c0,0-0.035,0.81-0.916,1.832c-0.861,0.998-0.861,2.907-0.861,2.907V156.021
			z"/>
		<path fill="none" stroke="#7EB847" stroke-width="0.75" stroke-miterlimit="10" d="M211.041,156.364c0,0,1.184-0.817,2.299-0.588
			l0.016,8.125c0,0-0.162,2.479,0.646,3.986c0,0-0.594,0.43-1.67,0.322c0,0-1.83-1.508-1.291-8.831v-2.37V156.364z"/>
		<path fill="none" stroke="#7EB847" stroke-width="0.75" stroke-miterlimit="10" d="M213.785,156.167c0,0,0.305,0.51,0.862,1.167
			c0.916,1.077,0.97,2.28,0.97,2.28h1.291v3.123h-1.345c0,0-0.035,0.809-0.916,1.83c-0.862,0.998-0.862,2.908-0.862,2.908V156.167z"
			/>
		<path fill="none" stroke="#7EB847" stroke-width="0.75" stroke-miterlimit="10" d="M217.502,156.203c0,0,1.184-0.815,2.301-0.587
			l0.014,8.125c0,0-0.162,2.477,0.646,3.984c0,0-0.592,0.431-1.668,0.322c0,0-1.832-1.508-1.293-8.831v-2.37V156.203z"/>
		<path fill="none" stroke="#7EB847" stroke-width="0.75" stroke-miterlimit="10" d="M220.248,156.006c0,0,0.303,0.511,0.86,1.166
			c0.914,1.078,0.97,2.28,0.97,2.28h1.293v3.124h-1.349c0,0-0.032,0.809-0.914,1.83c-0.86,0.999-0.86,2.907-0.86,2.907V156.006z"/>
		<path fill="none" stroke="#7EB847" stroke-width="0.75" stroke-miterlimit="10" d="M223.471,156.229c0,0,1.184-0.816,2.301-0.586
			l0.015,8.125c0,0-0.16,2.478,0.646,3.984c0,0-0.594,0.432-1.67,0.324c0,0-1.83-1.508-1.291-8.832v-2.369V156.229z"/>
		<path fill="none" stroke="#7EB847" stroke-width="0.75" stroke-miterlimit="10" d="M226.217,156.033c0,0,0.303,0.509,0.861,1.166
			c0.916,1.077,0.969,2.28,0.969,2.28h1.293v3.123h-1.346c0,0-0.035,0.81-0.916,1.832c-0.861,0.998-0.861,2.906-0.861,2.906V156.033
			z"/>
		<path fill="none" stroke="#7EB847" stroke-width="0.75" stroke-miterlimit="10" d="M229.932,156.069c0,0,1.185-0.817,2.303-0.588
			l0.015,8.127c0,0-0.162,2.477,0.645,3.983c0,0-0.592,0.431-1.67,0.323c0,0-1.83-1.507-1.291-8.831v-2.37L229.932,156.069
			L229.932,156.069z"/>
		<path fill="none" stroke="#7EB847" stroke-width="0.75" stroke-miterlimit="10" d="M232.678,155.872c0,0,0.305,0.51,0.861,1.167
			c0.916,1.077,0.969,2.28,0.969,2.28h0.432v3.123h-0.483c0,0-0.035,0.809-0.916,1.83c-0.861,1-0.861,2.908-0.861,2.908
			L232.678,155.872L232.678,155.872z"/>
	</g>
	<path fill="none" stroke="#7EB847" stroke-width="0.75" stroke-miterlimit="10" d="M113.566,123.194c0,0,1.037-0.715,2.017-0.514
		l0.01,7.111c0,0-0.141,2.168,0.566,3.488c0,0-0.519,0.376-1.462,0.283c0,0-1.602-1.319-1.131-7.729v-2.074V123.194z"/>
	<path fill="none" stroke="#7EB847" stroke-width="0.75" stroke-miterlimit="10" d="M115.971,123.022c0,0,0.266,0.445,0.754,1.02
		c0.801,0.943,0.849,1.996,0.849,1.996h1.131v2.732h-1.179c0,0-0.028,0.709-0.801,1.604c-0.754,0.874-0.754,2.545-0.754,2.545
		V123.022L115.971,123.022z"/>
	<path fill="none" stroke="#7EB847" stroke-width="0.75" stroke-miterlimit="10" d="M111.635,125.457c0,0,1.225,4.996,0.754,6.126
		c-0.473,1.131,1.09,0.754,1.09,0.754l-0.522-8.295L111.635,125.457z"/>
	<path fill="none" stroke="#7EB847" stroke-width="0.75" stroke-miterlimit="10" d="M119.221,123.054c0,0,1.037-0.715,2.016-0.514
		l0.013,7.111c0,0-0.142,2.168,0.563,3.488c0,0-0.518,0.375-1.459,0.282c0,0-1.604-1.319-1.133-7.729v-2.074V123.054z"/>
	<path fill="none" stroke="#7EB847" stroke-width="0.75" stroke-miterlimit="10" d="M121.625,122.881c0,0,0.266,0.446,0.754,1.021
		c0.801,0.943,0.85,1.996,0.85,1.996h1.129v2.733h-1.178c0,0-0.029,0.708-0.801,1.603c-0.754,0.873-0.754,2.543-0.754,2.543V122.881
		z"/>
	<path fill="none" stroke="#7EB847" stroke-width="0.75" stroke-miterlimit="10" d="M124.445,123.078c0,0,1.037-0.716,2.015-0.515
		l0.014,7.111c0,0-0.143,2.168,0.564,3.488c0,0-0.521,0.376-1.461,0.281c0,0-1.604-1.318-1.132-7.729v-2.074V123.078z"/>
	<path fill="none" stroke="#7EB847" stroke-width="0.75" stroke-miterlimit="10" d="M126.85,122.905c0,0,0.264,0.445,0.752,1.02
		c0.803,0.943,0.851,1.996,0.851,1.996h1.131v2.732h-1.179c0,0-0.03,0.709-0.803,1.604c-0.752,0.874-0.752,2.545-0.752,2.545
		V122.905z"/>
	<path fill="none" stroke="#7EB847" stroke-width="0.75" stroke-miterlimit="10" d="M130.102,122.937c0,0,1.035-0.715,2.015-0.515
		l0.012,7.112c0,0-0.142,2.167,0.565,3.486c0,0-0.52,0.377-1.463,0.283c0,0-1.602-1.318-1.129-7.729v-2.074V122.937L130.102,122.937
		z"/>
	<path fill="none" stroke="#7EB847" stroke-width="0.75" stroke-miterlimit="10" d="M132.504,122.765c0,0,0.266,0.445,0.754,1.021
		c0.801,0.942,0.848,1.995,0.848,1.995h1.133v2.732h-1.18c0,0-0.029,0.709-0.801,1.603c-0.754,0.875-0.754,2.545-0.754,2.545
		V122.765L132.504,122.765z"/>
	<path fill="none" stroke="#7EB847" stroke-width="0.75" stroke-miterlimit="10" d="M135.52,123.065c0,0,1.037-0.715,2.015-0.515
		l0.014,7.112c0,0-0.141,2.167,0.563,3.486c0,0-0.518,0.377-1.461,0.283c0,0-1.602-1.32-1.131-7.729v-2.074V123.065z"/>
	<path fill="none" stroke="#7EB847" stroke-width="0.75" stroke-miterlimit="10" d="M137.924,122.894c0,0,0.266,0.445,0.754,1.021
		c0.801,0.942,0.848,1.995,0.848,1.995h1.132v2.734h-1.179c0,0-0.028,0.707-0.801,1.603c-0.754,0.874-0.754,2.544-0.754,2.544
		V122.894L137.924,122.894z"/>
	<path fill="none" stroke="#7EB847" stroke-width="0.75" stroke-miterlimit="10" d="M141.176,122.925c0,0,1.035-0.715,2.014-0.514
		l0.013,7.111c0,0-0.142,2.168,0.565,3.487c0,0-0.52,0.378-1.461,0.283c0,0-1.604-1.319-1.131-7.729v-2.073V122.925z"/>
	<path fill="none" stroke="#7EB847" stroke-width="0.75" stroke-miterlimit="10" d="M143.578,122.752c0,0,0.266,0.447,0.754,1.021
		c0.803,0.943,0.848,1.996,0.848,1.996h1.131v2.733h-1.176c0,0-0.031,0.708-0.803,1.603c-0.754,0.875-0.754,2.545-0.754,2.545
		V122.752L143.578,122.752z"/>
	<path fill="none" stroke="#7EB847" stroke-width="0.75" stroke-miterlimit="10" d="M146.398,122.948c0,0,1.037-0.715,2.017-0.514
		l0.012,7.11c0,0-0.141,2.168,0.566,3.487c0,0-0.521,0.377-1.464,0.283c0,0-1.602-1.319-1.131-7.729v-2.073V122.948z"/>
	<path fill="none" stroke="#7EB847" stroke-width="0.75" stroke-miterlimit="10" d="M148.803,122.776c0,0,0.266,0.445,0.754,1.021
		c0.801,0.942,0.848,1.995,0.848,1.995h1.132v2.734h-1.179c0,0-0.028,0.707-0.801,1.602c-0.754,0.875-0.754,2.545-0.754,2.545
		V122.776L148.803,122.776z"/>
	<path fill="none" stroke="#7EB847" stroke-width="0.75" stroke-miterlimit="10" d="M152.055,122.808c0,0,1.035-0.716,2.014-0.514
		l0.013,7.111c0,0-0.142,2.167,0.563,3.488c0,0-0.518,0.375-1.459,0.281c0,0-1.604-1.32-1.131-7.729v-2.074V122.808z"/>
	<path fill="none" stroke="#7EB847" stroke-width="0.75" stroke-miterlimit="10" d="M154.457,122.635c0,0,0.266,0.446,0.754,1.021
		c0.801,0.942,0.85,1.995,0.85,1.995h0.377v2.733h-0.426c0,0-0.029,0.708-0.801,1.603c-0.754,0.875-0.754,2.545-0.754,2.545V122.635
		L154.457,122.635z"/>
	<path fill="none" stroke="#7EB847" stroke-width="0.75" stroke-miterlimit="10" d="M157.18,122.375h5.916c0,0-0.658,9.71,0,11.203
		c0,0-5.09,0.392-6.125,0C156.971,133.578,156.143,124.544,157.18,122.375z"/>
	<path fill="none" stroke="#7EB847" stroke-width="0.75" stroke-miterlimit="10" d="M164.408,123.267c0,0,1.034-0.717,2.014-0.515
		l0.012,7.11c0,0-0.141,2.169,0.566,3.488c0,0-0.521,0.377-1.461,0.282c0,0-1.604-1.319-1.131-7.729v-2.073V123.267L164.408,123.267
		z"/>
	<path fill="none" stroke="#7EB847" stroke-width="0.75" stroke-miterlimit="10" d="M166.812,123.093c0,0,0.265,0.446,0.752,1.021
		c0.802,0.943,0.849,1.996,0.849,1.996h1.131v2.732h-1.178c0,0-0.029,0.708-0.802,1.604c-0.752,0.873-0.752,2.545-0.752,2.545
		V123.093L166.812,123.093z"/>
	<path fill="none" stroke="#7EB847" stroke-width="0.75" stroke-miterlimit="10" d="M170.062,123.124c0,0,1.037-0.715,2.017-0.514
		l0.012,7.111c0,0-0.141,2.168,0.563,3.487c0,0-0.518,0.377-1.461,0.283c0,0-1.602-1.319-1.131-7.729v-2.074V123.124z"/>
	<path fill="none" stroke="#7EB847" stroke-width="0.75" stroke-miterlimit="10" d="M172.465,122.952c0,0,0.268,0.445,0.756,1.021
		c0.801,0.941,0.848,1.994,0.848,1.994h0.377v2.733h-0.424c0,0-0.028,0.708-0.801,1.603c-0.756,0.875-0.756,2.545-0.756,2.545
		V122.952L172.465,122.952z"/>
	<path fill="none" stroke="#7EB847" stroke-width="0.75" stroke-miterlimit="10" d="M175.158,122.981c0,0,1.036-0.715,2.016-0.514
		l0.012,7.112c0,0-0.143,2.167,0.564,3.487c0,0-0.519,0.377-1.459,0.283c0,0-1.604-1.32-1.133-7.729v-2.074V122.981z"/>
	<path fill="none" stroke="#7EB847" stroke-width="0.75" stroke-miterlimit="10" d="M177.562,122.81c0,0,0.267,0.446,0.754,1.021
		c0.802,0.942,0.849,1.996,0.849,1.996h1.131v2.733h-1.178c0,0-0.029,0.707-0.802,1.603c-0.754,0.874-0.754,2.545-0.754,2.545
		V122.81L177.562,122.81z"/>
	<path fill="none" stroke="#7EB847" stroke-width="0.75" stroke-miterlimit="10" d="M180.814,122.841c0,0,1.037-0.715,2.015-0.514
		l0.012,7.111c0,0-0.141,2.168,0.565,3.487c0,0-0.52,0.378-1.461,0.283c0,0-1.602-1.319-1.131-7.729v-2.073V122.841z"/>
	<path fill="none" stroke="#7EB847" stroke-width="0.75" stroke-miterlimit="10" d="M183.217,122.668c0,0,0.266,0.446,0.756,1.021
		c0.799,0.942,0.848,1.996,0.848,1.996h1.132v2.732h-1.181c0,0-0.028,0.708-0.799,1.604c-0.756,0.873-0.756,2.543-0.756,2.543
		V122.668L183.217,122.668z"/>
	<path fill="none" stroke="#7EB847" stroke-width="0.75" stroke-miterlimit="10" d="M186.037,122.864c0,0,1.037-0.715,2.014-0.514
		l0.014,7.11c0,0-0.141,2.168,0.564,3.487c0,0-0.519,0.377-1.461,0.283c0,0-1.603-1.32-1.131-7.729v-2.073V122.864z"/>
	<path fill="none" stroke="#7EB847" stroke-width="0.75" stroke-miterlimit="10" d="M188.439,122.692c0,0,0.269,0.445,0.756,1.021
		c0.802,0.942,0.851,1.995,0.851,1.995h1.129v2.734h-1.178c0,0-0.029,0.707-0.802,1.603c-0.756,0.874-0.756,2.544-0.756,2.544
		V122.692L188.439,122.692z"/>
	<path fill="none" stroke="#7EB847" stroke-width="0.75" stroke-miterlimit="10" d="M191.693,122.724c0,0,1.037-0.715,2.015-0.514
		l0.012,7.111c0,0-0.141,2.168,0.566,3.488c0,0-0.521,0.377-1.461,0.282c0,0-1.604-1.319-1.132-7.729v-2.073V122.724z"/>
	<path fill="none" stroke="#7EB847" stroke-width="0.75" stroke-miterlimit="10" d="M194.096,122.551c0,0,0.266,0.446,0.754,1.021
		c0.803,0.942,0.849,1.995,0.849,1.995h1.133v2.732h-1.179c0,0-0.03,0.708-0.803,1.604c-0.754,0.873-0.754,2.545-0.754,2.545
		V122.551L194.096,122.551z"/>
	<path fill="none" stroke="#7EB847" stroke-width="0.75" stroke-miterlimit="10" d="M197.113,122.853c0,0,1.035-0.715,2.015-0.514
		l0.012,7.111c0,0-0.141,2.168,0.566,3.488c0,0-0.521,0.377-1.463,0.281c0,0-1.603-1.318-1.13-7.729v-2.074V122.853z"/>
	<path fill="none" stroke="#7EB847" stroke-width="0.75" stroke-miterlimit="10" d="M199.516,122.681c0,0,0.267,0.445,0.754,1.021
		c0.801,0.942,0.851,1.995,0.851,1.995h1.131v2.732h-1.181c0,0-0.028,0.709-0.801,1.604c-0.754,0.874-0.754,2.544-0.754,2.544
		V122.681L199.516,122.681z"/>
	<path fill="none" stroke="#7EB847" stroke-width="0.75" stroke-miterlimit="10" d="M202.768,122.711c0,0,1.037-0.715,2.015-0.515
		l0.012,7.113c0,0-0.142,2.166,0.565,3.486c0,0-0.518,0.377-1.461,0.283c0,0-1.602-1.32-1.131-7.729v-2.074V122.711z"/>
	<path fill="none" stroke="#7EB847" stroke-width="0.75" stroke-miterlimit="10" d="M205.17,122.539c0,0,0.268,0.446,0.756,1.021
		c0.801,0.942,0.848,1.996,0.848,1.996h1.131v2.733h-1.178c0,0-0.031,0.708-0.801,1.603c-0.756,0.875-0.756,2.545-0.756,2.545
		V122.539L205.17,122.539z"/>
	<path fill="none" stroke="#7EB847" stroke-width="0.75" stroke-miterlimit="10" d="M207.99,122.735c0,0,1.036-0.715,2.016-0.514
		l0.012,7.111c0,0-0.143,2.168,0.566,3.486c0,0-0.521,0.378-1.461,0.283c0,0-1.604-1.319-1.133-7.729V123.3V122.735z"/>
	<path fill="none" stroke="#7EB847" stroke-width="0.75" stroke-miterlimit="10" d="M210.395,122.562c0,0,0.267,0.447,0.754,1.021
		c0.802,0.941,0.849,1.995,0.849,1.995h1.133v2.733h-1.18c0,0-0.029,0.707-0.802,1.602c-0.754,0.874-0.754,2.545-0.754,2.545
		V122.562L210.395,122.562z"/>
	<path fill="none" stroke="#7EB847" stroke-width="0.75" stroke-miterlimit="10" d="M213.646,122.594c0,0,1.037-0.715,2.015-0.514
		l0.012,7.11c0,0-0.142,2.168,0.565,3.488c0,0-0.518,0.377-1.461,0.282c0,0-1.602-1.319-1.131-7.729v-2.072V122.594z"/>
	<path fill="none" stroke="#7EB847" stroke-width="0.75" stroke-miterlimit="10" d="M216.049,122.422c0,0,0.268,0.446,0.754,1.021
		c0.803,0.942,0.85,1.996,0.85,1.996h0.377v2.733h-0.424c0,0-0.028,0.708-0.803,1.603c-0.754,0.875-0.754,2.545-0.754,2.545V122.422
		L216.049,122.422z"/>
	<path fill="none" stroke="#7EB847" stroke-width="0.75" stroke-miterlimit="10" d="M219.432,121.847h5.916
		c0,0-0.658,9.709,0,11.202c0,0-5.088,0.394-6.125,0C219.223,133.049,218.395,124.017,219.432,121.847z"/>
	<path fill="none" stroke="#7EB847" stroke-width="0.75" stroke-miterlimit="10" d="M226.66,122.737c0,0,1.034-0.715,2.014-0.514
		l0.014,7.11c0,0-0.143,2.168,0.564,3.488c0,0-0.521,0.377-1.461,0.282c0,0-1.604-1.318-1.131-7.729v-2.074V122.737L226.66,122.737z
		"/>
	<path fill="none" stroke="#7EB847" stroke-width="0.75" stroke-miterlimit="10" d="M229.064,122.565c0,0,0.265,0.445,0.752,1.021
		c0.804,0.942,0.851,1.996,0.851,1.996h1.129v2.733h-1.176c0,0-0.031,0.707-0.804,1.603c-0.752,0.874-0.752,2.545-0.752,2.545
		V122.565L229.064,122.565z"/>
	<path fill="none" stroke="#7EB847" stroke-width="0.75" stroke-miterlimit="10" d="M232.316,122.597c0,0,1.035-0.716,2.015-0.515
		l0.012,7.11c0,0-0.141,2.168,0.566,3.488c0,0-0.521,0.377-1.464,0.282c0,0-1.602-1.319-1.129-7.729v-2.073V122.597z"/>
	<path fill="none" stroke="#7EB847" stroke-width="0.75" stroke-miterlimit="10" d="M234.719,122.424c0,0,0.266,0.446,0.754,1.021
		c0.801,0.943,0.848,1.996,0.848,1.996h0.378v2.733h-0.425c0,0-0.028,0.708-0.801,1.603c-0.754,0.875-0.754,2.545-0.754,2.545
		V122.424z"/>
	<path fill="none" stroke="#7EB847" stroke-width="0.75" stroke-miterlimit="10" d="M237.41,122.454c0,0,1.037-0.715,2.016-0.514
		l0.012,7.11c0,0-0.143,2.168,0.564,3.488c0,0-0.519,0.377-1.461,0.283c0,0-1.603-1.319-1.131-7.729v-2.072V122.454z"/>
	<path fill="none" stroke="#7EB847" stroke-width="0.75" stroke-miterlimit="10" d="M239.814,122.281c0,0,0.267,0.446,0.754,1.021
		c0.804,0.942,0.849,1.995,0.849,1.995h1.131v2.733h-1.176c0,0-0.031,0.707-0.804,1.603c-0.754,0.874-0.754,2.545-0.754,2.545
		V122.281L239.814,122.281z"/>
	<path fill="none" stroke="#7EB847" stroke-width="0.75" stroke-miterlimit="10" d="M243.066,122.313c0,0,1.037-0.715,2.015-0.515
		l0.012,7.111c0,0-0.141,2.168,0.566,3.487c0,0-0.521,0.377-1.462,0.281c0,0-1.604-1.318-1.131-7.729v-2.074V122.313z"/>
	<path fill="none" stroke="#7EB847" stroke-width="0.75" stroke-miterlimit="10" d="M245.471,122.142c0,0,0.264,0.445,0.752,1.021
		c0.801,0.942,0.851,1.996,0.851,1.996h1.131v2.733h-1.181c0,0-0.026,0.707-0.801,1.602c-0.752,0.874-0.752,2.544-0.752,2.544
		V122.142z"/>
	<path fill="none" stroke="#7EB847" stroke-width="0.75" stroke-miterlimit="10" d="M248.289,122.337c0,0,1.037-0.716,2.016-0.514
		l0.012,7.111c0,0-0.141,2.168,0.564,3.487c0,0-0.519,0.376-1.461,0.283c0,0-1.603-1.32-1.131-7.729v-2.074V122.337z"/>
	<path fill="none" stroke="#7EB847" stroke-width="0.75" stroke-miterlimit="10" d="M250.693,122.164c0,0,0.267,0.446,0.754,1.021
		c0.802,0.943,0.849,1.996,0.849,1.996h1.131v2.733h-1.178c0,0-0.029,0.708-0.801,1.603c-0.755,0.875-0.755,2.545-0.755,2.545
		V122.164z"/>
	<path fill="none" stroke="#7EB847" stroke-width="0.75" stroke-miterlimit="10" d="M253.943,122.194c0,0,1.037-0.715,2.017-0.514
		l0.014,7.112c0,0-0.143,2.167,0.564,3.487c0,0-0.521,0.377-1.461,0.283c0,0-1.604-1.319-1.134-7.729v-2.074V122.194
		L253.943,122.194z"/>
	<path fill="none" stroke="#7EB847" stroke-width="0.75" stroke-miterlimit="10" d="M256.348,122.022c0,0,0.266,0.446,0.754,1.021
		c0.803,0.941,0.851,1.995,0.851,1.995h1.129v2.733h-1.177c0,0-0.03,0.707-0.803,1.603c-0.754,0.875-0.754,2.545-0.754,2.545
		V122.022z"/>
	<path fill="none" stroke="#7EB847" stroke-width="0.75" stroke-miterlimit="10" d="M259.365,122.325c0,0,1.034-0.715,2.014-0.514
		l0.012,7.11c0,0-0.141,2.168,0.566,3.488c0,0-0.521,0.377-1.461,0.282c0,0-1.604-1.318-1.131-7.729v-2.074V122.325z"/>
	<path fill="none" stroke="#7EB847" stroke-width="0.75" stroke-miterlimit="10" d="M261.77,122.151c0,0,0.265,0.447,0.752,1.021
		c0.802,0.942,0.851,1.995,0.851,1.995h1.131v2.733h-1.18c0,0-0.029,0.707-0.802,1.603c-0.752,0.874-0.752,2.544-0.752,2.544
		V122.151L261.77,122.151z"/>
	<path fill="none" stroke="#7EB847" stroke-width="0.75" stroke-miterlimit="10" d="M265.02,122.185c0,0,1.037-0.715,2.015-0.515
		l0.012,7.111c0,0-0.142,2.168,0.565,3.487c0,0-0.518,0.377-1.461,0.283c0,0-1.602-1.318-1.131-7.729v-2.074V122.185z"/>
	<path fill="none" stroke="#7EB847" stroke-width="0.75" stroke-miterlimit="10" d="M267.422,122.011c0,0,0.268,0.446,0.756,1.021
		c0.801,0.941,0.848,1.994,0.848,1.994h1.132v2.733h-1.179c0,0-0.03,0.708-0.801,1.603c-0.756,0.875-0.756,2.545-0.756,2.545
		V122.011z"/>
	<path fill="none" stroke="#7EB847" stroke-width="0.75" stroke-miterlimit="10" d="M270.242,122.208c0,0,1.036-0.715,2.016-0.514
		l0.012,7.111c0,0-0.141,2.168,0.564,3.487c0,0-0.519,0.376-1.459,0.283c0,0-1.604-1.32-1.133-7.729v-2.074V122.208L270.242,122.208
		z"/>
	<path fill="none" stroke="#7EB847" stroke-width="0.75" stroke-miterlimit="10" d="M272.646,122.035c0,0,0.267,0.446,0.754,1.021
		c0.804,0.942,0.851,1.995,0.851,1.995h1.129v2.734h-1.176c0,0-0.031,0.708-0.804,1.603c-0.754,0.875-0.754,2.545-0.754,2.545
		V122.035z"/>
	<path fill="none" stroke="#7EB847" stroke-width="0.75" stroke-miterlimit="10" d="M275.898,122.065c0,0,1.037-0.715,2.015-0.512
		l0.012,7.11c0,0-0.141,2.168,0.566,3.487c0,0-0.521,0.377-1.462,0.283c0,0-1.604-1.32-1.131-7.729v-2.074V122.065z"/>
	<path fill="none" stroke="#7EB847" stroke-width="0.75" stroke-miterlimit="10" d="M278.303,121.894c0,0,0.266,0.446,0.752,1.021
		c0.803,0.943,0.851,1.996,0.851,1.996h0.377v2.732h-0.425c0,0-0.028,0.709-0.803,1.604c-0.752,0.874-0.752,2.545-0.752,2.545
		V121.894z"/>
	<g>
		<path fill="none" stroke="#7EB847" stroke-width="0.75" stroke-miterlimit="10" d="M157.102,95.839c0,0,0.955-0.658,1.854-0.473
			l0.012,6.542c0,0-0.129,1.995,0.521,3.208c0,0-0.477,0.347-1.346,0.261c0,0-1.473-1.214-1.041-7.11v-1.908V95.839z"/>
		<path fill="none" stroke="#7EB847" stroke-width="0.75" stroke-miterlimit="10" d="M159.314,95.681c0,0,0.242,0.41,0.691,0.938
			c0.738,0.867,0.781,1.836,0.781,1.836h1.041v2.514h-1.084c0,0-0.025,0.652-0.738,1.475c-0.691,0.804-0.691,2.341-0.691,2.341
			V95.681z"/>
		<path fill="none" stroke="#7EB847" stroke-width="0.75" stroke-miterlimit="10" d="M155.326,97.919c0,0,1.127,4.596,0.692,5.637
			c-0.434,1.041,1.004,0.694,1.004,0.694l-0.483-7.631L155.326,97.919z"/>
		<path fill="none" stroke="#7EB847" stroke-width="0.75" stroke-miterlimit="10" d="M162.307,95.709c0,0,0.953-0.657,1.853-0.472
			l0.012,6.542c0,0-0.131,1.995,0.521,3.208c0,0-0.479,0.347-1.344,0.26c0,0-1.477-1.214-1.041-7.111v-1.908V95.709z"/>
		<path fill="none" stroke="#7EB847" stroke-width="0.75" stroke-miterlimit="10" d="M164.516,95.551c0,0,0.246,0.41,0.695,0.938
			c0.735,0.868,0.781,1.836,0.781,1.836h1.039v2.516h-1.084c0,0-0.027,0.651-0.736,1.473c-0.695,0.804-0.695,2.342-0.695,2.342
			V95.551L164.516,95.551z"/>
		<path fill="none" stroke="#7EB847" stroke-width="0.75" stroke-miterlimit="10" d="M167.111,95.731c0,0,0.955-0.658,1.854-0.473
			l0.012,6.543c0,0-0.131,1.995,0.521,3.209c0,0-0.479,0.347-1.345,0.259c0,0-1.475-1.213-1.041-7.109v-1.908L167.111,95.731
			L167.111,95.731z"/>
		<path fill="none" stroke="#7EB847" stroke-width="0.75" stroke-miterlimit="10" d="M169.322,95.572c0,0,0.246,0.411,0.695,0.939
			c0.736,0.867,0.779,1.836,0.779,1.836h1.041v2.514h-1.084c0,0-0.027,0.652-0.736,1.475c-0.694,0.804-0.694,2.341-0.694,2.341
			L169.322,95.572L169.322,95.572z"/>
		<path fill="none" stroke="#7EB847" stroke-width="0.75" stroke-miterlimit="10" d="M172.314,95.601c0,0,0.953-0.658,1.854-0.473
			l0.012,6.542c0,0-0.131,1.995,0.521,3.209c0,0-0.478,0.347-1.345,0.261c0,0-1.475-1.215-1.041-7.111v-1.908L172.314,95.601
			L172.314,95.601z"/>
		<path fill="none" stroke="#7EB847" stroke-width="0.75" stroke-miterlimit="10" d="M174.525,95.442c0,0,0.244,0.411,0.693,0.939
			c0.736,0.867,0.779,1.836,0.779,1.836h1.043v2.515h-1.086c0,0-0.025,0.651-0.736,1.474c-0.693,0.804-0.693,2.342-0.693,2.342
			V95.442L174.525,95.442z"/>
		<path fill="none" stroke="#7EB847" stroke-width="0.75" stroke-miterlimit="10" d="M177.301,95.72c0,0,0.953-0.658,1.854-0.473
			l0.011,6.542c0,0-0.129,1.995,0.521,3.208c0,0-0.479,0.347-1.346,0.26c0,0-1.473-1.214-1.039-7.111V96.24V95.72z"/>
		<path fill="none" stroke="#7EB847" stroke-width="0.75" stroke-miterlimit="10" d="M179.512,95.562c0,0,0.244,0.411,0.693,0.939
			c0.737,0.867,0.78,1.835,0.78,1.835h1.041v2.516h-1.084c0,0-0.028,0.651-0.737,1.474c-0.693,0.804-0.693,2.341-0.693,2.341V95.562
			z"/>
		<path fill="none" stroke="#7EB847" stroke-width="0.75" stroke-miterlimit="10" d="M182.504,95.59c0,0,0.953-0.657,1.852-0.473
			l0.013,6.542c0,0-0.132,1.995,0.52,3.208c0,0-0.475,0.348-1.342,0.261c0,0-1.476-1.214-1.041-7.11V96.11L182.504,95.59
			L182.504,95.59z"/>
		<path fill="none" stroke="#7EB847" stroke-width="0.75" stroke-miterlimit="10" d="M184.715,95.432c0,0,0.244,0.411,0.695,0.938
			c0.733,0.868,0.778,1.836,0.778,1.836h1.039v2.515h-1.084c0,0-0.024,0.651-0.733,1.474c-0.695,0.804-0.695,2.341-0.695,2.341
			V95.432L184.715,95.432z"/>
		<path fill="none" stroke="#7EB847" stroke-width="0.75" stroke-miterlimit="10" d="M187.309,95.612c0,0,0.955-0.657,1.854-0.472
			l0.012,6.542c0,0-0.131,1.995,0.521,3.208c0,0-0.479,0.348-1.346,0.26c0,0-1.475-1.213-1.041-7.11v-1.908V95.612z"/>
		<path fill="none" stroke="#7EB847" stroke-width="0.75" stroke-miterlimit="10" d="M189.52,95.454c0,0,0.246,0.411,0.695,0.939
			c0.736,0.867,0.779,1.835,0.779,1.835h1.041v2.515h-1.084c0,0-0.027,0.651-0.736,1.474c-0.695,0.804-0.695,2.343-0.695,2.343
			V95.454L189.52,95.454z"/>
		<path fill="none" stroke="#7EB847" stroke-width="0.75" stroke-miterlimit="10" d="M192.512,95.482c0,0,0.955-0.658,1.854-0.473
			l0.01,6.542c0,0-0.129,1.994,0.521,3.208c0,0-0.477,0.348-1.344,0.262c0,0-1.475-1.214-1.041-7.11v-1.908V95.482z"/>
		<path fill="none" stroke="#7EB847" stroke-width="0.75" stroke-miterlimit="10" d="M194.725,95.323c0,0,0.242,0.411,0.691,0.939
			c0.737,0.867,0.78,1.836,0.78,1.836h0.349v2.514h-0.392c0,0-0.026,0.652-0.737,1.475c-0.691,0.804-0.691,2.342-0.691,2.342V95.323
			z"/>
		<path fill="none" stroke="#7EB847" stroke-width="0.75" stroke-miterlimit="10" d="M197.227,95.085h5.443
			c0,0-0.605,8.934,0,10.307c0,0-4.683,0.361-5.635,0C197.035,105.392,196.275,97.081,197.227,95.085z"/>
		<path fill="none" stroke="#7EB847" stroke-width="0.75" stroke-miterlimit="10" d="M203.879,95.904c0,0,0.951-0.658,1.852-0.473
			l0.013,6.542c0,0-0.132,1.995,0.52,3.209c0,0-0.477,0.346-1.344,0.26c0,0-1.476-1.215-1.039-7.111v-1.907L203.879,95.904
			L203.879,95.904z"/>
		<path fill="none" stroke="#7EB847" stroke-width="0.75" stroke-miterlimit="10" d="M206.09,95.746c0,0,0.244,0.41,0.693,0.938
			c0.735,0.867,0.778,1.836,0.778,1.836h1.041v2.514h-1.084c0,0-0.026,0.652-0.735,1.475c-0.693,0.804-0.693,2.342-0.693,2.342
			V95.746L206.09,95.746z"/>
		<path fill="none" stroke="#7EB847" stroke-width="0.75" stroke-miterlimit="10" d="M209.08,95.774c0,0,0.955-0.658,1.854-0.473
			l0.012,6.542c0,0-0.131,1.995,0.521,3.209c0,0-0.478,0.348-1.344,0.26c0,0-1.476-1.213-1.041-7.109v-1.908L209.08,95.774
			L209.08,95.774z"/>
		<path fill="none" stroke="#7EB847" stroke-width="0.75" stroke-miterlimit="10" d="M211.291,95.616c0,0,0.246,0.41,0.694,0.938
			c0.736,0.868,0.779,1.836,0.779,1.836h0.348v2.515h-0.391c0,0-0.027,0.651-0.736,1.474c-0.694,0.804-0.694,2.341-0.694,2.341
			V95.616L211.291,95.616z"/>
		<path fill="none" stroke="#7EB847" stroke-width="0.75" stroke-miterlimit="10" d="M213.77,95.644c0,0,0.953-0.658,1.853-0.474
			l0.012,6.543c0,0-0.129,1.994,0.52,3.208c0,0-0.475,0.348-1.344,0.26c0,0-1.473-1.214-1.039-7.11v-1.908L213.77,95.644
			L213.77,95.644z"/>
		<path fill="none" stroke="#7EB847" stroke-width="0.75" stroke-miterlimit="10" d="M215.98,95.484c0,0,0.244,0.411,0.693,0.939
			c0.738,0.867,0.779,1.835,0.779,1.835h1.041v2.515h-1.082c0,0-0.029,0.651-0.738,1.474c-0.693,0.804-0.693,2.341-0.693,2.341
			V95.484z"/>
		<path fill="none" stroke="#7EB847" stroke-width="0.75" stroke-miterlimit="10" d="M218.973,95.513c0,0,0.953-0.658,1.854-0.472
			l0.012,6.542c0,0-0.131,1.995,0.518,3.208c0,0-0.477,0.347-1.342,0.26c0,0-1.477-1.214-1.041-7.111v-1.908L218.973,95.513
			L218.973,95.513z"/>
		<path fill="none" stroke="#7EB847" stroke-width="0.75" stroke-miterlimit="10" d="M221.184,95.355c0,0,0.244,0.411,0.693,0.939
			c0.735,0.867,0.781,1.836,0.781,1.836h1.039v2.515h-1.085c0,0-0.026,0.651-0.735,1.474c-0.693,0.805-0.693,2.341-0.693,2.341
			V95.355z"/>
		<path fill="none" stroke="#7EB847" stroke-width="0.75" stroke-miterlimit="10" d="M223.777,95.536c0,0,0.955-0.658,1.854-0.473
			l0.012,6.543c0,0-0.131,1.994,0.521,3.208c0,0-0.478,0.348-1.345,0.262c0,0-1.475-1.215-1.041-7.111v-1.909L223.777,95.536
			L223.777,95.536z"/>
		<path fill="none" stroke="#7EB847" stroke-width="0.75" stroke-miterlimit="10" d="M225.988,95.376c0,0,0.246,0.41,0.695,0.939
			c0.736,0.867,0.779,1.836,0.779,1.836h1.041v2.515h-1.084c0,0-0.027,0.652-0.736,1.474c-0.694,0.804-0.694,2.341-0.694,2.341
			L225.988,95.376L225.988,95.376z"/>
		<path fill="none" stroke="#7EB847" stroke-width="0.75" stroke-miterlimit="10" d="M228.979,95.405c0,0,0.955-0.658,1.855-0.472
			l0.012,6.542c0,0-0.131,1.994,0.521,3.208c0,0-0.478,0.348-1.347,0.26c0,0-1.473-1.213-1.041-7.11v-1.908V95.405z"/>
		<path fill="none" stroke="#7EB847" stroke-width="0.75" stroke-miterlimit="10" d="M231.193,95.247c0,0,0.244,0.41,0.691,0.939
			c0.738,0.867,0.781,1.836,0.781,1.836h1.041v2.514h-1.084c0,0-0.029,0.651-0.738,1.474c-0.691,0.804-0.691,2.341-0.691,2.341
			V95.247z"/>
		<path fill="none" stroke="#7EB847" stroke-width="0.75" stroke-miterlimit="10" d="M233.967,95.525c0,0,0.955-0.658,1.854-0.473
			l0.011,6.542c0,0-0.129,1.995,0.521,3.21c0,0-0.479,0.346-1.344,0.26c0,0-1.475-1.214-1.041-7.11v-1.908V95.525z"/>
		<path fill="none" stroke="#7EB847" stroke-width="0.75" stroke-miterlimit="10" d="M236.178,95.366c0,0,0.244,0.411,0.693,0.939
			c0.737,0.867,0.78,1.835,0.78,1.835h1.041v2.515h-1.084c0,0-0.026,0.652-0.737,1.474c-0.693,0.804-0.693,2.341-0.693,2.341V95.366
			z"/>
		<path fill="none" stroke="#7EB847" stroke-width="0.75" stroke-miterlimit="10" d="M239.17,95.395c0,0,0.953-0.658,1.852-0.473
			l0.015,6.543c0,0-0.131,1.994,0.52,3.208c0,0-0.477,0.348-1.344,0.26c0,0-1.476-1.214-1.041-7.109v-1.909L239.17,95.395
			L239.17,95.395z"/>
		<path fill="none" stroke="#7EB847" stroke-width="0.75" stroke-miterlimit="10" d="M241.381,95.236c0,0,0.244,0.411,0.693,0.939
			c0.735,0.867,0.778,1.836,0.778,1.836h1.041v2.514h-1.084c0,0-0.026,0.651-0.735,1.474c-0.693,0.804-0.693,2.341-0.693,2.341
			V95.236L241.381,95.236z"/>
		<path fill="none" stroke="#7EB847" stroke-width="0.75" stroke-miterlimit="10" d="M243.975,95.416c0,0,0.955-0.657,1.854-0.472
			l0.012,6.542c0,0-0.131,1.995,0.52,3.208c0,0-0.477,0.346-1.342,0.26c0,0-1.477-1.214-1.043-7.11v-1.908L243.975,95.416
			L243.975,95.416z"/>
		<path fill="none" stroke="#7EB847" stroke-width="0.75" stroke-miterlimit="10" d="M246.188,95.258c0,0,0.244,0.41,0.693,0.939
			c0.736,0.867,0.779,1.836,0.779,1.836h1.041v2.515h-1.084c0,0-0.027,0.651-0.736,1.475c-0.693,0.804-0.693,2.339-0.693,2.339
			V95.258L246.188,95.258z"/>
		<path fill="none" stroke="#7EB847" stroke-width="0.75" stroke-miterlimit="10" d="M249.178,95.286c0,0,0.955-0.657,1.854-0.472
			l0.012,6.542c0,0-0.131,1.994,0.52,3.208c0,0-0.477,0.348-1.344,0.262c0,0-1.475-1.215-1.041-7.111v-1.908L249.178,95.286
			L249.178,95.286z"/>
		<path fill="none" stroke="#7EB847" stroke-width="0.75" stroke-miterlimit="10" d="M251.389,95.128c0,0,0.244,0.411,0.693,0.939
			c0.737,0.867,0.78,1.835,0.78,1.835h0.349v2.515h-0.392c0,0-0.026,0.651-0.737,1.474c-0.693,0.804-0.693,2.34-0.693,2.34V95.128z"
			/>
		<path fill="none" stroke="#7EB847" stroke-width="0.75" stroke-miterlimit="10" d="M254.5,94.599h5.442c0,0-0.604,8.933,0,10.307
			c0,0-4.682,0.36-5.635,0C254.309,104.906,253.549,96.595,254.5,94.599z"/>
		<path fill="none" stroke="#7EB847" stroke-width="0.75" stroke-miterlimit="10" d="M261.15,95.418c0,0,0.953-0.657,1.854-0.473
			l0.012,6.542c0,0-0.131,1.995,0.521,3.209c0,0-0.478,0.347-1.345,0.26c0,0-1.475-1.214-1.041-7.111v-1.907L261.15,95.418
			L261.15,95.418z"/>
		<path fill="none" stroke="#7EB847" stroke-width="0.75" stroke-miterlimit="10" d="M263.361,95.26c0,0,0.244,0.41,0.693,0.939
			c0.738,0.867,0.781,1.836,0.781,1.836h1.041v2.514h-1.084c0,0-0.027,0.651-0.738,1.474c-0.693,0.805-0.693,2.342-0.693,2.342
			V95.26L263.361,95.26z"/>
		<path fill="none" stroke="#7EB847" stroke-width="0.75" stroke-miterlimit="10" d="M266.354,95.288c0,0,0.955-0.657,1.854-0.473
			l0.01,6.542c0,0-0.129,1.995,0.521,3.208c0,0-0.478,0.348-1.345,0.261c0,0-1.475-1.214-1.041-7.11v-1.908V95.288L266.354,95.288z"
			/>
		<path fill="none" stroke="#7EB847" stroke-width="0.75" stroke-miterlimit="10" d="M268.564,95.13c0,0,0.244,0.41,0.695,0.938
			c0.736,0.868,0.779,1.836,0.779,1.836h0.348v2.515h-0.391c0,0-0.027,0.651-0.736,1.474c-0.695,0.804-0.695,2.34-0.695,2.34V95.13z
			"/>
		<path fill="none" stroke="#7EB847" stroke-width="0.75" stroke-miterlimit="10" d="M271.043,95.158c0,0,0.953-0.658,1.852-0.473
			l0.015,6.543c0,0-0.132,1.994,0.518,3.208c0,0-0.475,0.347-1.344,0.26c0,0-1.474-1.213-1.039-7.11v-1.908L271.043,95.158
			L271.043,95.158z"/>
		<path fill="none" stroke="#7EB847" stroke-width="0.75" stroke-miterlimit="10" d="M273.254,94.999c0,0,0.244,0.411,0.692,0.939
			c0.736,0.867,0.779,1.835,0.779,1.835h1.041v2.515h-1.084c0,0-0.027,0.651-0.736,1.474c-0.692,0.805-0.692,2.34-0.692,2.34V94.999
			L273.254,94.999z"/>
		<path fill="none" stroke="#7EB847" stroke-width="0.75" stroke-miterlimit="10" d="M276.246,95.027c0,0,0.953-0.657,1.854-0.472
			l0.01,6.542c0,0-0.131,1.995,0.521,3.208c0,0-0.478,0.348-1.342,0.26c0,0-1.478-1.213-1.041-7.109v-1.908L276.246,95.027
			L276.246,95.027z"/>
		<path fill="none" stroke="#7EB847" stroke-width="0.75" stroke-miterlimit="10" d="M278.455,94.869c0,0,0.246,0.411,0.694,0.939
			c0.736,0.867,0.781,1.836,0.781,1.836h1.039v2.515h-1.084c0,0-0.027,0.651-0.736,1.474c-0.694,0.805-0.694,2.341-0.694,2.341
			V94.869z"/>
		<path fill="none" stroke="#7EB847" stroke-width="0.75" stroke-miterlimit="10" d="M281.051,95.05c0,0,0.953-0.658,1.854-0.473
			l0.013,6.543c0,0-0.131,1.994,0.52,3.208c0,0-0.477,0.347-1.344,0.261c0,0-1.475-1.215-1.041-7.111V95.57L281.051,95.05
			L281.051,95.05z"/>
		<path fill="none" stroke="#7EB847" stroke-width="0.75" stroke-miterlimit="10" d="M283.262,94.891c0,0,0.246,0.411,0.695,0.939
			c0.735,0.867,0.778,1.835,0.778,1.835h1.039v2.515h-1.082c0,0-0.026,0.652-0.735,1.475c-0.695,0.804-0.695,2.341-0.695,2.341
			V94.891z"/>
		<path fill="none" stroke="#7EB847" stroke-width="0.75" stroke-miterlimit="10" d="M286.252,94.92c0,0,0.955-0.658,1.854-0.474
			l0.011,6.543c0,0-0.129,1.994,0.521,3.207c0,0-0.477,0.349-1.344,0.261c0,0-1.476-1.213-1.043-7.109v-1.909L286.252,94.92
			L286.252,94.92z"/>
		<path fill="none" stroke="#7EB847" stroke-width="0.75" stroke-miterlimit="10" d="M288.465,94.761c0,0,0.244,0.411,0.693,0.939
			c0.735,0.867,0.778,1.836,0.778,1.836h1.041v2.514h-1.084c0,0-0.026,0.651-0.735,1.474c-0.693,0.804-0.693,2.341-0.693,2.341
			V94.761L288.465,94.761z"/>
		<path fill="none" stroke="#7EB847" stroke-width="0.75" stroke-miterlimit="10" d="M291.238,95.039c0,0,0.957-0.658,1.855-0.473
			l0.01,6.543c0,0-0.129,1.994,0.521,3.208c0,0-0.478,0.347-1.345,0.26c0,0-1.475-1.213-1.04-7.11v-1.908L291.238,95.039
			L291.238,95.039z"/>
		<path fill="none" stroke="#7EB847" stroke-width="0.75" stroke-miterlimit="10" d="M293.451,94.88c0,0,0.243,0.411,0.692,0.939
			c0.738,0.868,0.781,1.835,0.781,1.835h1.041v2.515h-1.084c0,0-0.029,0.652-0.738,1.475c-0.692,0.804-0.692,2.341-0.692,2.341
			V94.88L293.451,94.88z"/>
		<path fill="none" stroke="#7EB847" stroke-width="0.75" stroke-miterlimit="10" d="M296.443,94.909c0,0,0.953-0.658,1.853-0.473
			l0.014,6.542c0,0-0.133,1.994,0.519,3.208c0,0-0.476,0.347-1.345,0.26c0,0-1.473-1.214-1.039-7.11V95.43L296.443,94.909
			L296.443,94.909z"/>
		<path fill="none" stroke="#7EB847" stroke-width="0.75" stroke-miterlimit="10" d="M298.654,94.75c0,0,0.244,0.41,0.693,0.939
			c0.736,0.867,0.779,1.836,0.779,1.836h1.041v2.514h-1.084c0,0-0.027,0.652-0.736,1.474c-0.693,0.805-0.693,2.341-0.693,2.341
			V94.75L298.654,94.75z"/>
		<path fill="none" stroke="#7EB847" stroke-width="0.75" stroke-miterlimit="10" d="M301.248,94.93c0,0,0.955-0.658,1.854-0.472
			l0.01,6.542c0,0-0.131,1.995,0.521,3.208c0,0-0.477,0.348-1.342,0.26c0,0-1.478-1.215-1.043-7.11V95.45V94.93z"/>
		<path fill="none" stroke="#7EB847" stroke-width="0.75" stroke-miterlimit="10" d="M303.459,94.772c0,0,0.246,0.41,0.694,0.939
			c0.736,0.867,0.779,1.836,0.779,1.836h1.041v2.515h-1.084c0,0-0.027,0.651-0.736,1.475c-0.694,0.804-0.694,2.34-0.694,2.34V94.772
			L303.459,94.772z"/>
		<path fill="none" stroke="#7EB847" stroke-width="0.75" stroke-miterlimit="10" d="M306.451,94.801c0,0,0.954-0.658,1.854-0.473
			l0.01,6.542c0,0-0.129,1.994,0.521,3.208c0,0-0.479,0.347-1.344,0.261c0,0-1.476-1.215-1.041-7.111v-1.907V94.801L306.451,94.801z
			"/>
		<path fill="none" stroke="#7EB847" stroke-width="0.75" stroke-miterlimit="10" d="M308.662,94.643c0,0,0.243,0.41,0.692,0.939
			c0.738,0.867,0.781,1.835,0.781,1.835h0.348v2.515h-0.391c0,0-0.027,0.652-0.738,1.474c-0.692,0.804-0.692,2.341-0.692,2.341
			V94.643z"/>
	</g>
	<path fill="none" stroke="#7EB847" stroke-width="0.75" stroke-miterlimit="10" d="M280.531,121.78c0,0,1.036-0.715,2.014-0.514
		l0.014,7.11c0,0-0.143,2.168,0.564,3.488c0,0-0.519,0.376-1.461,0.282c0,0-1.603-1.319-1.131-7.729v-2.074V121.78z"/>
	<path fill="none" stroke="#7EB847" stroke-width="0.75" stroke-miterlimit="10" d="M282.936,121.606c0,0,0.267,0.447,0.754,1.021
		c0.802,0.941,0.849,1.995,0.849,1.995h1.131v2.733h-1.178c0,0-0.031,0.707-0.802,1.603c-0.754,0.874-0.754,2.544-0.754,2.544
		V121.606z"/>
	<path fill="none" stroke="#7EB847" stroke-width="0.75" stroke-miterlimit="10" d="M286.188,121.64c0,0,1.035-0.717,2.015-0.515
		l0.012,7.11c0,0-0.141,2.168,0.565,3.488c0,0-0.52,0.377-1.461,0.282c0,0-1.604-1.319-1.131-7.729v-2.073V121.64z"/>
	<path fill="none" stroke="#7EB847" stroke-width="0.75" stroke-miterlimit="10" d="M288.59,121.467c0,0,0.266,0.446,0.754,1.021
		c0.801,0.943,0.848,1.996,0.848,1.996h0.377v2.733h-0.424c0,0-0.028,0.708-0.801,1.603c-0.754,0.875-0.754,2.545-0.754,2.545
		V121.467z"/>
	<path fill="none" stroke="#7EB847" stroke-width="0.75" stroke-miterlimit="10" d="M291.281,121.497c0,0,1.036-0.715,2.016-0.514
		l0.012,7.11c0,0-0.141,2.169,0.564,3.487c0,0-0.517,0.377-1.461,0.281c0,0-1.603-1.318-1.132-7.729v-2.074L291.281,121.497
		L291.281,121.497z"/>
	<path fill="none" stroke="#7EB847" stroke-width="0.75" stroke-miterlimit="10" d="M293.686,121.324c0,0,0.267,0.446,0.754,1.021
		c0.804,0.943,0.851,1.995,0.851,1.995h1.129v2.734h-1.176c0,0-0.031,0.708-0.804,1.603c-0.754,0.874-0.754,2.545-0.754,2.545
		V121.324z"/>
	<path fill="none" stroke="#7EB847" stroke-width="0.75" stroke-miterlimit="10" d="M296.938,121.354c0,0,1.037-0.713,2.015-0.514
		l0.014,7.112c0,0-0.143,2.168,0.563,3.487c0,0-0.52,0.377-1.461,0.283c0,0-1.604-1.32-1.131-7.729v-2.074V121.354z"/>
	<path fill="none" stroke="#7EB847" stroke-width="0.75" stroke-miterlimit="10" d="M299.342,121.185c0,0,0.264,0.445,0.752,1.021
		c0.803,0.942,0.85,1.995,0.85,1.995h1.132v2.732h-1.179c0,0-0.028,0.709-0.803,1.604c-0.752,0.874-0.752,2.545-0.752,2.545V121.185
		z"/>
	<path fill="none" stroke="#7EB847" stroke-width="0.75" stroke-miterlimit="10" d="M302.162,121.379c0,0,1.037-0.715,2.014-0.513
		l0.012,7.111c0,0-0.141,2.168,0.566,3.486c0,0-0.521,0.377-1.463,0.283c0,0-1.601-1.32-1.129-7.729v-2.074V121.379z"/>
	<path fill="none" stroke="#7EB847" stroke-width="0.75" stroke-miterlimit="10" d="M304.564,121.207c0,0,0.267,0.446,0.754,1.021
		c0.802,0.943,0.849,1.996,0.849,1.996h1.133v2.732h-1.18c0,0-0.029,0.708-0.802,1.604c-0.754,0.873-0.754,2.543-0.754,2.543
		V121.207z"/>
	<path fill="none" stroke="#7EB847" stroke-width="0.75" stroke-miterlimit="10" d="M307.816,121.237c0,0,1.037-0.715,2.015-0.514
		l0.014,7.111c0,0-0.143,2.168,0.564,3.488c0,0-0.519,0.377-1.461,0.283c0,0-1.603-1.32-1.132-7.729v-2.073V121.237z"/>
	<path fill="none" stroke="#7EB847" stroke-width="0.75" stroke-miterlimit="10" d="M310.219,121.065c0,0,0.268,0.445,0.756,1.021
		c0.801,0.942,0.849,1.996,0.849,1.996h1.131v2.733h-1.179c0,0-0.03,0.707-0.801,1.603c-0.756,0.874-0.756,2.545-0.756,2.545
		V121.065z"/>
	<g>
		<path fill="none" stroke="#7EB847" stroke-width="0.75" stroke-miterlimit="10" d="M236.184,156.511c0,0,1.185-0.816,2.303-0.586
			l0.015,8.125c0,0-0.164,2.477,0.646,3.985c0,0-0.592,0.43-1.67,0.323c0,0-1.832-1.508-1.293-8.832v-2.369V156.511z"/>
		<path fill="none" stroke="#7EB847" stroke-width="0.75" stroke-miterlimit="10" d="M238.93,156.313c0,0,0.305,0.511,0.861,1.166
			c0.916,1.078,0.971,2.28,0.971,2.28h1.291v3.123h-1.346c0,0-0.033,0.81-0.916,1.831c-0.861,0.999-0.861,2.908-0.861,2.908V156.313
			z"/>
		<path fill="none" stroke="#7EB847" stroke-width="0.75" stroke-miterlimit="10" d="M242.646,156.351c0,0,1.185-0.816,2.301-0.588
			l0.015,8.127c0,0-0.16,2.477,0.646,3.983c0,0-0.594,0.431-1.67,0.323c0,0-1.83-1.508-1.291-8.831v-2.37V156.351z"/>
		<path fill="none" stroke="#7EB847" stroke-width="0.75" stroke-miterlimit="10" d="M245.393,156.153c0,0,0.303,0.511,0.861,1.166
			c0.914,1.078,0.969,2.281,0.969,2.281h1.291v3.123h-1.346c0,0-0.033,0.809-0.914,1.83c-0.861,0.999-0.861,2.907-0.861,2.907
			V156.153z"/>
		<path fill="none" stroke="#7EB847" stroke-width="0.75" stroke-miterlimit="10" d="M248.615,156.377c0,0,1.184-0.817,2.301-0.587
			l0.014,8.125c0,0-0.162,2.479,0.646,3.984c0,0-0.593,0.432-1.67,0.324c0,0-1.83-1.509-1.291-8.832v-2.369V156.377z"/>
		<path fill="none" stroke="#7EB847" stroke-width="0.75" stroke-miterlimit="10" d="M251.359,156.181c0,0,0.306,0.51,0.863,1.166
			c0.916,1.077,0.969,2.28,0.969,2.28h1.291v3.122h-1.344c0,0-0.037,0.811-0.916,1.831c-0.863,0.999-0.863,2.907-0.863,2.907
			V156.181z"/>
		<path fill="none" stroke="#7EB847" stroke-width="0.75" stroke-miterlimit="10" d="M255.076,156.216c0,0,1.186-0.816,2.301-0.587
			l0.014,8.126c0,0-0.16,2.477,0.646,3.985c0,0-0.593,0.431-1.67,0.323c0,0-1.828-1.508-1.291-8.832v-2.369V156.216z"/>
		<path fill="none" stroke="#7EB847" stroke-width="0.75" stroke-miterlimit="10" d="M257.822,156.021c0,0,0.304,0.508,0.861,1.166
			c0.916,1.076,0.969,2.279,0.969,2.279h1.293v3.123H259.6c0,0-0.033,0.809-0.916,1.831c-0.86,0.999-0.86,2.908-0.86,2.908v-11.308
			H257.822z"/>
		<path fill="none" stroke="#7EB847" stroke-width="0.75" stroke-miterlimit="10" d="M261.268,156.364c0,0,1.187-0.817,2.303-0.588
			l0.015,8.125c0,0-0.162,2.478,0.646,3.986c0,0-0.594,0.43-1.67,0.322c0,0-1.83-1.507-1.293-8.831v-2.37V156.364z"/>
		<path fill="none" stroke="#7EB847" stroke-width="0.75" stroke-miterlimit="10" d="M264.014,156.167c0,0,0.305,0.51,0.861,1.167
			c0.916,1.076,0.971,2.279,0.971,2.279h1.291v3.124h-1.346c0,0-0.033,0.809-0.916,1.83c-0.861,1-0.861,2.908-0.861,2.908V156.167z"
			/>
		<path fill="none" stroke="#7EB847" stroke-width="0.75" stroke-miterlimit="10" d="M267.729,156.203c0,0,1.187-0.817,2.304-0.587
			l0.014,8.125c0,0-0.16,2.477,0.646,3.984c0,0-0.592,0.432-1.67,0.323c0,0-1.83-1.508-1.293-8.832v-2.368V156.203z"/>
		<path fill="none" stroke="#7EB847" stroke-width="0.75" stroke-miterlimit="10" d="M270.475,156.006c0,0,0.308,0.511,0.863,1.166
			c0.914,1.078,0.969,2.28,0.969,2.28h1.293v3.122h-1.348c0,0-0.033,0.81-0.914,1.832c-0.863,0.999-0.863,2.907-0.863,2.907V156.006
			z"/>
		<path fill="none" stroke="#7EB847" stroke-width="0.75" stroke-miterlimit="10" d="M273.697,156.229c0,0,1.187-0.816,2.304-0.586
			l0.014,8.125c0,0-0.16,2.477,0.646,3.984c0,0-0.595,0.432-1.67,0.323c0,0-1.83-1.507-1.294-8.831v-2.37V156.229z"/>
		<path fill="none" stroke="#7EB847" stroke-width="0.75" stroke-miterlimit="10" d="M276.445,156.033c0,0,0.304,0.51,0.861,1.167
			c0.916,1.076,0.969,2.279,0.969,2.279h1.293v3.123h-1.346c0,0-0.035,0.81-0.916,1.83c-0.861,1-0.861,2.908-0.861,2.908V156.033z"
			/>
		<path fill="none" stroke="#7EB847" stroke-width="0.75" stroke-miterlimit="10" d="M280.16,156.067c0,0,1.184-0.816,2.301-0.586
			l0.014,8.125c0,0-0.162,2.478,0.646,3.985c0,0-0.593,0.431-1.668,0.323c0,0-1.832-1.508-1.293-8.831v-2.37V156.067z"/>
		<path fill="none" stroke="#7EB847" stroke-width="0.75" stroke-miterlimit="10" d="M282.906,155.872c0,0,0.305,0.51,0.86,1.167
			c0.916,1.077,0.969,2.28,0.969,2.28h0.433v3.123h-0.484c0,0-0.033,0.81-0.916,1.83c-0.86,1-0.86,2.908-0.86,2.908L282.906,155.872
			L282.906,155.872z"/>
		<path fill="none" stroke="#7EB847" stroke-width="0.75" stroke-miterlimit="10" d="M286.018,155.575h6.758
			c0,0-0.752,11.094,0,12.8c0,0-5.813,0.448-6.998,0C285.777,168.375,284.834,158.054,286.018,155.575z"/>
		<path fill="none" stroke="#7EB847" stroke-width="0.75" stroke-miterlimit="10" d="M294.275,156.592c0,0,1.185-0.817,2.302-0.587
			l0.014,8.125c0,0-0.16,2.477,0.646,3.984c0,0-0.592,0.431-1.67,0.322c0,0-1.828-1.506-1.291-8.83v-2.369V156.592z"/>
		<path fill="none" stroke="#7EB847" stroke-width="0.75" stroke-miterlimit="10" d="M297.021,156.396c0,0,0.304,0.51,0.863,1.166
			c0.914,1.078,0.969,2.28,0.969,2.28h1.291v3.123h-1.346c0,0-0.035,0.81-0.914,1.831c-0.863,0.999-0.863,2.908-0.863,2.908V156.396
			L297.021,156.396z"/>
		<path fill="none" stroke="#7EB847" stroke-width="0.75" stroke-miterlimit="10" d="M300.736,156.431c0,0,1.187-0.816,2.304-0.588
			l0.014,8.126c0,0-0.162,2.479,0.646,3.985c0,0-0.593,0.431-1.671,0.322c0,0-1.832-1.508-1.293-8.83v-2.37V156.431z"/>
		<path fill="none" stroke="#7EB847" stroke-width="0.75" stroke-miterlimit="10" d="M303.484,156.233c0,0,0.304,0.511,0.859,1.168
			c0.916,1.076,0.969,2.279,0.969,2.279h0.433v3.123h-0.484c0,0-0.033,0.809-0.916,1.831c-0.859,0.998-0.859,2.907-0.859,2.907
			L303.484,156.233L303.484,156.233z"/>
		<path fill="none" stroke="#7EB847" stroke-width="0.75" stroke-miterlimit="10" d="M306.561,156.269c0,0,1.185-0.816,2.301-0.586
			l0.015,8.125c0,0-0.162,2.478,0.646,3.985c0,0-0.594,0.431-1.67,0.322c0,0-1.83-1.507-1.291-8.831v-2.37V156.269z"/>
	</g>
	<g>
		<path fill="none" stroke="#7EB847" stroke-width="0.75" d="M52.658,138.213H50.39v3.959h-4.07v-3.959h-7.389v-3.136l7.252-9.745
			h4.207v9.858h2.269V138.213z M46.32,135.19v-5.719l-4.254,5.719H46.32z"/>
	</g>
	<g>
		<path fill="none" stroke="#7EB847" stroke-width="0.75" d="M110.258,105.565c0,0.568-0.105,1.088-0.316,1.559
			c-0.213,0.47-0.521,0.87-0.93,1.199c-0.412,0.328-0.896,0.58-1.453,0.756c-0.557,0.175-1.233,0.262-2.033,0.262
			c-0.909,0-1.688-0.076-2.338-0.227c-0.649-0.151-1.182-0.321-1.588-0.51v-2.53h0.283c0.428,0.271,0.93,0.506,1.508,0.704
			c0.576,0.199,1.104,0.299,1.578,0.299c0.281,0,0.588-0.024,0.92-0.074s0.611-0.159,0.836-0.324
			c0.178-0.132,0.318-0.293,0.426-0.482c0.107-0.191,0.16-0.461,0.16-0.812c0-0.344-0.074-0.609-0.227-0.795
			c-0.15-0.186-0.353-0.32-0.604-0.404c-0.25-0.088-0.551-0.138-0.899-0.148c-0.351-0.01-0.658-0.016-0.924-0.016h-0.503v-2.054
			h0.462c0.356,0,0.682-0.015,0.979-0.047c0.298-0.032,0.553-0.094,0.76-0.188c0.209-0.099,0.373-0.238,0.49-0.415
			c0.117-0.178,0.176-0.418,0.176-0.721c0-0.235-0.055-0.427-0.164-0.576c-0.108-0.148-0.244-0.265-0.407-0.348
			c-0.188-0.094-0.406-0.157-0.656-0.188c-0.252-0.032-0.465-0.047-0.644-0.047c-0.289,0-0.58,0.034-0.879,0.102
			c-0.297,0.068-0.586,0.155-0.869,0.259c-0.219,0.084-0.448,0.192-0.688,0.326c-0.24,0.133-0.418,0.233-0.533,0.301h-0.242v-2.5
			c0.402-0.172,0.943-0.338,1.625-0.497c0.683-0.16,1.379-0.239,2.088-0.239c0.695,0,1.298,0.06,1.808,0.18
			c0.51,0.121,0.944,0.295,1.305,0.526c0.396,0.245,0.695,0.557,0.894,0.936c0.198,0.378,0.299,0.806,0.299,1.281
			c0,0.664-0.193,1.245-0.578,1.743c-0.383,0.499-0.887,0.821-1.517,0.968v0.11c0.277,0.042,0.55,0.112,0.812,0.211
			s0.521,0.261,0.771,0.486c0.234,0.204,0.431,0.467,0.584,0.788C110.182,104.737,110.258,105.121,110.258,105.565z"/>
	</g>
</g>
</svg>
