<?xml version="1.0" encoding="utf-8"?>
<!-- Generator: Adobe Illustrator 15.1.0, SVG Export Plug-In . SVG Version: 6.00 Build 0)  -->
<!DOCTYPE svg PUBLIC "-//W3C//DTD SVG 1.1//EN" "http://www.w3.org/Graphics/SVG/1.1/DTD/svg11.dtd">
<svg version="1.1" id="Layer_1" xmlns="http://www.w3.org/2000/svg" xmlns:xlink="http://www.w3.org/1999/xlink" x="0px" y="0px"
	 width="332.983px" height="206.99px" viewBox="0 0 332.983 206.99" enable-background="new 0 0 332.983 206.99"
	 xml:space="preserve">
<g>
	<path fill="none" stroke="#000000" stroke-width="0.75" stroke-miterlimit="10" d="M-251.574,81.292
		c-6.854,3.588-12.211,14.3,3.213,10.714l43.924-18.569c0,0,8.145-5.341,11.07,0c0,0,11.068,23.925,11.783,25.711
		c0,0-44.281,27.497-47.139,28.925c0,0,0.574,16.561,33.932,3c0,0,14.555-8.504,26.562-8.275
		c12.006,0.229,41.539,8.224,41.539,8.224l-58.107-79.011c0,0-4.285-4.642-13.213,0C-198.01,52.01-244.721,77.707-251.574,81.292z"
		/>
	<circle fill="none" stroke="#000000" stroke-width="0.75" stroke-miterlimit="10" cx="-120.364" cy="90.634" r="22.319"/>
	<path fill="none" stroke="#000000" stroke-width="0.75" stroke-miterlimit="10" d="M-292.68,145.265c0,0,2.424-1.671,4.709-1.201
		l0.027,16.621c0,0-0.33,5.067,1.322,8.151c0,0-1.211,0.881-3.414,0.661c0,0-3.746-3.084-2.645-18.064v-4.847V145.265z"/>
	<path fill="none" stroke="#000000" stroke-width="0.75" stroke-miterlimit="10" d="M-287.061,144.862c0,0,0.621,1.043,1.762,2.386
		c1.873,2.203,1.982,4.664,1.982,4.664h2.643v6.389h-2.752c0,0-0.07,1.654-1.873,3.745c-1.762,2.043-1.762,5.949-1.762,5.949
		V144.862z"/>
	<path fill="none" stroke="#000000" stroke-width="0.75" stroke-miterlimit="10" d="M-297.195,150.552
		c0,0,2.863,11.676,1.764,14.319c-1.102,2.644,2.549,1.762,2.549,1.762l-1.229-19.386L-297.195,150.552z"/>
	<path fill="none" stroke="#000000" stroke-width="0.75" stroke-miterlimit="10" d="M-279.461,144.935c0,0,2.424-1.671,4.709-1.201
		l0.027,16.622c0,0-0.33,5.066,1.322,8.151c0,0-1.213,0.881-3.414,0.661c0,0-3.746-3.084-2.645-18.064v-4.847V144.935z"/>
	<path fill="none" stroke="#000000" stroke-width="0.75" stroke-miterlimit="10" d="M-273.844,144.532c0,0,0.621,1.043,1.764,2.386
		c1.871,2.203,1.982,4.663,1.982,4.663h2.643v6.389h-2.754c0,0-0.068,1.655-1.871,3.745c-1.764,2.043-1.764,5.948-1.764,5.948
		V144.532z"/>
	<path fill="none" stroke="#000000" stroke-width="0.75" stroke-miterlimit="10" d="M-267.252,144.991c0,0,2.424-1.671,4.709-1.201
		l0.027,16.622c0,0-0.33,5.067,1.322,8.151c0,0-1.213,0.881-3.414,0.661c0,0-3.746-3.084-2.645-18.064v-4.847V144.991z"/>
	<path fill="none" stroke="#000000" stroke-width="0.75" stroke-miterlimit="10" d="M-261.635,144.587c0,0,0.623,1.043,1.764,2.386
		c1.871,2.203,1.982,4.664,1.982,4.664h2.643v6.388H-258c0,0-0.068,1.655-1.871,3.745c-1.764,2.043-1.764,5.948-1.764,5.948V144.587
		z"/>
	<path fill="none" stroke="#000000" stroke-width="0.75" stroke-miterlimit="10" d="M-254.033,144.661c0,0,2.424-1.671,4.707-1.201
		l0.029,16.622c0,0-0.33,5.067,1.322,8.151c0,0-1.213,0.881-3.414,0.661c0,0-3.746-3.084-2.645-18.064v-4.847V144.661z"/>
	<path fill="none" stroke="#000000" stroke-width="0.75" stroke-miterlimit="10" d="M-248.416,144.258c0,0,0.621,1.043,1.762,2.386
		c1.873,2.203,1.982,4.664,1.982,4.664h2.645v6.389h-2.754c0,0-0.07,1.654-1.873,3.745c-1.762,2.043-1.762,5.948-1.762,5.948
		V144.258z"/>
	<path fill="none" stroke="#000000" stroke-width="0.75" stroke-miterlimit="10" d="M-241.367,144.963c0,0,2.424-1.671,4.709-1.201
		l0.027,16.622c0,0-0.33,5.066,1.322,8.151c0,0-1.211,0.881-3.414,0.661c0,0-3.746-3.084-2.645-18.064v-4.848V144.963z"/>
	<path fill="none" stroke="#000000" stroke-width="0.75" stroke-miterlimit="10" d="M-235.75,144.56c0,0,0.623,1.043,1.764,2.386
		c1.873,2.203,1.982,4.663,1.982,4.663h2.643v6.389h-2.752c0,0-0.07,1.655-1.873,3.745c-1.764,2.043-1.764,5.948-1.764,5.948V144.56
		z"/>
	<path fill="none" stroke="#000000" stroke-width="0.75" stroke-miterlimit="10" d="M-228.148,144.634c0,0,2.424-1.671,4.707-1.201
		l0.029,16.622c0,0-0.33,5.067,1.322,8.151c0,0-1.213,0.881-3.416,0.661c0,0-3.744-3.084-2.643-18.065v-4.847V144.634z"/>
	<path fill="none" stroke="#000000" stroke-width="0.75" stroke-miterlimit="10" d="M-222.531,144.23c0,0,0.621,1.043,1.764,2.386
		c1.871,2.204,1.982,4.664,1.982,4.664h2.643v6.388h-2.754c0,0-0.07,1.655-1.871,3.746c-1.764,2.043-1.764,5.948-1.764,5.948V144.23
		z"/>
	<path fill="none" stroke="#000000" stroke-width="0.75" stroke-miterlimit="10" d="M-215.939,144.689c0,0,2.424-1.671,4.709-1.201
		l0.027,16.622c0,0-0.33,5.066,1.322,8.151c0,0-1.211,0.881-3.414,0.661c0,0-3.746-3.084-2.645-18.064v-4.847V144.689z"/>
	<path fill="none" stroke="#000000" stroke-width="0.75" stroke-miterlimit="10" d="M-210.322,144.286c0,0,0.623,1.043,1.764,2.386
		c1.871,2.203,1.982,4.664,1.982,4.664h2.643v6.389h-2.754c0,0-0.07,1.655-1.871,3.745c-1.764,2.043-1.764,5.948-1.764,5.948
		V144.286z"/>
	<path fill="none" stroke="#000000" stroke-width="0.75" stroke-miterlimit="10" d="M-202.721,144.359c0,0,2.422-1.671,4.707-1.2
		l0.029,16.622c0,0-0.33,5.066,1.32,8.151c0,0-1.211,0.881-3.414,0.661c0,0-3.744-3.084-2.643-18.064v-4.848V144.359z"/>
	<path fill="none" stroke="#000000" stroke-width="0.75" stroke-miterlimit="10" d="M-197.104,143.956c0,0,0.621,1.043,1.762,2.386
		c1.873,2.203,1.982,4.664,1.982,4.664h0.883v6.389h-0.992c0,0-0.07,1.655-1.873,3.745c-1.762,2.043-1.762,5.948-1.762,5.948
		V143.956z"/>
	<path fill="none" stroke="#000000" stroke-width="0.75" stroke-miterlimit="10" d="M-190.74,143.35h13.828
		c0,0-1.543,22.694,0,26.184c0,0-11.896,0.917-14.318,0C-191.23,169.533-193.162,148.419-190.74,143.35z"/>
	<path fill="none" stroke="#000000" stroke-width="0.75" stroke-miterlimit="10" d="M-173.846,145.43c0,0,2.422-1.671,4.707-1.201
		l0.027,16.622c0,0-0.33,5.067,1.322,8.151c0,0-1.211,0.881-3.414,0.661c0,0-3.744-3.084-2.643-18.064v-4.847V145.43z"/>
	<path fill="none" stroke="#000000" stroke-width="0.75" stroke-miterlimit="10" d="M-168.229,145.027c0,0,0.621,1.042,1.762,2.385
		c1.873,2.204,1.982,4.665,1.982,4.665h2.643v6.388h-2.752c0,0-0.07,1.655-1.873,3.745c-1.762,2.043-1.762,5.948-1.762,5.948
		V145.027z"/>
	<path fill="none" stroke="#000000" stroke-width="0.75" stroke-miterlimit="10" d="M-160.629,145.1c0,0,2.424-1.671,4.709-1.201
		l0.027,16.622c0,0-0.33,5.067,1.322,8.151c0,0-1.213,0.881-3.416,0.661c0,0-3.744-3.084-2.643-18.064v-4.847V145.1z"/>
	<path fill="none" stroke="#000000" stroke-width="0.75" stroke-miterlimit="10" d="M-155.012,144.697c0,0,0.621,1.042,1.764,2.386
		c1.871,2.203,1.982,4.663,1.982,4.663h0.881v6.389h-0.992c0,0-0.068,1.655-1.871,3.745c-1.764,2.043-1.764,5.948-1.764,5.948
		V144.697z"/>
	<path fill="none" stroke="#000000" stroke-width="0.75" stroke-miterlimit="10" d="M-148.719,144.768c0,0,2.424-1.671,4.709-1.201
		l0.027,16.622c0,0-0.33,5.067,1.322,8.151c0,0-1.211,0.882-3.414,0.661c0,0-3.746-3.084-2.645-18.065v-4.847V144.768z"/>
	<path fill="none" stroke="#000000" stroke-width="0.75" stroke-miterlimit="10" d="M-143.102,144.364c0,0,0.623,1.043,1.764,2.386
		c1.873,2.204,1.982,4.664,1.982,4.664h2.643v6.389h-2.752c0,0-0.07,1.655-1.873,3.745c-1.764,2.043-1.764,5.948-1.764,5.948
		V144.364z"/>
	<path fill="none" stroke="#000000" stroke-width="0.75" stroke-miterlimit="10" d="M-135.5,144.438c0,0,2.424-1.671,4.707-1.201
		l0.029,16.622c0,0-0.33,5.067,1.32,8.151c0,0-1.211,0.881-3.412,0.661c0,0-3.746-3.084-2.645-18.064v-4.847V144.438z"/>
	<path fill="none" stroke="#000000" stroke-width="0.75" stroke-miterlimit="10" d="M-129.883,144.035c0,0,0.621,1.043,1.762,2.386
		c1.873,2.203,1.984,4.664,1.984,4.664h2.643v6.389h-2.754c0,0-0.07,1.654-1.873,3.745c-1.762,2.042-1.762,5.948-1.762,5.948
		V144.035z"/>
	<path fill="none" stroke="#000000" stroke-width="0.75" stroke-miterlimit="10" d="M-123.291,144.493c0,0,2.424-1.671,4.707-1.201
		l0.029,16.622c0,0-0.33,5.066,1.322,8.151c0,0-1.213,0.881-3.414,0.661c0,0-3.746-3.084-2.645-18.064v-4.847V144.493z"/>
	<path fill="none" stroke="#000000" stroke-width="0.75" stroke-miterlimit="10" d="M-117.674,144.09c0,0,0.621,1.043,1.764,2.386
		c1.871,2.203,1.982,4.664,1.982,4.664h2.643v6.389h-2.754c0,0-0.068,1.655-1.871,3.745c-1.764,2.043-1.764,5.948-1.764,5.948
		V144.09z"/>
	<path fill="none" stroke="#000000" stroke-width="0.75" stroke-miterlimit="10" d="M-110.074,144.164c0,0,2.424-1.671,4.709-1.201
		l0.029,16.622c0,0-0.33,5.067,1.32,8.151c0,0-1.211,0.881-3.414,0.661c0,0-3.746-3.084-2.645-18.064v-4.847V144.164z"/>
	<path fill="none" stroke="#000000" stroke-width="0.75" stroke-miterlimit="10" d="M-104.455,143.76c0,0,0.621,1.043,1.762,2.386
		c1.873,2.204,1.982,4.664,1.982,4.664h2.645v6.388h-2.754c0,0-0.07,1.655-1.873,3.746c-1.762,2.042-1.762,5.948-1.762,5.948V143.76
		z"/>
	<path fill="none" stroke="#000000" stroke-width="0.75" stroke-miterlimit="10" d="M-97.406,144.466c0,0,2.424-1.671,4.709-1.201
		l0.027,16.622c0,0-0.33,5.067,1.322,8.151c0,0-1.211,0.881-3.414,0.661c0,0-3.746-3.084-2.645-18.064v-4.847V144.466z"/>
	<path fill="none" stroke="#000000" stroke-width="0.75" stroke-miterlimit="10" d="M-91.789,144.063c0,0,0.623,1.043,1.762,2.386
		c1.875,2.203,1.984,4.664,1.984,4.664h2.643v6.389h-2.752c0,0-0.07,1.655-1.875,3.745c-1.762,2.043-1.762,5.948-1.762,5.948
		V144.063z"/>
	<path fill="none" stroke="#000000" stroke-width="0.75" stroke-miterlimit="10" d="M-84.188,144.136c0,0,2.422-1.671,4.707-1.201
		l0.029,16.622c0,0-0.33,5.066,1.32,8.151c0,0-1.211,0.881-3.414,0.661c0,0-3.744-3.084-2.643-18.064v-4.847V144.136z"/>
	<path fill="none" stroke="#000000" stroke-width="0.75" stroke-miterlimit="10" d="M-78.57,143.733c0,0,0.621,1.042,1.762,2.386
		c1.873,2.203,1.982,4.664,1.982,4.664h2.645v6.389h-2.754c0,0-0.07,1.655-1.873,3.745c-1.762,2.043-1.762,5.948-1.762,5.948
		V143.733z"/>
	<path fill="none" stroke="#000000" stroke-width="0.75" stroke-miterlimit="10" d="M-71.979,144.191c0,0,2.424-1.671,4.707-1.201
		l0.029,16.622c0,0-0.33,5.067,1.322,8.151c0,0-1.213,0.881-3.414,0.661c0,0-3.746-3.084-2.645-18.064v-4.847V144.191z"/>
	<path fill="none" stroke="#000000" stroke-width="0.75" stroke-miterlimit="10" d="M-66.361,143.788c0,0,0.621,1.043,1.762,2.386
		c1.873,2.203,1.982,4.664,1.982,4.664h2.645v6.389h-2.754c0,0-0.07,1.655-1.873,3.745c-1.762,2.042-1.762,5.948-1.762,5.948
		V143.788z"/>
	<path fill="none" stroke="#000000" stroke-width="0.75" stroke-miterlimit="10" d="M-58.762,143.862c0,0,2.424-1.671,4.709-1.201
		l0.029,16.622c0,0-0.33,5.067,1.32,8.151c0,0-1.211,0.881-3.414,0.661c0,0-3.746-3.084-2.645-18.064v-4.847V143.862z"/>
	<path fill="none" stroke="#000000" stroke-width="0.75" stroke-miterlimit="10" d="M-53.143,143.459c0,0,0.621,1.043,1.762,2.386
		c1.873,2.203,1.982,4.664,1.982,4.664h0.881v6.389h-0.99c0,0-0.07,1.655-1.873,3.745c-1.762,2.043-1.762,5.948-1.762,5.948V143.459
		z"/>
</g>
<g>
	<path fill="none" stroke="#000000" stroke-width="0.75" stroke-miterlimit="10" d="M112.438,26.425l25.949,34.043
		c0,0,7.889,2.873,6.436-4.479L112.438,26.425z"/>
	<path fill="none" stroke="#000000" stroke-width="0.75" stroke-miterlimit="10" d="M117.006,50.298c0,0,14.115,5.691,17.852,19.928
		c0,0-2.283,10.567-26.779,20.126l18.684-20.027c0,0-14.324-8.402-14.324-16.205C112.438,54.12,112.438,49.052,117.006,50.298z"/>
	<circle fill="none" stroke="#000000" stroke-width="0.75" stroke-miterlimit="10" cx="155.816" cy="60.977" r="8.102"/>
	
		<rect x="94.23" y="92.437" fill="none" stroke="#000000" stroke-width="0.75" stroke-miterlimit="10" width="23.396" height="21.805"/>
	<path fill="#FFFFFF" stroke="#000000" stroke-width="0.75" stroke-miterlimit="10" d="M55.105,26.425l36.605,48.028
		c0,0,11.129,4.054,9.08-6.32L55.105,26.425z"/>
	<path fill="#FFFFFF" stroke="#000000" stroke-width="0.75" stroke-miterlimit="10" d="M61.547,60.104
		c0,0,19.914,8.029,25.186,28.114c0,0-3.221,14.909-37.777,28.394l26.357-28.253c0,0-20.207-11.854-20.207-22.861
		C55.105,65.497,55.105,58.346,61.547,60.104z"/>
	<circle fill="#FFFFFF" stroke="#000000" stroke-width="0.75" stroke-miterlimit="10" cx="116.302" cy="75.17" r="11.431"/>
	
		<rect x="29.766" y="119.553" fill="#FFFFFF" stroke="#000000" stroke-width="0.75" stroke-miterlimit="10" width="32.66" height="30.62"/>
	<g>
		<path fill="none" stroke="#000000" stroke-width="0.75" stroke-miterlimit="10" d="M44.449,157.358c0,0,1.186-0.817,2.303-0.587
			l0.014,8.126c0,0-0.162,2.477,0.646,3.985c0,0-0.594,0.43-1.67,0.323c0,0-1.83-1.508-1.293-8.831v-2.37V157.358z"/>
		<path fill="none" stroke="#000000" stroke-width="0.75" stroke-miterlimit="10" d="M47.197,157.161c0,0,0.303,0.51,0.861,1.166
			c0.914,1.077,0.969,2.28,0.969,2.28h1.293v3.123h-1.348c0,0-0.033,0.809-0.914,1.831c-0.861,0.999-0.861,2.908-0.861,2.908
			V157.161z"/>
		<path fill="none" stroke="#000000" stroke-width="0.75" stroke-miterlimit="10" d="M42.242,159.943c0,0,1.4,5.708,0.863,7
			c-0.539,1.292,1.246,0.861,1.246,0.861l-0.602-9.478L42.242,159.943z"/>
		<path fill="none" stroke="#000000" stroke-width="0.75" stroke-miterlimit="10" d="M50.912,157.197c0,0,1.186-0.816,2.303-0.587
			l0.014,8.125c0,0-0.162,2.477,0.646,3.984c0,0-0.594,0.431-1.67,0.324c0,0-1.832-1.508-1.293-8.831v-2.37V157.197z"/>
		<path fill="none" stroke="#000000" stroke-width="0.75" stroke-miterlimit="10" d="M53.658,157c0,0,0.303,0.51,0.861,1.167
			c0.916,1.077,0.969,2.28,0.969,2.28h1.293v3.123h-1.346c0,0-0.035,0.809-0.916,1.831c-0.861,0.999-0.861,2.907-0.861,2.907V157z"
			/>
		<path fill="none" stroke="#000000" stroke-width="0.75" stroke-miterlimit="10" d="M56.879,157.224c0,0,1.188-0.817,2.303-0.587
			l0.016,8.125c0,0-0.162,2.478,0.645,3.985c0,0-0.592,0.431-1.668,0.323c0,0-1.832-1.508-1.295-8.831v-2.369V157.224z"/>
		<path fill="none" stroke="#000000" stroke-width="0.75" stroke-miterlimit="10" d="M59.627,157.027c0,0,0.305,0.51,0.861,1.167
			c0.914,1.077,0.969,2.28,0.969,2.28h1.293v3.122h-1.348c0,0-0.033,0.809-0.914,1.831c-0.861,0.999-0.861,2.908-0.861,2.908
			V157.027z"/>
		<path fill="none" stroke="#000000" stroke-width="0.75" stroke-miterlimit="10" d="M63.342,157.063c0,0,1.186-0.817,2.303-0.587
			l0.014,8.126c0,0-0.162,2.477,0.646,3.985c0,0-0.592,0.43-1.67,0.323c0,0-1.83-1.508-1.293-8.831v-2.37V157.063z"/>
		<path fill="none" stroke="#000000" stroke-width="0.75" stroke-miterlimit="10" d="M66.088,156.866c0,0,0.303,0.509,0.861,1.166
			c0.916,1.077,0.969,2.28,0.969,2.28h1.293v3.123h-1.346c0,0-0.035,0.809-0.916,1.831c-0.861,0.999-0.861,2.908-0.861,2.908
			V156.866z"/>
		<path fill="none" stroke="#000000" stroke-width="0.75" stroke-miterlimit="10" d="M69.535,157.21c0,0,1.184-0.817,2.301-0.587
			l0.014,8.125c0,0-0.162,2.477,0.646,3.985c0,0-0.592,0.431-1.668,0.323c0,0-1.832-1.507-1.293-8.831v-2.37V157.21z"/>
		<path fill="none" stroke="#000000" stroke-width="0.75" stroke-miterlimit="10" d="M72.281,157.014c0,0,0.303,0.51,0.861,1.167
			c0.916,1.076,0.969,2.279,0.969,2.279h1.291v3.124h-1.344c0,0-0.035,0.809-0.916,1.831c-0.861,0.999-0.861,2.908-0.861,2.908
			V157.014z"/>
		<path fill="none" stroke="#000000" stroke-width="0.75" stroke-miterlimit="10" d="M75.996,157.049c0,0,1.186-0.817,2.301-0.586
			l0.014,8.125c0,0-0.16,2.477,0.646,3.984c0,0-0.592,0.432-1.67,0.324c0,0-1.828-1.508-1.291-8.832v-2.369V157.049z"/>
		<path fill="none" stroke="#000000" stroke-width="0.75" stroke-miterlimit="10" d="M78.742,156.853c0,0,0.303,0.51,0.863,1.166
			c0.914,1.077,0.967,2.28,0.967,2.28h1.293v3.122H80.52c0,0-0.033,0.81-0.914,1.832c-0.863,0.999-0.863,2.908-0.863,2.908V156.853z
			"/>
		<path fill="none" stroke="#000000" stroke-width="0.75" stroke-miterlimit="10" d="M81.965,157.077c0,0,1.186-0.817,2.301-0.587
			l0.016,8.125c0,0-0.162,2.477,0.645,3.985c0,0-0.592,0.431-1.67,0.323c0,0-1.83-1.507-1.291-8.831v-2.37V157.077z"/>
		<path fill="none" stroke="#000000" stroke-width="0.75" stroke-miterlimit="10" d="M84.711,156.879c0,0,0.305,0.51,0.861,1.167
			c0.916,1.077,0.969,2.279,0.969,2.279h1.293v3.124h-1.346c0,0-0.035,0.809-0.916,1.83c-0.861,1-0.861,2.908-0.861,2.908V156.879z"
			/>
		<path fill="none" stroke="#000000" stroke-width="0.75" stroke-miterlimit="10" d="M88.428,156.915c0,0,1.184-0.817,2.299-0.586
			l0.016,8.125c0,0-0.162,2.477,0.645,3.985c0,0-0.592,0.431-1.668,0.323c0,0-1.832-1.508-1.291-8.831v-2.37V156.915z"/>
		<path fill="none" stroke="#000000" stroke-width="0.75" stroke-miterlimit="10" d="M91.174,156.718c0,0,0.303,0.51,0.859,1.166
			c0.916,1.077,0.971,2.28,0.971,2.28h0.43v3.123h-0.484c0,0-0.033,0.81-0.916,1.831c-0.859,0.999-0.859,2.908-0.859,2.908V156.718z
			"/>
		<path fill="none" stroke="#000000" stroke-width="0.75" stroke-miterlimit="10" d="M94.283,156.422h6.76c0,0-0.754,11.094,0,12.8
			c0,0-5.814,0.448-7,0C94.043,169.222,93.1,158.9,94.283,156.422z"/>
		<path fill="none" stroke="#000000" stroke-width="0.75" stroke-miterlimit="10" d="M102.541,157.439c0,0,1.184-0.817,2.303-0.587
			l0.014,8.125c0,0-0.162,2.477,0.646,3.984c0,0-0.592,0.431-1.67,0.323c0,0-1.83-1.507-1.293-8.831v-2.369V157.439z"/>
		<path fill="none" stroke="#000000" stroke-width="0.75" stroke-miterlimit="10" d="M105.287,157.242c0,0,0.305,0.509,0.861,1.166
			c0.916,1.077,0.971,2.28,0.971,2.28h1.291v3.123h-1.346c0,0-0.033,0.809-0.916,1.831c-0.861,0.999-0.861,2.908-0.861,2.908
			V157.242z"/>
		<path fill="none" stroke="#000000" stroke-width="0.75" stroke-miterlimit="10" d="M109.004,157.277c0,0,1.184-0.817,2.301-0.587
			l0.014,8.126c0,0-0.16,2.478,0.646,3.985c0,0-0.592,0.431-1.67,0.323c0,0-1.83-1.508-1.291-8.831v-2.37V157.277z"/>
		<path fill="none" stroke="#000000" stroke-width="0.75" stroke-miterlimit="10" d="M111.75,157.081c0,0,0.303,0.51,0.861,1.166
			c0.916,1.077,0.969,2.28,0.969,2.28h0.432v3.124h-0.484c0,0-0.035,0.809-0.916,1.831c-0.861,0.999-0.861,2.908-0.861,2.908
			V157.081z"/>
		<path fill="none" stroke="#000000" stroke-width="0.75" stroke-miterlimit="10" d="M114.826,157.115c0,0,1.186-0.817,2.303-0.587
			l0.014,8.126c0,0-0.164,2.476,0.645,3.984c0,0-0.592,0.431-1.668,0.323c0,0-1.832-1.507-1.293-8.831v-2.37V157.115z"/>
		<path fill="none" stroke="#000000" stroke-width="0.75" stroke-miterlimit="10" d="M117.572,156.917c0,0,0.303,0.51,0.861,1.167
			c0.916,1.077,0.969,2.28,0.969,2.28h1.293v3.123h-1.346c0,0-0.035,0.809-0.916,1.831c-0.861,0.999-0.861,2.907-0.861,2.907
			V156.917z"/>
		<path fill="none" stroke="#000000" stroke-width="0.75" stroke-miterlimit="10" d="M121.287,156.954c0,0,1.186-0.816,2.301-0.587
			l0.016,8.125c0,0-0.162,2.477,0.645,3.985c0,0-0.592,0.431-1.668,0.323c0,0-1.83-1.508-1.293-8.831v-2.37V156.954z"/>
		<path fill="none" stroke="#000000" stroke-width="0.75" stroke-miterlimit="10" d="M124.033,156.757c0,0,0.303,0.51,0.863,1.167
			c0.914,1.077,0.969,2.279,0.969,2.279h1.291v3.123h-1.346c0,0-0.033,0.81-0.914,1.832c-0.863,0.998-0.863,2.907-0.863,2.907
			V156.757z"/>
		<path fill="none" stroke="#000000" stroke-width="0.75" stroke-miterlimit="10" d="M127.256,156.981c0,0,1.186-0.817,2.301-0.587
			l0.016,8.126c0,0-0.162,2.477,0.646,3.984c0,0-0.594,0.431-1.67,0.324c0,0-1.83-1.508-1.293-8.831v-2.37V156.981z"/>
		<path fill="none" stroke="#000000" stroke-width="0.75" stroke-miterlimit="10" d="M130.002,156.784c0,0,0.305,0.51,0.861,1.166
			c0.916,1.077,0.971,2.28,0.971,2.28h1.291v3.123h-1.346c0,0-0.035,0.809-0.916,1.831c-0.861,0.999-0.861,2.908-0.861,2.908
			V156.784z"/>
		<path fill="none" stroke="#000000" stroke-width="0.75" stroke-miterlimit="10" d="M133.717,156.82c0,0,1.186-0.817,2.303-0.587
			l0.014,8.126c0,0-0.162,2.477,0.646,3.984c0,0-0.594,0.431-1.67,0.323c0,0-1.83-1.507-1.293-8.831v-2.37V156.82z"/>
		<path fill="none" stroke="#000000" stroke-width="0.75" stroke-miterlimit="10" d="M136.465,156.623c0,0,0.303,0.51,0.861,1.167
			c0.914,1.077,0.969,2.28,0.969,2.28h1.293v3.123h-1.348c0,0-0.033,0.81-0.914,1.832c-0.861,0.999-0.861,2.908-0.861,2.908V156.623
			z"/>
		<path fill="none" stroke="#000000" stroke-width="0.75" stroke-miterlimit="10" d="M139.91,156.968c0,0,1.186-0.817,2.301-0.587
			l0.014,8.126c0,0-0.16,2.477,0.646,3.984c0,0-0.592,0.431-1.67,0.323c0,0-1.83-1.508-1.291-8.831v-2.37V156.968z"/>
		<path fill="none" stroke="#000000" stroke-width="0.75" stroke-miterlimit="10" d="M142.656,156.77c0,0,0.303,0.51,0.861,1.167
			c0.916,1.077,0.969,2.28,0.969,2.28h1.293v3.123h-1.346c0,0-0.035,0.809-0.916,1.831c-0.861,0.999-0.861,2.908-0.861,2.908V156.77
			z"/>
		<path fill="none" stroke="#000000" stroke-width="0.75" stroke-miterlimit="10" d="M146.371,156.806c0,0,1.186-0.816,2.303-0.587
			l0.014,8.125c0,0-0.162,2.477,0.646,3.985c0,0-0.592,0.431-1.67,0.323c0,0-1.83-1.507-1.293-8.831v-2.369V156.806z"/>
		<path fill="none" stroke="#000000" stroke-width="0.75" stroke-miterlimit="10" d="M149.117,156.61c0,0,0.305,0.509,0.861,1.166
			c0.916,1.077,0.971,2.28,0.971,2.28h1.293v3.123h-1.348c0,0-0.033,0.809-0.916,1.83c-0.861,0.999-0.861,2.908-0.861,2.908V156.61z
			"/>
		<path fill="none" stroke="#000000" stroke-width="0.75" stroke-miterlimit="10" d="M152.34,156.834c0,0,1.186-0.817,2.301-0.588
			l0.016,8.126c0,0-0.162,2.477,0.645,3.985c0,0-0.592,0.431-1.668,0.323c0,0-1.83-1.508-1.293-8.831v-2.37V156.834z"/>
		<path fill="none" stroke="#000000" stroke-width="0.75" stroke-miterlimit="10" d="M155.088,156.636c0,0,0.303,0.51,0.859,1.167
			c0.916,1.077,0.971,2.28,0.971,2.28h1.291v3.123h-1.346c0,0-0.035,0.809-0.916,1.831c-0.859,0.999-0.859,2.908-0.859,2.908
			V156.636z"/>
		<path fill="none" stroke="#000000" stroke-width="0.75" stroke-miterlimit="10" d="M158.801,156.672c0,0,1.186-0.816,2.303-0.587
			l0.014,8.126c0,0-0.162,2.477,0.646,3.984c0,0-0.592,0.431-1.67,0.323c0,0-1.83-1.507-1.293-8.83v-2.37V156.672z"/>
		<path fill="none" stroke="#000000" stroke-width="0.75" stroke-miterlimit="10" d="M161.549,156.476c0,0,0.303,0.51,0.861,1.166
			c0.916,1.077,0.969,2.28,0.969,2.28h0.432v3.124h-0.484c0,0-0.035,0.809-0.916,1.831c-0.861,0.999-0.861,2.908-0.861,2.908
			V156.476z"/>
		<path fill="none" stroke="#000000" stroke-width="0.75" stroke-miterlimit="10" d="M165.412,155.819h6.762
			c0,0-0.756,11.094,0,12.799c0,0-5.816,0.448-7.002,0C165.172,168.618,164.229,158.297,165.412,155.819z"/>
		<path fill="none" stroke="#000000" stroke-width="0.75" stroke-miterlimit="10" d="M173.672,156.835c0,0,1.184-0.817,2.301-0.587
			l0.014,8.126c0,0-0.16,2.477,0.646,3.984c0,0-0.592,0.431-1.668,0.323c0,0-1.832-1.507-1.293-8.831v-2.369V156.835z"/>
		<path fill="none" stroke="#000000" stroke-width="0.75" stroke-miterlimit="10" d="M176.418,156.638c0,0,0.303,0.51,0.861,1.166
			c0.916,1.078,0.969,2.281,0.969,2.281h1.291v3.122h-1.344c0,0-0.035,0.81-0.916,1.832c-0.861,0.998-0.861,2.908-0.861,2.908
			V156.638z"/>
		<path fill="none" stroke="#000000" stroke-width="0.75" stroke-miterlimit="10" d="M180.133,156.674c0,0,1.186-0.817,2.301-0.587
			l0.016,8.126c0,0-0.162,2.477,0.645,3.985c0,0-0.592,0.43-1.67,0.323c0,0-1.828-1.508-1.291-8.831v-2.37V156.674z"/>
		<path fill="none" stroke="#000000" stroke-width="0.75" stroke-miterlimit="10" d="M182.879,156.478c0,0,0.305,0.51,0.863,1.166
			c0.914,1.077,0.967,2.28,0.967,2.28h0.432v3.124h-0.484c0,0-0.035,0.808-0.914,1.83c-0.863,0.999-0.863,2.908-0.863,2.908V156.478
			z"/>
		<path fill="none" stroke="#000000" stroke-width="0.75" stroke-miterlimit="10" d="M185.957,156.512c0,0,1.184-0.817,2.301-0.587
			l0.014,8.125c0,0-0.162,2.477,0.646,3.985c0,0-0.594,0.431-1.67,0.323c0,0-1.832-1.508-1.291-8.831v-2.37V156.512z"/>
		<path fill="none" stroke="#000000" stroke-width="0.75" stroke-miterlimit="10" d="M188.703,156.314c0,0,0.303,0.51,0.859,1.167
			c0.916,1.077,0.971,2.28,0.971,2.28h1.291v3.124h-1.346c0,0-0.035,0.809-0.916,1.83c-0.859,1-0.859,2.908-0.859,2.908V156.314z"/>
		<path fill="none" stroke="#000000" stroke-width="0.75" stroke-miterlimit="10" d="M192.418,156.351c0,0,1.184-0.817,2.301-0.588
			l0.014,8.126c0,0-0.16,2.477,0.646,3.985c0,0-0.592,0.431-1.67,0.323c0,0-1.83-1.508-1.291-8.831v-2.37V156.351z"/>
		<path fill="none" stroke="#000000" stroke-width="0.75" stroke-miterlimit="10" d="M195.162,156.154c0,0,0.305,0.51,0.863,1.167
			c0.914,1.076,0.971,2.279,0.971,2.279h1.289v3.123h-1.346c0,0-0.033,0.809-0.914,1.831c-0.863,0.999-0.863,2.908-0.863,2.908
			V156.154z"/>
		<path fill="none" stroke="#000000" stroke-width="0.75" stroke-miterlimit="10" d="M198.385,156.377c0,0,1.186-0.817,2.303-0.587
			l0.014,8.126c0,0-0.162,2.476,0.646,3.984c0,0-0.592,0.431-1.67,0.324c0,0-1.83-1.508-1.293-8.832v-2.37V156.377z"/>
		<path fill="none" stroke="#000000" stroke-width="0.75" stroke-miterlimit="10" d="M201.131,156.181c0,0,0.305,0.509,0.863,1.166
			c0.916,1.077,0.969,2.279,0.969,2.279h1.291v3.124h-1.344c0,0-0.035,0.809-0.916,1.831c-0.863,0.999-0.863,2.908-0.863,2.908
			V156.181z"/>
		<path fill="none" stroke="#000000" stroke-width="0.75" stroke-miterlimit="10" d="M204.848,156.216c0,0,1.186-0.816,2.301-0.587
			l0.014,8.125c0,0-0.16,2.478,0.646,3.985c0,0-0.594,0.431-1.67,0.323c0,0-1.83-1.508-1.291-8.831v-2.37V156.216z"/>
		<path fill="none" stroke="#000000" stroke-width="0.75" stroke-miterlimit="10" d="M207.594,156.02c0,0,0.303,0.509,0.861,1.167
			c0.916,1.076,0.969,2.28,0.969,2.28h1.293v3.123h-1.346c0,0-0.035,0.809-0.916,1.832c-0.861,0.998-0.861,2.907-0.861,2.907V156.02
			z"/>
		<path fill="none" stroke="#000000" stroke-width="0.75" stroke-miterlimit="10" d="M211.041,156.364c0,0,1.184-0.817,2.299-0.587
			l0.016,8.125c0,0-0.162,2.478,0.646,3.985c0,0-0.594,0.431-1.67,0.323c0,0-1.83-1.508-1.291-8.831v-2.37V156.364z"/>
		<path fill="none" stroke="#000000" stroke-width="0.75" stroke-miterlimit="10" d="M213.785,156.167c0,0,0.305,0.51,0.863,1.167
			c0.916,1.077,0.969,2.28,0.969,2.28h1.291v3.123h-1.344c0,0-0.035,0.809-0.916,1.831c-0.863,0.998-0.863,2.907-0.863,2.907
			V156.167z"/>
		<path fill="none" stroke="#000000" stroke-width="0.75" stroke-miterlimit="10" d="M217.502,156.203c0,0,1.184-0.816,2.301-0.587
			l0.014,8.125c0,0-0.162,2.477,0.646,3.984c0,0-0.592,0.431-1.668,0.323c0,0-1.832-1.508-1.293-8.831v-2.37V156.203z"/>
		<path fill="none" stroke="#000000" stroke-width="0.75" stroke-miterlimit="10" d="M220.248,156.006c0,0,0.303,0.51,0.861,1.166
			c0.914,1.078,0.969,2.28,0.969,2.28h1.293v3.124h-1.348c0,0-0.033,0.809-0.914,1.83c-0.861,0.999-0.861,2.908-0.861,2.908V156.006
			z"/>
		<path fill="none" stroke="#000000" stroke-width="0.75" stroke-miterlimit="10" d="M223.471,156.23c0,0,1.184-0.817,2.301-0.587
			l0.014,8.125c0,0-0.16,2.478,0.646,3.985c0,0-0.594,0.431-1.67,0.324c0,0-1.83-1.508-1.291-8.832v-2.369V156.23z"/>
		<path fill="none" stroke="#000000" stroke-width="0.75" stroke-miterlimit="10" d="M226.217,156.033c0,0,0.303,0.509,0.861,1.166
			c0.916,1.077,0.969,2.28,0.969,2.28h1.293v3.123h-1.346c0,0-0.035,0.81-0.916,1.832c-0.861,0.998-0.861,2.907-0.861,2.907V156.033
			z"/>
		<path fill="none" stroke="#000000" stroke-width="0.75" stroke-miterlimit="10" d="M229.932,156.069c0,0,1.184-0.817,2.303-0.587
			l0.014,8.126c0,0-0.162,2.477,0.645,3.984c0,0-0.592,0.431-1.67,0.323c0,0-1.83-1.507-1.291-8.831v-2.37V156.069z"/>
		<path fill="none" stroke="#000000" stroke-width="0.75" stroke-miterlimit="10" d="M232.678,155.872c0,0,0.305,0.51,0.861,1.167
			c0.916,1.077,0.969,2.28,0.969,2.28h0.432v3.123h-0.484c0,0-0.035,0.809-0.916,1.83c-0.861,1-0.861,2.909-0.861,2.909V155.872z"/>
	</g>
	<path fill="none" stroke="#000000" stroke-width="0.75" stroke-miterlimit="10" d="M113.566,123.195c0,0,1.037-0.715,2.016-0.514
		l0.01,7.111c0,0-0.141,2.168,0.566,3.488c0,0-0.518,0.376-1.461,0.283c0,0-1.602-1.319-1.131-7.729v-2.074V123.195z"/>
	<path fill="none" stroke="#000000" stroke-width="0.75" stroke-miterlimit="10" d="M115.971,123.022c0,0,0.266,0.446,0.754,1.02
		c0.801,0.943,0.848,1.996,0.848,1.996h1.131v2.733h-1.178c0,0-0.029,0.708-0.801,1.603c-0.754,0.874-0.754,2.545-0.754,2.545
		V123.022z"/>
	<path fill="none" stroke="#000000" stroke-width="0.75" stroke-miterlimit="10" d="M111.635,125.457c0,0,1.225,4.996,0.754,6.126
		c-0.473,1.131,1.09,0.754,1.09,0.754l-0.523-8.295L111.635,125.457z"/>
	<path fill="none" stroke="#000000" stroke-width="0.75" stroke-miterlimit="10" d="M119.221,123.053c0,0,1.037-0.714,2.016-0.513
		l0.012,7.111c0,0-0.141,2.168,0.564,3.488c0,0-0.518,0.376-1.459,0.283c0,0-1.604-1.32-1.133-7.729v-2.075V123.053z"/>
	<path fill="none" stroke="#000000" stroke-width="0.75" stroke-miterlimit="10" d="M121.625,122.881c0,0,0.266,0.446,0.754,1.021
		c0.801,0.943,0.85,1.996,0.85,1.996h1.129v2.733h-1.178c0,0-0.029,0.708-0.801,1.602c-0.754,0.874-0.754,2.544-0.754,2.544V122.881
		z"/>
	<path fill="none" stroke="#000000" stroke-width="0.75" stroke-miterlimit="10" d="M124.445,123.078c0,0,1.037-0.715,2.014-0.514
		l0.014,7.111c0,0-0.143,2.168,0.564,3.488c0,0-0.52,0.376-1.461,0.282c0,0-1.604-1.319-1.131-7.729v-2.074V123.078z"/>
	<path fill="none" stroke="#000000" stroke-width="0.75" stroke-miterlimit="10" d="M126.85,122.905c0,0,0.264,0.446,0.752,1.02
		c0.803,0.943,0.85,1.996,0.85,1.996h1.131v2.733h-1.178c0,0-0.031,0.708-0.803,1.603c-0.752,0.874-0.752,2.545-0.752,2.545V122.905
		z"/>
	<path fill="none" stroke="#000000" stroke-width="0.75" stroke-miterlimit="10" d="M130.102,122.936c0,0,1.035-0.715,2.014-0.514
		l0.012,7.112c0,0-0.141,2.167,0.566,3.487c0,0-0.52,0.377-1.463,0.283c0,0-1.602-1.319-1.129-7.729v-2.074V122.936z"/>
	<path fill="none" stroke="#000000" stroke-width="0.75" stroke-miterlimit="10" d="M132.504,122.764c0,0,0.266,0.446,0.754,1.021
		c0.801,0.942,0.848,1.995,0.848,1.995h1.133v2.733h-1.18c0,0-0.029,0.708-0.801,1.602c-0.754,0.875-0.754,2.545-0.754,2.545
		V122.764z"/>
	<path fill="none" stroke="#000000" stroke-width="0.75" stroke-miterlimit="10" d="M135.52,123.065c0,0,1.037-0.715,2.014-0.514
		l0.014,7.112c0,0-0.141,2.167,0.564,3.487c0,0-0.518,0.377-1.461,0.283c0,0-1.602-1.32-1.131-7.729v-2.074V123.065z"/>
	<path fill="none" stroke="#000000" stroke-width="0.75" stroke-miterlimit="10" d="M137.924,122.893c0,0,0.266,0.446,0.754,1.021
		c0.801,0.942,0.848,1.995,0.848,1.995h1.131v2.734h-1.178c0,0-0.029,0.708-0.801,1.603c-0.754,0.874-0.754,2.544-0.754,2.544
		V122.893z"/>
	<path fill="none" stroke="#000000" stroke-width="0.75" stroke-miterlimit="10" d="M141.176,122.925c0,0,1.035-0.715,2.014-0.514
		l0.012,7.111c0,0-0.141,2.168,0.566,3.488c0,0-0.52,0.377-1.461,0.283c0,0-1.604-1.319-1.131-7.729v-2.074V122.925z"/>
	<path fill="none" stroke="#000000" stroke-width="0.75" stroke-miterlimit="10" d="M143.578,122.752c0,0,0.266,0.447,0.754,1.021
		c0.803,0.943,0.848,1.996,0.848,1.996h1.131v2.733h-1.176c0,0-0.031,0.708-0.803,1.603c-0.754,0.874-0.754,2.545-0.754,2.545
		V122.752z"/>
	<path fill="none" stroke="#000000" stroke-width="0.75" stroke-miterlimit="10" d="M146.398,122.948c0,0,1.037-0.715,2.016-0.514
		l0.012,7.111c0,0-0.141,2.168,0.566,3.487c0,0-0.52,0.377-1.463,0.283c0,0-1.602-1.319-1.131-7.729v-2.074V122.948z"/>
	<path fill="none" stroke="#000000" stroke-width="0.75" stroke-miterlimit="10" d="M148.803,122.776c0,0,0.266,0.446,0.754,1.021
		c0.801,0.942,0.848,1.995,0.848,1.995h1.131v2.734h-1.178c0,0-0.029,0.708-0.801,1.602c-0.754,0.875-0.754,2.545-0.754,2.545
		V122.776z"/>
	<path fill="none" stroke="#000000" stroke-width="0.75" stroke-miterlimit="10" d="M152.055,122.808c0,0,1.035-0.716,2.014-0.514
		l0.012,7.111c0,0-0.141,2.167,0.564,3.488c0,0-0.518,0.376-1.459,0.282c0,0-1.604-1.32-1.131-7.729v-2.074V122.808z"/>
	<path fill="none" stroke="#000000" stroke-width="0.75" stroke-miterlimit="10" d="M154.457,122.635c0,0,0.266,0.446,0.754,1.021
		c0.801,0.942,0.85,1.996,0.85,1.996h0.377v2.733h-0.426c0,0-0.029,0.708-0.801,1.603c-0.754,0.874-0.754,2.544-0.754,2.544V122.635
		z"/>
	<path fill="none" stroke="#000000" stroke-width="0.75" stroke-miterlimit="10" d="M157.18,122.375h5.916c0,0-0.658,9.71,0,11.203
		c0,0-5.09,0.392-6.125,0C156.971,133.578,156.143,124.544,157.18,122.375z"/>
	<path fill="none" stroke="#000000" stroke-width="0.75" stroke-miterlimit="10" d="M164.408,123.266c0,0,1.035-0.716,2.014-0.514
		l0.012,7.111c0,0-0.141,2.168,0.566,3.488c0,0-0.52,0.376-1.461,0.282c0,0-1.604-1.319-1.131-7.729v-2.074V123.266z"/>
	<path fill="none" stroke="#000000" stroke-width="0.75" stroke-miterlimit="10" d="M166.812,123.093c0,0,0.264,0.446,0.752,1.021
		c0.801,0.943,0.848,1.996,0.848,1.996h1.131v2.733h-1.178c0,0-0.029,0.708-0.801,1.603c-0.752,0.874-0.752,2.545-0.752,2.545
		V123.093z"/>
	<path fill="none" stroke="#000000" stroke-width="0.75" stroke-miterlimit="10" d="M170.062,123.124c0,0,1.037-0.715,2.016-0.514
		l0.012,7.112c0,0-0.141,2.167,0.564,3.487c0,0-0.518,0.377-1.461,0.283c0,0-1.602-1.319-1.131-7.729v-2.074V123.124z"/>
	<path fill="none" stroke="#000000" stroke-width="0.75" stroke-miterlimit="10" d="M172.465,122.952c0,0,0.268,0.446,0.756,1.021
		c0.801,0.942,0.848,1.995,0.848,1.995h0.377v2.733h-0.424c0,0-0.029,0.708-0.801,1.602c-0.756,0.875-0.756,2.545-0.756,2.545
		V122.952z"/>
	<path fill="none" stroke="#000000" stroke-width="0.75" stroke-miterlimit="10" d="M175.158,122.982c0,0,1.037-0.715,2.016-0.514
		l0.012,7.112c0,0-0.143,2.167,0.564,3.487c0,0-0.518,0.377-1.459,0.283c0,0-1.604-1.32-1.133-7.729v-2.074V122.982z"/>
	<path fill="none" stroke="#000000" stroke-width="0.75" stroke-miterlimit="10" d="M177.562,122.809c0,0,0.266,0.447,0.754,1.021
		c0.801,0.942,0.848,1.996,0.848,1.996h1.131v2.733h-1.178c0,0-0.029,0.708-0.801,1.603c-0.754,0.874-0.754,2.545-0.754,2.545
		V122.809z"/>
	<path fill="none" stroke="#000000" stroke-width="0.75" stroke-miterlimit="10" d="M180.814,122.841c0,0,1.037-0.715,2.014-0.514
		l0.012,7.112c0,0-0.141,2.167,0.566,3.487c0,0-0.52,0.377-1.461,0.283c0,0-1.602-1.319-1.131-7.729v-2.074V122.841z"/>
	<path fill="none" stroke="#000000" stroke-width="0.75" stroke-miterlimit="10" d="M183.217,122.668c0,0,0.266,0.446,0.756,1.021
		c0.799,0.942,0.848,1.996,0.848,1.996h1.131v2.732h-1.18c0,0-0.029,0.708-0.799,1.603c-0.756,0.874-0.756,2.544-0.756,2.544
		V122.668z"/>
	<path fill="none" stroke="#000000" stroke-width="0.75" stroke-miterlimit="10" d="M186.037,122.864c0,0,1.037-0.715,2.014-0.514
		l0.014,7.111c0,0-0.141,2.168,0.564,3.487c0,0-0.518,0.377-1.461,0.283c0,0-1.602-1.32-1.131-7.729v-2.074V122.864z"/>
	<path fill="none" stroke="#000000" stroke-width="0.75" stroke-miterlimit="10" d="M188.439,122.692c0,0,0.268,0.446,0.756,1.021
		c0.801,0.942,0.85,1.995,0.85,1.995h1.129v2.734h-1.178c0,0-0.029,0.708-0.801,1.603c-0.756,0.874-0.756,2.544-0.756,2.544V122.692
		z"/>
	<path fill="none" stroke="#000000" stroke-width="0.75" stroke-miterlimit="10" d="M191.693,122.724c0,0,1.037-0.715,2.014-0.514
		l0.012,7.111c0,0-0.141,2.168,0.566,3.488c0,0-0.52,0.377-1.461,0.283c0,0-1.604-1.319-1.131-7.729v-2.074V122.724z"/>
	<path fill="none" stroke="#000000" stroke-width="0.75" stroke-miterlimit="10" d="M194.096,122.551c0,0,0.266,0.446,0.754,1.021
		c0.803,0.942,0.848,1.995,0.848,1.995h1.133v2.733h-1.178c0,0-0.031,0.708-0.803,1.603c-0.754,0.874-0.754,2.545-0.754,2.545
		V122.551z"/>
	<path fill="none" stroke="#000000" stroke-width="0.75" stroke-miterlimit="10" d="M197.113,122.853c0,0,1.035-0.715,2.014-0.514
		l0.012,7.111c0,0-0.141,2.168,0.566,3.488c0,0-0.52,0.377-1.463,0.282c0,0-1.602-1.319-1.129-7.729v-2.074V122.853z"/>
	<path fill="none" stroke="#000000" stroke-width="0.75" stroke-miterlimit="10" d="M199.516,122.68c0,0,0.266,0.446,0.754,1.021
		c0.801,0.943,0.85,1.995,0.85,1.995h1.131v2.733h-1.18c0,0-0.029,0.708-0.801,1.604c-0.754,0.874-0.754,2.544-0.754,2.544V122.68z"
		/>
	<path fill="none" stroke="#000000" stroke-width="0.75" stroke-miterlimit="10" d="M202.768,122.711c0,0,1.037-0.715,2.014-0.514
		l0.012,7.112c0,0-0.141,2.167,0.566,3.487c0,0-0.518,0.377-1.461,0.283c0,0-1.602-1.32-1.131-7.729v-2.074V122.711z"/>
	<path fill="none" stroke="#000000" stroke-width="0.75" stroke-miterlimit="10" d="M205.17,122.539c0,0,0.268,0.446,0.756,1.021
		c0.801,0.942,0.848,1.996,0.848,1.996h1.131v2.733h-1.178c0,0-0.031,0.708-0.801,1.603c-0.756,0.874-0.756,2.544-0.756,2.544
		V122.539z"/>
	<path fill="none" stroke="#000000" stroke-width="0.75" stroke-miterlimit="10" d="M207.99,122.735c0,0,1.037-0.715,2.016-0.514
		l0.012,7.112c0,0-0.143,2.168,0.566,3.487c0,0-0.52,0.377-1.461,0.283c0,0-1.604-1.32-1.133-7.729v-2.074V122.735z"/>
	<path fill="none" stroke="#000000" stroke-width="0.75" stroke-miterlimit="10" d="M210.395,122.562c0,0,0.266,0.447,0.754,1.021
		c0.801,0.942,0.848,1.995,0.848,1.995h1.133v2.733h-1.18c0,0-0.029,0.708-0.801,1.602c-0.754,0.874-0.754,2.545-0.754,2.545
		V122.562z"/>
	<path fill="none" stroke="#000000" stroke-width="0.75" stroke-miterlimit="10" d="M213.646,122.594c0,0,1.037-0.715,2.014-0.514
		l0.012,7.111c0,0-0.141,2.168,0.566,3.487c0,0-0.518,0.377-1.461,0.283c0,0-1.602-1.32-1.131-7.729v-2.073V122.594z"/>
	<path fill="none" stroke="#000000" stroke-width="0.75" stroke-miterlimit="10" d="M216.049,122.422c0,0,0.268,0.446,0.754,1.021
		c0.803,0.942,0.85,1.995,0.85,1.995h0.377v2.734h-0.424c0,0-0.029,0.708-0.803,1.602c-0.754,0.875-0.754,2.545-0.754,2.545V122.422
		z"/>
	<path fill="none" stroke="#000000" stroke-width="0.75" stroke-miterlimit="10" d="M219.432,121.847h5.916
		c0,0-0.658,9.709,0,11.202c0,0-5.088,0.393-6.125,0C219.223,133.049,218.395,124.016,219.432,121.847z"/>
	<path fill="none" stroke="#000000" stroke-width="0.75" stroke-miterlimit="10" d="M226.66,122.737c0,0,1.035-0.715,2.014-0.514
		l0.014,7.111c0,0-0.143,2.168,0.564,3.488c0,0-0.52,0.377-1.461,0.283c0,0-1.604-1.319-1.131-7.729v-2.074V122.737z"/>
	<path fill="none" stroke="#000000" stroke-width="0.75" stroke-miterlimit="10" d="M229.064,122.565c0,0,0.264,0.446,0.752,1.021
		c0.803,0.942,0.85,1.996,0.85,1.996h1.129v2.733h-1.176c0,0-0.031,0.708-0.803,1.603c-0.752,0.874-0.752,2.545-0.752,2.545V122.565
		z"/>
	<path fill="none" stroke="#000000" stroke-width="0.75" stroke-miterlimit="10" d="M232.316,122.596c0,0,1.035-0.715,2.014-0.514
		l0.012,7.111c0,0-0.141,2.168,0.566,3.487c0,0-0.52,0.377-1.463,0.283c0,0-1.602-1.319-1.129-7.729v-2.074V122.596z"/>
	<path fill="none" stroke="#000000" stroke-width="0.75" stroke-miterlimit="10" d="M234.719,122.424c0,0,0.266,0.446,0.754,1.021
		c0.801,0.942,0.848,1.995,0.848,1.995h0.377v2.734h-0.424c0,0-0.029,0.708-0.801,1.602c-0.754,0.875-0.754,2.545-0.754,2.545
		V122.424z"/>
	<path fill="none" stroke="#000000" stroke-width="0.75" stroke-miterlimit="10" d="M237.41,122.454c0,0,1.037-0.715,2.016-0.514
		l0.012,7.111c0,0-0.143,2.168,0.564,3.488c0,0-0.518,0.377-1.461,0.283c0,0-1.602-1.319-1.131-7.729v-2.073V122.454z"/>
	<path fill="none" stroke="#000000" stroke-width="0.75" stroke-miterlimit="10" d="M239.814,122.281c0,0,0.266,0.447,0.754,1.021
		c0.803,0.942,0.848,1.995,0.848,1.995h1.131v2.733h-1.176c0,0-0.031,0.708-0.803,1.603c-0.754,0.874-0.754,2.545-0.754,2.545
		V122.281z"/>
	<path fill="none" stroke="#000000" stroke-width="0.75" stroke-miterlimit="10" d="M243.066,122.313c0,0,1.037-0.715,2.014-0.514
		l0.012,7.111c0,0-0.141,2.168,0.566,3.487c0,0-0.52,0.377-1.461,0.282c0,0-1.604-1.319-1.131-7.729v-2.074V122.313z"/>
	<path fill="none" stroke="#000000" stroke-width="0.75" stroke-miterlimit="10" d="M245.471,122.141c0,0,0.264,0.446,0.752,1.021
		c0.801,0.943,0.85,1.996,0.85,1.996h1.131v2.733h-1.18c0,0-0.027,0.708-0.801,1.602c-0.752,0.874-0.752,2.544-0.752,2.544V122.141z
		"/>
	<path fill="none" stroke="#000000" stroke-width="0.75" stroke-miterlimit="10" d="M248.289,122.337c0,0,1.037-0.716,2.016-0.514
		l0.012,7.111c0,0-0.141,2.168,0.564,3.488c0,0-0.518,0.376-1.461,0.283c0,0-1.602-1.32-1.131-7.729v-2.074V122.337z"/>
	<path fill="none" stroke="#000000" stroke-width="0.75" stroke-miterlimit="10" d="M250.693,122.164c0,0,0.266,0.446,0.754,1.021
		c0.801,0.943,0.848,1.996,0.848,1.996h1.131v2.733h-1.178c0,0-0.029,0.708-0.801,1.603c-0.754,0.874-0.754,2.544-0.754,2.544
		V122.164z"/>
	<path fill="none" stroke="#000000" stroke-width="0.75" stroke-miterlimit="10" d="M253.943,122.195c0,0,1.037-0.715,2.016-0.514
		l0.014,7.112c0,0-0.143,2.167,0.564,3.487c0,0-0.52,0.377-1.461,0.283c0,0-1.604-1.319-1.133-7.729v-2.074V122.195z"/>
	<path fill="none" stroke="#000000" stroke-width="0.75" stroke-miterlimit="10" d="M256.348,122.023c0,0,0.266,0.446,0.754,1.021
		c0.803,0.942,0.85,1.995,0.85,1.995h1.129v2.733h-1.176c0,0-0.031,0.708-0.803,1.603c-0.754,0.875-0.754,2.545-0.754,2.545V122.023
		z"/>
	<path fill="none" stroke="#000000" stroke-width="0.75" stroke-miterlimit="10" d="M259.365,122.325c0,0,1.035-0.715,2.014-0.514
		l0.012,7.111c0,0-0.141,2.168,0.566,3.488c0,0-0.52,0.377-1.461,0.283c0,0-1.604-1.319-1.131-7.729v-2.074V122.325z"/>
	<path fill="none" stroke="#000000" stroke-width="0.75" stroke-miterlimit="10" d="M261.77,122.152c0,0,0.264,0.446,0.752,1.021
		c0.801,0.942,0.85,1.995,0.85,1.995h1.131v2.733h-1.18c0,0-0.029,0.708-0.801,1.603c-0.752,0.874-0.752,2.544-0.752,2.544V122.152z
		"/>
	<path fill="none" stroke="#000000" stroke-width="0.75" stroke-miterlimit="10" d="M265.02,122.184c0,0,1.037-0.714,2.014-0.514
		l0.012,7.111c0,0-0.141,2.168,0.566,3.488c0,0-0.518,0.376-1.461,0.283c0,0-1.602-1.319-1.131-7.729v-2.074V122.184z"/>
	<path fill="none" stroke="#000000" stroke-width="0.75" stroke-miterlimit="10" d="M267.422,122.011c0,0,0.268,0.446,0.756,1.021
		c0.801,0.942,0.848,1.995,0.848,1.995h1.131v2.733h-1.178c0,0-0.031,0.708-0.801,1.603c-0.756,0.874-0.756,2.544-0.756,2.544
		V122.011z"/>
	<path fill="none" stroke="#000000" stroke-width="0.75" stroke-miterlimit="10" d="M270.242,122.208c0,0,1.037-0.715,2.016-0.514
		l0.012,7.111c0,0-0.141,2.168,0.564,3.488c0,0-0.518,0.376-1.459,0.283c0,0-1.604-1.32-1.133-7.729v-2.074V122.208z"/>
	<path fill="none" stroke="#000000" stroke-width="0.75" stroke-miterlimit="10" d="M272.646,122.035c0,0,0.266,0.447,0.754,1.021
		c0.803,0.942,0.85,1.995,0.85,1.995h1.129v2.734h-1.176c0,0-0.031,0.708-0.803,1.602c-0.754,0.875-0.754,2.545-0.754,2.545V122.035
		z"/>
	<path fill="none" stroke="#000000" stroke-width="0.75" stroke-miterlimit="10" d="M275.898,122.066c0,0,1.037-0.715,2.014-0.513
		l0.012,7.111c0,0-0.141,2.168,0.566,3.488c0,0-0.52,0.376-1.461,0.282c0,0-1.604-1.32-1.131-7.729v-2.074V122.066z"/>
	<path fill="none" stroke="#000000" stroke-width="0.75" stroke-miterlimit="10" d="M278.303,121.894c0,0,0.266,0.446,0.752,1.021
		c0.803,0.943,0.85,1.996,0.85,1.996h0.377v2.733h-0.424c0,0-0.029,0.708-0.803,1.603c-0.752,0.874-0.752,2.545-0.752,2.545V121.894
		z"/>
	<g>
		<path fill="none" stroke="#000000" stroke-width="0.75" stroke-miterlimit="10" d="M157.102,95.839c0,0,0.955-0.658,1.854-0.473
			l0.012,6.542c0,0-0.129,1.995,0.521,3.208c0,0-0.477,0.347-1.346,0.261c0,0-1.473-1.214-1.041-7.11v-1.908V95.839z"/>
		<path fill="none" stroke="#000000" stroke-width="0.75" stroke-miterlimit="10" d="M159.314,95.681c0,0,0.242,0.41,0.691,0.938
			c0.738,0.867,0.781,1.836,0.781,1.836h1.041v2.514h-1.084c0,0-0.025,0.652-0.738,1.475c-0.691,0.804-0.691,2.341-0.691,2.341
			V95.681z"/>
		<path fill="none" stroke="#000000" stroke-width="0.75" stroke-miterlimit="10" d="M155.326,97.919c0,0,1.127,4.596,0.693,5.637
			c-0.434,1.041,1.004,0.694,1.004,0.694l-0.484-7.631L155.326,97.919z"/>
		<path fill="none" stroke="#000000" stroke-width="0.75" stroke-miterlimit="10" d="M162.307,95.709c0,0,0.953-0.657,1.852-0.472
			l0.012,6.542c0,0-0.131,1.995,0.521,3.208c0,0-0.479,0.347-1.344,0.26c0,0-1.477-1.214-1.041-7.111v-1.908V95.709z"/>
		<path fill="none" stroke="#000000" stroke-width="0.75" stroke-miterlimit="10" d="M164.516,95.551c0,0,0.246,0.41,0.695,0.938
			c0.736,0.868,0.781,1.836,0.781,1.836h1.039v2.516h-1.084c0,0-0.027,0.651-0.736,1.473c-0.695,0.804-0.695,2.342-0.695,2.342
			V95.551z"/>
		<path fill="none" stroke="#000000" stroke-width="0.75" stroke-miterlimit="10" d="M167.111,95.731c0,0,0.955-0.658,1.854-0.473
			l0.012,6.543c0,0-0.131,1.995,0.52,3.209c0,0-0.479,0.346-1.344,0.259c0,0-1.475-1.214-1.041-7.11v-1.908V95.731z"/>
		<path fill="none" stroke="#000000" stroke-width="0.75" stroke-miterlimit="10" d="M169.322,95.572c0,0,0.246,0.411,0.695,0.939
			c0.736,0.867,0.779,1.836,0.779,1.836h1.041v2.514h-1.084c0,0-0.027,0.652-0.736,1.475c-0.695,0.804-0.695,2.341-0.695,2.341
			V95.572z"/>
		<path fill="none" stroke="#000000" stroke-width="0.75" stroke-miterlimit="10" d="M172.314,95.601c0,0,0.953-0.658,1.854-0.473
			l0.012,6.542c0,0-0.131,1.995,0.52,3.209c0,0-0.477,0.346-1.344,0.26c0,0-1.475-1.214-1.041-7.11v-1.908V95.601z"/>
		<path fill="none" stroke="#000000" stroke-width="0.75" stroke-miterlimit="10" d="M174.525,95.442c0,0,0.244,0.411,0.693,0.939
			c0.736,0.867,0.779,1.836,0.779,1.836h1.043v2.515h-1.086c0,0-0.025,0.651-0.736,1.474c-0.693,0.804-0.693,2.342-0.693,2.342
			V95.442z"/>
		<path fill="none" stroke="#000000" stroke-width="0.75" stroke-miterlimit="10" d="M177.301,95.72c0,0,0.953-0.658,1.854-0.473
			l0.01,6.542c0,0-0.129,1.995,0.521,3.208c0,0-0.479,0.347-1.346,0.26c0,0-1.473-1.214-1.039-7.111V96.24V95.72z"/>
		<path fill="none" stroke="#000000" stroke-width="0.75" stroke-miterlimit="10" d="M179.512,95.562c0,0,0.244,0.411,0.693,0.939
			c0.738,0.867,0.781,1.835,0.781,1.835h1.041v2.516h-1.084c0,0-0.029,0.651-0.738,1.474c-0.693,0.804-0.693,2.341-0.693,2.341
			V95.562z"/>
		<path fill="none" stroke="#000000" stroke-width="0.75" stroke-miterlimit="10" d="M182.504,95.59c0,0,0.953-0.657,1.852-0.473
			l0.012,6.542c0,0-0.131,1.995,0.52,3.208c0,0-0.475,0.348-1.342,0.261c0,0-1.475-1.214-1.041-7.11v-1.908V95.59z"/>
		<path fill="none" stroke="#000000" stroke-width="0.75" stroke-miterlimit="10" d="M184.715,95.432c0,0,0.244,0.411,0.695,0.938
			c0.734,0.868,0.779,1.836,0.779,1.836h1.039v2.515h-1.084c0,0-0.025,0.651-0.734,1.474c-0.695,0.804-0.695,2.341-0.695,2.341
			V95.432z"/>
		<path fill="none" stroke="#000000" stroke-width="0.75" stroke-miterlimit="10" d="M187.309,95.612c0,0,0.955-0.657,1.854-0.472
			l0.012,6.542c0,0-0.131,1.995,0.521,3.208c0,0-0.479,0.347-1.346,0.26c0,0-1.475-1.214-1.041-7.111v-1.908V95.612z"/>
		<path fill="none" stroke="#000000" stroke-width="0.75" stroke-miterlimit="10" d="M189.52,95.454c0,0,0.246,0.411,0.695,0.939
			c0.736,0.867,0.779,1.835,0.779,1.835h1.041v2.515h-1.084c0,0-0.027,0.651-0.736,1.474c-0.695,0.804-0.695,2.342-0.695,2.342
			V95.454z"/>
		<path fill="none" stroke="#000000" stroke-width="0.75" stroke-miterlimit="10" d="M192.512,95.482c0,0,0.955-0.658,1.854-0.473
			l0.01,6.542c0,0-0.129,1.994,0.521,3.208c0,0-0.477,0.348-1.344,0.261c0,0-1.475-1.214-1.041-7.11v-1.908V95.482z"/>
		<path fill="none" stroke="#000000" stroke-width="0.75" stroke-miterlimit="10" d="M194.725,95.323c0,0,0.242,0.411,0.691,0.939
			c0.738,0.867,0.781,1.836,0.781,1.836h0.348v2.514h-0.391c0,0-0.027,0.652-0.738,1.475c-0.691,0.804-0.691,2.341-0.691,2.341
			V95.323z"/>
		<path fill="none" stroke="#000000" stroke-width="0.75" stroke-miterlimit="10" d="M197.227,95.085h5.443
			c0,0-0.605,8.933,0,10.307c0,0-4.682,0.361-5.635,0C197.035,105.392,196.275,97.081,197.227,95.085z"/>
		<path fill="none" stroke="#000000" stroke-width="0.75" stroke-miterlimit="10" d="M203.879,95.904c0,0,0.951-0.658,1.852-0.473
			l0.012,6.542c0,0-0.131,1.995,0.52,3.209c0,0-0.477,0.346-1.344,0.26c0,0-1.475-1.214-1.039-7.111v-1.907V95.904z"/>
		<path fill="none" stroke="#000000" stroke-width="0.75" stroke-miterlimit="10" d="M206.09,95.746c0,0,0.244,0.41,0.693,0.938
			c0.736,0.867,0.779,1.836,0.779,1.836h1.041v2.514h-1.084c0,0-0.027,0.652-0.736,1.475c-0.693,0.804-0.693,2.341-0.693,2.341
			V95.746z"/>
		<path fill="none" stroke="#000000" stroke-width="0.75" stroke-miterlimit="10" d="M209.08,95.774c0,0,0.955-0.658,1.854-0.473
			l0.012,6.542c0,0-0.131,1.995,0.52,3.209c0,0-0.477,0.347-1.344,0.26c0,0-1.475-1.214-1.041-7.11v-1.908V95.774z"/>
		<path fill="none" stroke="#000000" stroke-width="0.75" stroke-miterlimit="10" d="M211.291,95.616c0,0,0.246,0.41,0.695,0.938
			c0.736,0.868,0.779,1.836,0.779,1.836h0.348v2.515h-0.391c0,0-0.027,0.651-0.736,1.474c-0.695,0.804-0.695,2.341-0.695,2.341
			V95.616z"/>
		<path fill="none" stroke="#000000" stroke-width="0.75" stroke-miterlimit="10" d="M213.77,95.644c0,0,0.953-0.658,1.852-0.474
			l0.012,6.543c0,0-0.129,1.994,0.52,3.208c0,0-0.475,0.347-1.344,0.26c0,0-1.473-1.214-1.039-7.11v-1.908V95.644z"/>
		<path fill="none" stroke="#000000" stroke-width="0.75" stroke-miterlimit="10" d="M215.98,95.484c0,0,0.244,0.411,0.693,0.939
			c0.738,0.867,0.779,1.835,0.779,1.835h1.041v2.515h-1.082c0,0-0.029,0.651-0.738,1.474c-0.693,0.804-0.693,2.341-0.693,2.341
			V95.484z"/>
		<path fill="none" stroke="#000000" stroke-width="0.75" stroke-miterlimit="10" d="M218.973,95.513c0,0,0.953-0.658,1.854-0.472
			l0.012,6.542c0,0-0.131,1.995,0.518,3.208c0,0-0.477,0.347-1.342,0.26c0,0-1.477-1.214-1.041-7.111v-1.908V95.513z"/>
		<path fill="none" stroke="#000000" stroke-width="0.75" stroke-miterlimit="10" d="M221.184,95.355c0,0,0.244,0.411,0.693,0.939
			c0.736,0.867,0.781,1.836,0.781,1.836h1.039v2.515h-1.084c0,0-0.027,0.651-0.736,1.474c-0.693,0.805-0.693,2.341-0.693,2.341
			V95.355z"/>
		<path fill="none" stroke="#000000" stroke-width="0.75" stroke-miterlimit="10" d="M223.777,95.536c0,0,0.955-0.658,1.854-0.473
			l0.012,6.543c0,0-0.131,1.994,0.52,3.208c0,0-0.477,0.347-1.344,0.261c0,0-1.475-1.215-1.041-7.111v-1.909V95.536z"/>
		<path fill="none" stroke="#000000" stroke-width="0.75" stroke-miterlimit="10" d="M225.988,95.376c0,0,0.246,0.41,0.695,0.939
			c0.736,0.867,0.779,1.836,0.779,1.836h1.041v2.515h-1.084c0,0-0.027,0.652-0.736,1.474c-0.695,0.804-0.695,2.341-0.695,2.341
			V95.376z"/>
		<path fill="none" stroke="#000000" stroke-width="0.75" stroke-miterlimit="10" d="M228.979,95.405c0,0,0.955-0.658,1.855-0.472
			l0.012,6.542c0,0-0.131,1.994,0.52,3.208c0,0-0.477,0.347-1.346,0.26c0,0-1.473-1.214-1.041-7.111v-1.908V95.405z"/>
		<path fill="none" stroke="#000000" stroke-width="0.75" stroke-miterlimit="10" d="M231.193,95.247c0,0,0.244,0.41,0.691,0.939
			c0.738,0.867,0.781,1.836,0.781,1.836h1.041v2.514h-1.084c0,0-0.029,0.651-0.738,1.474c-0.691,0.804-0.691,2.341-0.691,2.341
			V95.247z"/>
		<path fill="none" stroke="#000000" stroke-width="0.75" stroke-miterlimit="10" d="M233.967,95.525c0,0,0.955-0.658,1.854-0.473
			l0.01,6.542c0,0-0.129,1.995,0.521,3.209c0,0-0.479,0.347-1.344,0.26c0,0-1.475-1.214-1.041-7.11v-1.908V95.525z"/>
		<path fill="none" stroke="#000000" stroke-width="0.75" stroke-miterlimit="10" d="M236.178,95.366c0,0,0.244,0.411,0.693,0.939
			c0.738,0.867,0.781,1.835,0.781,1.835h1.041v2.515h-1.084c0,0-0.027,0.652-0.738,1.474c-0.693,0.804-0.693,2.341-0.693,2.341
			V95.366z"/>
		<path fill="none" stroke="#000000" stroke-width="0.75" stroke-miterlimit="10" d="M239.17,95.395c0,0,0.953-0.658,1.852-0.473
			l0.014,6.543c0,0-0.131,1.994,0.52,3.208c0,0-0.477,0.347-1.344,0.26c0,0-1.475-1.214-1.041-7.11v-1.909V95.395z"/>
		<path fill="none" stroke="#000000" stroke-width="0.75" stroke-miterlimit="10" d="M241.381,95.236c0,0,0.244,0.411,0.693,0.939
			c0.736,0.867,0.779,1.836,0.779,1.836h1.041v2.514h-1.084c0,0-0.027,0.651-0.736,1.474c-0.693,0.804-0.693,2.341-0.693,2.341
			V95.236z"/>
		<path fill="none" stroke="#000000" stroke-width="0.75" stroke-miterlimit="10" d="M243.975,95.416c0,0,0.955-0.657,1.854-0.472
			l0.012,6.542c0,0-0.131,1.995,0.52,3.208c0,0-0.477,0.346-1.342,0.26c0,0-1.477-1.214-1.043-7.11v-1.908V95.416z"/>
		<path fill="none" stroke="#000000" stroke-width="0.75" stroke-miterlimit="10" d="M246.188,95.258c0,0,0.244,0.41,0.693,0.939
			c0.736,0.867,0.779,1.836,0.779,1.836h1.041v2.515h-1.084c0,0-0.027,0.651-0.736,1.475c-0.693,0.804-0.693,2.34-0.693,2.34V95.258
			z"/>
		<path fill="none" stroke="#000000" stroke-width="0.75" stroke-miterlimit="10" d="M249.178,95.286c0,0,0.955-0.657,1.854-0.472
			l0.012,6.542c0,0-0.131,1.994,0.52,3.208c0,0-0.477,0.347-1.344,0.261c0,0-1.475-1.215-1.041-7.111v-1.908V95.286z"/>
		<path fill="none" stroke="#000000" stroke-width="0.75" stroke-miterlimit="10" d="M251.389,95.128c0,0,0.244,0.411,0.693,0.939
			c0.738,0.867,0.781,1.835,0.781,1.835h0.348v2.515h-0.391c0,0-0.027,0.651-0.738,1.474c-0.693,0.804-0.693,2.341-0.693,2.341
			V95.128z"/>
		<path fill="none" stroke="#000000" stroke-width="0.75" stroke-miterlimit="10" d="M254.5,94.599h5.443c0,0-0.605,8.933,0,10.307
			c0,0-4.682,0.361-5.635,0C254.309,104.906,253.549,96.595,254.5,94.599z"/>
		<path fill="none" stroke="#000000" stroke-width="0.75" stroke-miterlimit="10" d="M261.15,95.418c0,0,0.953-0.657,1.854-0.473
			l0.012,6.542c0,0-0.131,1.995,0.52,3.209c0,0-0.477,0.347-1.344,0.26c0,0-1.475-1.214-1.041-7.111v-1.907V95.418z"/>
		<path fill="none" stroke="#000000" stroke-width="0.75" stroke-miterlimit="10" d="M263.361,95.26c0,0,0.244,0.41,0.693,0.939
			c0.738,0.867,0.781,1.836,0.781,1.836h1.041v2.514h-1.084c0,0-0.027,0.651-0.738,1.474c-0.693,0.805-0.693,2.342-0.693,2.342
			V95.26z"/>
		<path fill="none" stroke="#000000" stroke-width="0.75" stroke-miterlimit="10" d="M266.354,95.288c0,0,0.955-0.657,1.854-0.473
			l0.01,6.542c0,0-0.129,1.995,0.521,3.209c0,0-0.477,0.347-1.344,0.26c0,0-1.475-1.214-1.041-7.11v-1.908V95.288z"/>
		<path fill="none" stroke="#000000" stroke-width="0.75" stroke-miterlimit="10" d="M268.564,95.13c0,0,0.244,0.41,0.695,0.938
			c0.736,0.868,0.779,1.836,0.779,1.836h0.348v2.515h-0.391c0,0-0.027,0.651-0.736,1.474c-0.695,0.804-0.695,2.341-0.695,2.341
			V95.13z"/>
		<path fill="none" stroke="#000000" stroke-width="0.75" stroke-miterlimit="10" d="M271.043,95.158c0,0,0.953-0.658,1.852-0.473
			l0.014,6.543c0,0-0.131,1.994,0.518,3.208c0,0-0.475,0.347-1.344,0.26c0,0-1.473-1.213-1.039-7.11v-1.908V95.158z"/>
		<path fill="none" stroke="#000000" stroke-width="0.75" stroke-miterlimit="10" d="M273.254,94.999c0,0,0.244,0.411,0.693,0.939
			c0.736,0.867,0.779,1.835,0.779,1.835h1.041v2.515h-1.084c0,0-0.027,0.651-0.736,1.474c-0.693,0.805-0.693,2.341-0.693,2.341
			V94.999z"/>
		<path fill="none" stroke="#000000" stroke-width="0.75" stroke-miterlimit="10" d="M276.246,95.027c0,0,0.953-0.657,1.854-0.472
			l0.01,6.542c0,0-0.131,1.995,0.52,3.208c0,0-0.477,0.348-1.342,0.261c0,0-1.477-1.214-1.041-7.11v-1.908V95.027z"/>
		<path fill="none" stroke="#000000" stroke-width="0.75" stroke-miterlimit="10" d="M278.455,94.869c0,0,0.246,0.411,0.695,0.939
			c0.736,0.867,0.781,1.836,0.781,1.836h1.039v2.515h-1.084c0,0-0.027,0.651-0.736,1.474c-0.695,0.805-0.695,2.341-0.695,2.341
			V94.869z"/>
		<path fill="none" stroke="#000000" stroke-width="0.75" stroke-miterlimit="10" d="M281.051,95.05c0,0,0.953-0.658,1.854-0.473
			l0.012,6.543c0,0-0.131,1.994,0.52,3.208c0,0-0.477,0.347-1.344,0.261c0,0-1.475-1.215-1.041-7.111v-1.908V95.05z"/>
		<path fill="none" stroke="#000000" stroke-width="0.75" stroke-miterlimit="10" d="M283.262,94.891c0,0,0.246,0.411,0.695,0.939
			c0.736,0.867,0.779,1.835,0.779,1.835h1.039v2.515h-1.082c0,0-0.027,0.652-0.736,1.475c-0.695,0.804-0.695,2.341-0.695,2.341
			V94.891z"/>
		<path fill="none" stroke="#000000" stroke-width="0.75" stroke-miterlimit="10" d="M286.252,94.92c0,0,0.955-0.658,1.855-0.474
			l0.01,6.543c0,0-0.129,1.994,0.521,3.208c0,0-0.477,0.348-1.344,0.26c0,0-1.475-1.213-1.043-7.109v-1.909V94.92z"/>
		<path fill="none" stroke="#000000" stroke-width="0.75" stroke-miterlimit="10" d="M288.465,94.761c0,0,0.244,0.411,0.693,0.939
			c0.736,0.867,0.779,1.836,0.779,1.836h1.041v2.514h-1.084c0,0-0.027,0.651-0.736,1.474c-0.693,0.804-0.693,2.341-0.693,2.341
			V94.761z"/>
		<path fill="none" stroke="#000000" stroke-width="0.75" stroke-miterlimit="10" d="M291.238,95.039c0,0,0.957-0.658,1.855-0.473
			l0.01,6.543c0,0-0.129,1.994,0.52,3.208c0,0-0.477,0.347-1.344,0.26c0,0-1.475-1.213-1.041-7.11v-1.908V95.039z"/>
		<path fill="none" stroke="#000000" stroke-width="0.75" stroke-miterlimit="10" d="M293.451,94.88c0,0,0.244,0.411,0.693,0.939
			c0.738,0.868,0.781,1.835,0.781,1.835h1.041v2.515h-1.084c0,0-0.029,0.652-0.738,1.475c-0.693,0.804-0.693,2.341-0.693,2.341
			V94.88z"/>
		<path fill="none" stroke="#000000" stroke-width="0.75" stroke-miterlimit="10" d="M296.443,94.909c0,0,0.953-0.658,1.852-0.473
			l0.014,6.542c0,0-0.133,1.994,0.518,3.208c0,0-0.475,0.347-1.344,0.26c0,0-1.473-1.214-1.039-7.11V95.43V94.909z"/>
		<path fill="none" stroke="#000000" stroke-width="0.75" stroke-miterlimit="10" d="M298.654,94.75c0,0,0.244,0.41,0.693,0.939
			c0.736,0.867,0.779,1.836,0.779,1.836h1.041v2.514h-1.084c0,0-0.027,0.652-0.736,1.474c-0.693,0.805-0.693,2.341-0.693,2.341
			V94.75z"/>
		<path fill="none" stroke="#000000" stroke-width="0.75" stroke-miterlimit="10" d="M301.248,94.93c0,0,0.955-0.658,1.855-0.472
			l0.01,6.542c0,0-0.131,1.995,0.52,3.208c0,0-0.477,0.347-1.342,0.26c0,0-1.477-1.215-1.043-7.11V95.45V94.93z"/>
		<path fill="none" stroke="#000000" stroke-width="0.75" stroke-miterlimit="10" d="M303.459,94.772c0,0,0.246,0.41,0.695,0.939
			c0.736,0.867,0.779,1.836,0.779,1.836h1.041v2.515h-1.084c0,0-0.027,0.651-0.736,1.475c-0.695,0.804-0.695,2.34-0.695,2.34V94.772
			z"/>
		<path fill="none" stroke="#000000" stroke-width="0.75" stroke-miterlimit="10" d="M306.451,94.801c0,0,0.955-0.658,1.854-0.473
			l0.01,6.542c0,0-0.129,1.994,0.521,3.208c0,0-0.479,0.347-1.344,0.261c0,0-1.475-1.215-1.041-7.111v-1.907V94.801z"/>
		<path fill="none" stroke="#000000" stroke-width="0.75" stroke-miterlimit="10" d="M308.662,94.643c0,0,0.244,0.41,0.693,0.939
			c0.738,0.867,0.781,1.835,0.781,1.835h0.348v2.515h-0.391c0,0-0.027,0.652-0.738,1.474c-0.693,0.804-0.693,2.341-0.693,2.341
			V94.643z"/>
	</g>
	<path fill="none" stroke="#000000" stroke-width="0.75" stroke-miterlimit="10" d="M280.531,121.78c0,0,1.037-0.715,2.014-0.514
		l0.014,7.111c0,0-0.143,2.168,0.564,3.488c0,0-0.518,0.376-1.461,0.283c0,0-1.602-1.32-1.131-7.729v-2.074V121.78z"/>
	<path fill="none" stroke="#000000" stroke-width="0.75" stroke-miterlimit="10" d="M282.936,121.607c0,0,0.266,0.446,0.754,1.021
		c0.801,0.942,0.848,1.995,0.848,1.995h1.131v2.733h-1.178c0,0-0.031,0.708-0.801,1.603c-0.754,0.874-0.754,2.544-0.754,2.544
		V121.607z"/>
	<path fill="none" stroke="#000000" stroke-width="0.75" stroke-miterlimit="10" d="M286.188,121.639c0,0,1.035-0.716,2.014-0.514
		l0.012,7.111c0,0-0.141,2.168,0.566,3.488c0,0-0.52,0.377-1.461,0.282c0,0-1.604-1.319-1.131-7.729v-2.074V121.639z"/>
	<path fill="none" stroke="#000000" stroke-width="0.75" stroke-miterlimit="10" d="M288.59,121.467c0,0,0.266,0.446,0.754,1.02
		c0.801,0.943,0.848,1.996,0.848,1.996h0.377v2.734h-0.424c0,0-0.029,0.708-0.801,1.602c-0.754,0.875-0.754,2.545-0.754,2.545
		V121.467z"/>
	<path fill="none" stroke="#000000" stroke-width="0.75" stroke-miterlimit="10" d="M291.281,121.497c0,0,1.037-0.715,2.016-0.514
		l0.012,7.111c0,0-0.141,2.168,0.564,3.487c0,0-0.516,0.377-1.461,0.282c0,0-1.602-1.319-1.131-7.729v-2.074V121.497z"/>
	<path fill="none" stroke="#000000" stroke-width="0.75" stroke-miterlimit="10" d="M293.686,121.324c0,0,0.266,0.446,0.754,1.021
		c0.803,0.943,0.85,1.995,0.85,1.995h1.129v2.734h-1.176c0,0-0.031,0.708-0.803,1.603c-0.754,0.874-0.754,2.544-0.754,2.544V121.324
		z"/>
	<path fill="none" stroke="#000000" stroke-width="0.75" stroke-miterlimit="10" d="M296.938,121.355c0,0,1.037-0.714,2.014-0.514
		l0.014,7.112c0,0-0.143,2.168,0.564,3.487c0,0-0.52,0.377-1.461,0.283c0,0-1.604-1.319-1.131-7.729v-2.074V121.355z"/>
	<path fill="none" stroke="#000000" stroke-width="0.75" stroke-miterlimit="10" d="M299.342,121.184c0,0,0.264,0.446,0.752,1.021
		c0.803,0.942,0.85,1.995,0.85,1.995h1.131v2.733h-1.178c0,0-0.029,0.708-0.803,1.603c-0.752,0.874-0.752,2.545-0.752,2.545V121.184
		z"/>
	<path fill="none" stroke="#000000" stroke-width="0.75" stroke-miterlimit="10" d="M302.162,121.379c0,0,1.037-0.715,2.014-0.513
		l0.012,7.111c0,0-0.141,2.168,0.566,3.487c0,0-0.52,0.377-1.463,0.283c0,0-1.6-1.32-1.129-7.729v-2.074V121.379z"/>
	<path fill="none" stroke="#000000" stroke-width="0.75" stroke-miterlimit="10" d="M304.564,121.207c0,0,0.266,0.446,0.754,1.021
		c0.801,0.943,0.848,1.995,0.848,1.995h1.133v2.733h-1.18c0,0-0.029,0.708-0.801,1.603c-0.754,0.874-0.754,2.544-0.754,2.544
		V121.207z"/>
	<path fill="none" stroke="#000000" stroke-width="0.75" stroke-miterlimit="10" d="M307.816,121.238c0,0,1.037-0.715,2.014-0.514
		l0.014,7.111c0,0-0.143,2.168,0.564,3.488c0,0-0.518,0.377-1.461,0.283c0,0-1.602-1.32-1.131-7.729v-2.074V121.238z"/>
	<path fill="none" stroke="#000000" stroke-width="0.75" stroke-miterlimit="10" d="M310.219,121.065c0,0,0.268,0.446,0.756,1.021
		c0.801,0.942,0.848,1.996,0.848,1.996h1.131v2.733h-1.178c0,0-0.031,0.708-0.801,1.603c-0.756,0.874-0.756,2.545-0.756,2.545
		V121.065z"/>
	<g>
		<path fill="none" stroke="#000000" stroke-width="0.75" stroke-miterlimit="10" d="M236.184,156.511c0,0,1.184-0.817,2.303-0.586
			l0.014,8.125c0,0-0.164,2.477,0.646,3.985c0,0-0.592,0.43-1.67,0.323c0,0-1.832-1.508-1.293-8.831v-2.37V156.511z"/>
		<path fill="none" stroke="#000000" stroke-width="0.75" stroke-miterlimit="10" d="M238.93,156.314c0,0,0.305,0.51,0.861,1.166
			c0.916,1.077,0.971,2.28,0.971,2.28h1.291v3.123h-1.346c0,0-0.033,0.809-0.916,1.831c-0.861,0.999-0.861,2.908-0.861,2.908
			V156.314z"/>
		<path fill="none" stroke="#000000" stroke-width="0.75" stroke-miterlimit="10" d="M242.646,156.35c0,0,1.184-0.816,2.301-0.587
			l0.014,8.126c0,0-0.16,2.477,0.646,3.984c0,0-0.594,0.431-1.67,0.323c0,0-1.83-1.508-1.291-8.831v-2.37V156.35z"/>
		<path fill="none" stroke="#000000" stroke-width="0.75" stroke-miterlimit="10" d="M245.393,156.153c0,0,0.303,0.511,0.861,1.167
			c0.914,1.077,0.969,2.28,0.969,2.28h1.291v3.123h-1.346c0,0-0.033,0.809-0.914,1.831c-0.861,0.999-0.861,2.907-0.861,2.907
			V156.153z"/>
		<path fill="none" stroke="#000000" stroke-width="0.75" stroke-miterlimit="10" d="M248.615,156.377c0,0,1.184-0.817,2.301-0.587
			l0.014,8.125c0,0-0.162,2.478,0.646,3.985c0,0-0.592,0.431-1.67,0.323c0,0-1.83-1.508-1.291-8.831v-2.369V156.377z"/>
		<path fill="none" stroke="#000000" stroke-width="0.75" stroke-miterlimit="10" d="M251.359,156.181c0,0,0.305,0.509,0.863,1.166
			c0.916,1.077,0.969,2.28,0.969,2.28h1.291v3.122h-1.344c0,0-0.037,0.81-0.916,1.831c-0.863,0.999-0.863,2.908-0.863,2.908V156.181
			z"/>
		<path fill="none" stroke="#000000" stroke-width="0.75" stroke-miterlimit="10" d="M255.076,156.216c0,0,1.186-0.817,2.301-0.587
			l0.014,8.126c0,0-0.16,2.477,0.646,3.985c0,0-0.592,0.431-1.67,0.323c0,0-1.828-1.508-1.291-8.831v-2.37V156.216z"/>
		<path fill="none" stroke="#000000" stroke-width="0.75" stroke-miterlimit="10" d="M257.822,156.02c0,0,0.303,0.509,0.861,1.166
			c0.916,1.077,0.969,2.28,0.969,2.28h1.293v3.123H259.6c0,0-0.033,0.809-0.916,1.831c-0.861,0.999-0.861,2.908-0.861,2.908V156.02z
			"/>
		<path fill="none" stroke="#000000" stroke-width="0.75" stroke-miterlimit="10" d="M261.268,156.364c0,0,1.186-0.817,2.303-0.587
			l0.014,8.125c0,0-0.162,2.477,0.646,3.985c0,0-0.594,0.431-1.67,0.323c0,0-1.83-1.507-1.293-8.831v-2.37V156.364z"/>
		<path fill="none" stroke="#000000" stroke-width="0.75" stroke-miterlimit="10" d="M264.014,156.167c0,0,0.305,0.51,0.861,1.167
			c0.916,1.076,0.971,2.279,0.971,2.279h1.291v3.124h-1.346c0,0-0.033,0.809-0.916,1.831c-0.861,0.999-0.861,2.908-0.861,2.908
			V156.167z"/>
		<path fill="none" stroke="#000000" stroke-width="0.75" stroke-miterlimit="10" d="M267.729,156.203c0,0,1.186-0.817,2.303-0.587
			l0.014,8.125c0,0-0.16,2.477,0.646,3.984c0,0-0.592,0.432-1.67,0.324c0,0-1.83-1.508-1.293-8.832v-2.369V156.203z"/>
		<path fill="none" stroke="#000000" stroke-width="0.75" stroke-miterlimit="10" d="M270.475,156.006c0,0,0.307,0.51,0.863,1.166
			c0.914,1.078,0.969,2.28,0.969,2.28h1.293v3.122h-1.348c0,0-0.033,0.81-0.914,1.832c-0.863,0.999-0.863,2.908-0.863,2.908V156.006
			z"/>
		<path fill="none" stroke="#000000" stroke-width="0.75" stroke-miterlimit="10" d="M273.697,156.23c0,0,1.186-0.817,2.303-0.587
			l0.014,8.125c0,0-0.16,2.477,0.646,3.985c0,0-0.594,0.431-1.67,0.323c0,0-1.83-1.507-1.293-8.831v-2.37V156.23z"/>
		<path fill="none" stroke="#000000" stroke-width="0.75" stroke-miterlimit="10" d="M276.445,156.033c0,0,0.303,0.51,0.861,1.167
			c0.916,1.077,0.969,2.28,0.969,2.28h1.293v3.123h-1.346c0,0-0.035,0.809-0.916,1.83c-0.861,1-0.861,2.908-0.861,2.908V156.033z"/>
		<path fill="none" stroke="#000000" stroke-width="0.75" stroke-miterlimit="10" d="M280.16,156.068c0,0,1.184-0.817,2.301-0.586
			l0.014,8.125c0,0-0.162,2.477,0.646,3.985c0,0-0.592,0.431-1.668,0.323c0,0-1.832-1.508-1.293-8.831v-2.37V156.068z"/>
		<path fill="none" stroke="#000000" stroke-width="0.75" stroke-miterlimit="10" d="M282.906,155.872c0,0,0.305,0.51,0.861,1.167
			c0.916,1.077,0.969,2.28,0.969,2.28h0.432v3.124h-0.484c0,0-0.033,0.809-0.916,1.83c-0.861,1-0.861,2.908-0.861,2.908V155.872z"/>
		<path fill="none" stroke="#000000" stroke-width="0.75" stroke-miterlimit="10" d="M286.018,155.575h6.758
			c0,0-0.752,11.094,0,12.8c0,0-5.814,0.448-6.998,0C285.777,168.375,284.834,158.054,286.018,155.575z"/>
		<path fill="none" stroke="#000000" stroke-width="0.75" stroke-miterlimit="10" d="M294.275,156.592c0,0,1.184-0.817,2.301-0.587
			l0.014,8.125c0,0-0.16,2.477,0.646,3.984c0,0-0.592,0.431-1.67,0.323c0,0-1.828-1.507-1.291-8.831v-2.369V156.592z"/>
		<path fill="none" stroke="#000000" stroke-width="0.75" stroke-miterlimit="10" d="M297.021,156.396c0,0,0.303,0.509,0.863,1.166
			c0.914,1.077,0.969,2.28,0.969,2.28h1.291v3.123h-1.346c0,0-0.035,0.809-0.914,1.831c-0.863,0.999-0.863,2.908-0.863,2.908
			V156.396z"/>
		<path fill="none" stroke="#000000" stroke-width="0.75" stroke-miterlimit="10" d="M300.736,156.431c0,0,1.186-0.817,2.303-0.588
			l0.014,8.126c0,0-0.162,2.478,0.646,3.985c0,0-0.592,0.431-1.67,0.323c0,0-1.832-1.508-1.293-8.831v-2.37V156.431z"/>
		<path fill="none" stroke="#000000" stroke-width="0.75" stroke-miterlimit="10" d="M303.484,156.234c0,0,0.303,0.51,0.859,1.167
			c0.916,1.076,0.969,2.279,0.969,2.279h0.432v3.124h-0.484c0,0-0.033,0.809-0.916,1.831c-0.859,0.998-0.859,2.907-0.859,2.907
			V156.234z"/>
		<path fill="none" stroke="#000000" stroke-width="0.75" stroke-miterlimit="10" d="M306.561,156.269c0,0,1.184-0.817,2.301-0.587
			l0.014,8.126c0,0-0.162,2.477,0.646,3.985c0,0-0.594,0.43-1.67,0.322c0,0-1.83-1.507-1.291-8.831v-2.37V156.269z"/>
	</g>
	<g>
		<path fill="none" stroke="#000000" stroke-width="0.75" d="M52.658,138.213h-2.268v3.959h-4.07v-3.959h-7.389v-3.136l7.252-9.745
			h4.207v9.858h2.268V138.213z M46.32,135.19v-5.718l-4.254,5.718H46.32z"/>
	</g>
	<g>
		<path fill="none" stroke="#000000" stroke-width="0.75" d="M110.258,105.565c0,0.569-0.105,1.089-0.316,1.559
			c-0.213,0.47-0.521,0.87-0.93,1.199c-0.412,0.329-0.896,0.581-1.453,0.756c-0.557,0.175-1.234,0.262-2.033,0.262
			c-0.91,0-1.689-0.076-2.338-0.227c-0.65-0.151-1.182-0.321-1.588-0.51v-2.53h0.283c0.428,0.271,0.93,0.506,1.508,0.705
			c0.576,0.198,1.104,0.298,1.578,0.298c0.281,0,0.588-0.024,0.92-0.074c0.332-0.05,0.611-0.159,0.836-0.325
			c0.178-0.131,0.318-0.292,0.426-0.482c0.107-0.191,0.16-0.461,0.16-0.812c0-0.344-0.074-0.61-0.227-0.795
			c-0.15-0.186-0.352-0.32-0.604-0.404c-0.25-0.089-0.551-0.138-0.9-0.149c-0.35-0.01-0.658-0.016-0.924-0.016h-0.502v-2.053h0.461
			c0.357,0,0.682-0.015,0.98-0.047s0.553-0.094,0.76-0.188c0.209-0.099,0.373-0.238,0.49-0.415c0.117-0.178,0.176-0.418,0.176-0.721
			c0-0.235-0.055-0.427-0.164-0.576c-0.109-0.148-0.244-0.265-0.408-0.348c-0.188-0.094-0.406-0.157-0.656-0.188
			c-0.252-0.032-0.465-0.047-0.643-0.047c-0.289,0-0.58,0.034-0.879,0.102c-0.297,0.068-0.586,0.155-0.869,0.259
			c-0.219,0.084-0.449,0.192-0.689,0.326c-0.24,0.133-0.418,0.233-0.533,0.301h-0.242v-2.5c0.402-0.172,0.943-0.338,1.625-0.497
			c0.682-0.16,1.379-0.239,2.088-0.239c0.695,0,1.297,0.06,1.807,0.18c0.51,0.121,0.945,0.295,1.305,0.526
			c0.396,0.245,0.695,0.557,0.893,0.936c0.199,0.378,0.299,0.806,0.299,1.281c0,0.664-0.193,1.245-0.578,1.743
			c-0.383,0.499-0.887,0.821-1.516,0.968v0.11c0.277,0.042,0.549,0.112,0.812,0.211s0.521,0.261,0.771,0.486
			c0.234,0.204,0.43,0.466,0.584,0.788C110.182,104.738,110.258,105.121,110.258,105.565z"/>
	</g>
</g>
<g>
	<path fill="none" stroke="#000000" stroke-width="0.75" stroke-miterlimit="10" d="M-627.478,155.933c0,0,2.27-1.565,4.408-1.125
		l0.027,15.564c0,0-0.31,4.745,1.237,7.633c0,0-1.134,0.824-3.197,0.618c0,0-3.507-2.888-2.476-16.915v-4.539V155.933z"/>
	<path fill="none" stroke="#000000" stroke-width="0.75" stroke-miterlimit="10" d="M-622.217,155.555c0,0,0.582,0.976,1.649,2.233
		c1.754,2.063,1.857,4.367,1.857,4.367h2.475v5.981h-2.578c0,0-0.065,1.55-1.754,3.507c-1.649,1.913-1.649,5.569-1.649,5.569
		V155.555z"/>
	<path fill="none" stroke="#000000" stroke-width="0.75" stroke-miterlimit="10" d="M-631.706,160.883c0,0,2.682,10.932,1.65,13.407
		c-1.032,2.476,2.388,1.65,2.388,1.65l-1.15-18.152L-631.706,160.883z"/>
	<path fill="none" stroke="#000000" stroke-width="0.75" stroke-miterlimit="10" d="M-615.101,155.624c0,0,2.269-1.565,4.409-1.125
		l0.025,15.564c0,0-0.309,4.744,1.239,7.632c0,0-1.135,0.825-3.198,0.619c0,0-3.507-2.888-2.476-16.915v-4.539V155.624z"/>
	<path fill="none" stroke="#000000" stroke-width="0.75" stroke-miterlimit="10" d="M-609.84,155.246c0,0,0.581,0.977,1.65,2.234
		c1.753,2.062,1.856,4.366,1.856,4.366h2.476v5.982h-2.579c0,0-0.065,1.55-1.753,3.506c-1.65,1.913-1.65,5.57-1.65,5.57V155.246z"/>
	<path fill="none" stroke="#000000" stroke-width="0.75" stroke-miterlimit="10" d="M-603.668,155.676c0,0,2.269-1.565,4.408-1.125
		l0.027,15.564c0,0-0.31,4.745,1.237,7.632c0,0-1.134,0.825-3.197,0.619c0,0-3.507-2.888-2.475-16.915v-4.538V155.676z"/>
	<path fill="none" stroke="#000000" stroke-width="0.75" stroke-miterlimit="10" d="M-598.408,155.297c0,0,0.582,0.977,1.65,2.234
		c1.752,2.062,1.856,4.367,1.856,4.367h2.476v5.982h-2.58c0,0-0.064,1.549-1.752,3.506c-1.65,1.913-1.65,5.569-1.65,5.569V155.297z"
		/>
	<path fill="none" stroke="#000000" stroke-width="0.75" stroke-miterlimit="10" d="M-591.292,155.366c0,0,2.27-1.564,4.408-1.124
		l0.027,15.563c0,0-0.31,4.745,1.237,7.632c0,0-1.135,0.825-3.197,0.619c0,0-3.507-2.888-2.476-16.915v-4.539V155.366z"/>
	<path fill="none" stroke="#000000" stroke-width="0.75" stroke-miterlimit="10" d="M-586.032,154.989c0,0,0.582,0.977,1.65,2.234
		c1.754,2.063,1.856,4.367,1.856,4.367h2.476v5.982h-2.578c0,0-0.065,1.55-1.754,3.506c-1.65,1.914-1.65,5.57-1.65,5.57V154.989z"/>
	<path fill="none" stroke="#000000" stroke-width="0.75" stroke-miterlimit="10" d="M-579.431,155.649c0,0,2.269-1.564,4.408-1.124
		l0.026,15.563c0,0-0.309,4.745,1.238,7.632c0,0-1.135,0.826-3.197,0.62c0,0-3.507-2.888-2.476-16.915v-4.539V155.649z"/>
	<path fill="none" stroke="#000000" stroke-width="0.75" stroke-miterlimit="10" d="M-574.17,155.272c0,0,0.582,0.977,1.65,2.234
		c1.754,2.063,1.856,4.367,1.856,4.367h2.476v5.982h-2.578c0,0-0.065,1.549-1.754,3.506c-1.65,1.913-1.65,5.57-1.65,5.57V155.272z"
		/>
	<path fill="none" stroke="#000000" stroke-width="0.75" stroke-miterlimit="10" d="M-567.054,155.341c0,0,2.27-1.565,4.408-1.124
		l0.027,15.563c0,0-0.31,4.744,1.237,7.632c0,0-1.134,0.825-3.197,0.619c0,0-3.507-2.888-2.476-16.915v-4.539V155.341z"/>
	<path fill="none" stroke="#000000" stroke-width="0.75" stroke-miterlimit="10" d="M-561.794,154.964c0,0,0.582,0.976,1.651,2.234
		c1.753,2.062,1.856,4.367,1.856,4.367h2.475v5.982h-2.578c0,0-0.065,1.549-1.753,3.507c-1.651,1.913-1.651,5.57-1.651,5.57V154.964
		z"/>
	<path fill="none" stroke="#000000" stroke-width="0.75" stroke-miterlimit="10" d="M-555.622,155.393c0,0,2.27-1.564,4.409-1.124
		l0.027,15.563c0,0-0.31,4.744,1.237,7.632c0,0-1.134,0.825-3.197,0.619c0,0-3.507-2.888-2.476-16.915v-4.539V155.393z"/>
	<path fill="none" stroke="#000000" stroke-width="0.75" stroke-miterlimit="10" d="M-550.361,155.015c0,0,0.582,0.977,1.65,2.234
		c1.753,2.062,1.856,4.367,1.856,4.367h2.476v5.982h-2.579c0,0-0.065,1.55-1.753,3.506c-1.65,1.913-1.65,5.57-1.65,5.57V155.015z"/>
	<path fill="none" stroke="#000000" stroke-width="0.75" stroke-miterlimit="10" d="M-543.245,155.084c0,0,2.268-1.564,4.408-1.125
		l0.026,15.564c0,0-0.309,4.745,1.238,7.632c0,0-1.135,0.826-3.198,0.62c0,0-3.507-2.888-2.475-16.915v-4.539V155.084z"/>
	<path fill="none" stroke="#000000" stroke-width="0.75" stroke-miterlimit="10" d="M-537.985,154.707c0,0,0.582,0.977,1.65,2.233
		c1.753,2.063,1.856,4.367,1.856,4.367h0.826v5.982h-0.929c0,0-0.065,1.549-1.753,3.507c-1.65,1.913-1.65,5.569-1.65,5.569V154.707z
		"/>
	<path fill="none" stroke="#000000" stroke-width="0.75" stroke-miterlimit="10" d="M-532.027,154.139h12.948
		c0,0-1.444,21.25,0,24.517c0,0-11.139,0.858-13.407,0C-532.486,178.656-534.294,158.885-532.027,154.139z"/>
	<path fill="none" stroke="#000000" stroke-width="0.75" stroke-miterlimit="10" d="M-516.208,156.086c0,0,2.268-1.564,4.407-1.124
		l0.027,15.564c0,0-0.309,4.745,1.239,7.632c0,0-1.135,0.825-3.198,0.619c0,0-3.506-2.888-2.475-16.915v-4.538V156.086z"/>
	<path fill="none" stroke="#000000" stroke-width="0.75" stroke-miterlimit="10" d="M-510.948,155.709c0,0,0.582,0.977,1.65,2.234
		c1.753,2.063,1.856,4.368,1.856,4.368h2.476v5.981h-2.579c0,0-0.065,1.549-1.753,3.506c-1.65,1.913-1.65,5.57-1.65,5.57V155.709z"
		/>
	<path fill="none" stroke="#000000" stroke-width="0.75" stroke-miterlimit="10" d="M-503.832,155.778c0,0,2.27-1.564,4.409-1.124
		l0.027,15.563c0,0-0.31,4.745,1.237,7.632c0,0-1.134,0.825-3.197,0.619c0,0-3.507-2.888-2.476-16.914v-4.539V155.778z"/>
	<path fill="none" stroke="#000000" stroke-width="0.75" stroke-miterlimit="10" d="M-498.572,155.401c0,0,0.582,0.976,1.65,2.233
		c1.753,2.062,1.856,4.367,1.856,4.367h0.826v5.982h-0.928c0,0-0.065,1.55-1.753,3.506c-1.65,1.913-1.65,5.57-1.65,5.57V155.401z"/>
	<path fill="none" stroke="#000000" stroke-width="0.75" stroke-miterlimit="10" d="M-492.679,155.466c0,0,2.269-1.565,4.408-1.125
		l0.027,15.564c0,0-0.309,4.744,1.237,7.632c0,0-1.134,0.825-3.197,0.619c0,0-3.507-2.888-2.475-16.915v-4.539V155.466z"/>
	<path fill="none" stroke="#000000" stroke-width="0.75" stroke-miterlimit="10" d="M-487.419,155.089c0,0,0.582,0.977,1.65,2.234
		c1.753,2.063,1.856,4.367,1.856,4.367h2.476v5.982h-2.579c0,0-0.066,1.549-1.753,3.506c-1.65,1.913-1.65,5.57-1.65,5.57V155.089z"
		/>
	<path fill="none" stroke="#000000" stroke-width="0.75" stroke-miterlimit="10" d="M-480.302,155.158c0,0,2.27-1.565,4.408-1.125
		l0.027,15.563c0,0-0.311,4.745,1.237,7.632c0,0-1.135,0.825-3.197,0.619c0,0-3.507-2.888-2.476-16.915v-4.538V155.158z"/>
	<path fill="none" stroke="#000000" stroke-width="0.75" stroke-miterlimit="10" d="M-475.042,154.78c0,0,0.582,0.977,1.65,2.234
		c1.754,2.063,1.856,4.367,1.856,4.367h2.476v5.982h-2.578c0,0-0.065,1.549-1.754,3.507c-1.65,1.913-1.65,5.57-1.65,5.57V154.78z"/>
	<path fill="none" stroke="#000000" stroke-width="0.75" stroke-miterlimit="10" d="M-468.87,155.209c0,0,2.269-1.565,4.408-1.125
		l0.027,15.563c0,0-0.31,4.745,1.238,7.632c0,0-1.135,0.826-3.198,0.62c0,0-3.506-2.888-2.475-16.915v-4.539V155.209z"/>
	<path fill="none" stroke="#000000" stroke-width="0.75" stroke-miterlimit="10" d="M-463.611,154.832c0,0,0.583,0.977,1.651,2.233
		c1.752,2.063,1.856,4.367,1.856,4.367h2.475v5.982h-2.579c0,0-0.064,1.55-1.752,3.507c-1.651,1.913-1.651,5.569-1.651,5.569
		V154.832z"/>
	<path fill="none" stroke="#000000" stroke-width="0.75" stroke-miterlimit="10" d="M-456.494,154.901c0,0,2.269-1.565,4.409-1.125
		l0.026,15.564c0,0-0.31,4.745,1.238,7.633c0,0-1.134,0.825-3.197,0.618c0,0-3.507-2.887-2.476-16.914v-4.539V154.901z"/>
	<path fill="none" stroke="#000000" stroke-width="0.75" stroke-miterlimit="10" d="M-451.233,154.523c0,0,0.582,0.977,1.649,2.234
		c1.754,2.063,1.857,4.367,1.857,4.367h2.475v5.982h-2.578c0,0-0.065,1.549-1.754,3.507c-1.649,1.913-1.649,5.57-1.649,5.57V154.523
		z"/>
	<path fill="none" stroke="#000000" stroke-width="0.75" stroke-miterlimit="10" d="M-444.633,155.184c0,0,2.271-1.564,4.409-1.124
		l0.027,15.563c0,0-0.31,4.745,1.237,7.632c0,0-1.134,0.825-3.197,0.619c0,0-3.507-2.888-2.477-16.915v-4.538V155.184z"/>
	<path fill="none" stroke="#000000" stroke-width="0.75" stroke-miterlimit="10" d="M-439.372,154.807c0,0,0.582,0.976,1.649,2.234
		c1.755,2.062,1.858,4.367,1.858,4.367h2.475v5.982h-2.578c0,0-0.066,1.55-1.755,3.507c-1.649,1.913-1.649,5.569-1.649,5.569
		V154.807z"/>
	<path fill="none" stroke="#000000" stroke-width="0.75" stroke-miterlimit="10" d="M-432.255,154.875c0,0,2.268-1.564,4.407-1.124
		l0.027,15.564c0,0-0.309,4.745,1.238,7.632c0,0-1.135,0.825-3.198,0.619c0,0-3.506-2.888-2.475-16.915v-4.539V154.875z"/>
	<path fill="none" stroke="#000000" stroke-width="0.75" stroke-miterlimit="10" d="M-426.997,154.499c0,0,0.583,0.976,1.651,2.233
		c1.752,2.062,1.856,4.367,1.856,4.367h2.475v5.981h-2.579c0,0-0.065,1.55-1.752,3.507c-1.651,1.913-1.651,5.569-1.651,5.569
		V154.499z"/>
	<path fill="none" stroke="#000000" stroke-width="0.75" stroke-miterlimit="10" d="M-420.823,154.927c0,0,2.269-1.565,4.408-1.125
		l0.026,15.564c0,0-0.31,4.745,1.238,7.632c0,0-1.136,0.825-3.198,0.619c0,0-3.507-2.888-2.475-16.915v-4.539V154.927z"/>
	<path fill="none" stroke="#000000" stroke-width="0.75" stroke-miterlimit="10" d="M-415.564,154.55c0,0,0.583,0.976,1.65,2.234
		c1.753,2.062,1.856,4.367,1.856,4.367h2.476v5.982h-2.579c0,0-0.065,1.549-1.753,3.506c-1.65,1.913-1.65,5.57-1.65,5.57V154.55z"/>
	<path fill="none" stroke="#000000" stroke-width="0.75" stroke-miterlimit="10" d="M-408.447,154.618c0,0,2.269-1.564,4.408-1.124
		l0.027,15.564c0,0-0.31,4.745,1.237,7.632c0,0-1.133,0.825-3.197,0.618c0,0-3.507-2.888-2.475-16.915v-4.538V154.618z"/>
	<path fill="none" stroke="#000000" stroke-width="0.75" stroke-miterlimit="10" d="M-403.188,154.241c0,0,0.583,0.977,1.65,2.234
		c1.754,2.062,1.857,4.366,1.857,4.366h0.825v5.982h-0.928c0,0-0.065,1.55-1.754,3.507c-1.65,1.913-1.65,5.569-1.65,5.569V154.241z"
		/>
	<g>
		<circle fill="none" stroke="#000000" stroke-width="0.75" stroke-miterlimit="10" cx="-440.007" cy="60.997" r="11.782"/>
		<path fill="none" stroke="#000000" stroke-width="0.75" stroke-miterlimit="10" d="M-455.576,76.403h30.396l24.409,28.17
			c0,0,2.277,8.86-8.479,6.536l-15.595-16.967l0.512,16.569c0,0-8.113-0.502-15.189,8.73c0,0-11.956-10.733-16.054-7.936v-17.69
			l-13.316,15.424c0,0-10.282,5.557-10.756-4.667L-455.576,76.403z"/>
	</g>
	<g>
		<circle fill="none" stroke="#000000" stroke-width="0.75" stroke-miterlimit="10" cx="-590.172" cy="60.997" r="11.783"/>
		<path fill="none" stroke="#000000" stroke-width="0.75" stroke-miterlimit="10" d="M-605.741,76.403h30.396l24.409,28.17
			c0,0,2.278,8.86-8.478,6.536l-15.596-16.967l0.513,16.569c0,0-5.553-2.467-15.19,8.73c0,0-11.957-10.733-16.054-7.936v-17.69
			l-13.316,15.424c0,0-10.282,5.557-10.756-4.667L-605.741,76.403z"/>
	</g>
	<g>
		<circle fill="#FFFFFF" stroke="#000000" stroke-width="0.75" stroke-miterlimit="10" cx="-513.77" cy="54.378" r="19.085"/>
		<path fill="#FFFFFF" stroke="#000000" stroke-width="0.75" stroke-miterlimit="10" d="M-538.988,79.333h49.233l39.537,45.629
			c0,0,3.69,14.351-13.732,10.586l-25.261-27.482l0.83,26.838c0,0-11.512-2.311-24.603,14.142c0,0-19.367-17.386-26.004-12.854
			V107.54l-21.57,24.982c0,0-16.654,9-17.422-7.56L-538.988,79.333z"/>
	</g>
	<path fill="none" stroke="#000000" stroke-width="0.75" stroke-miterlimit="10" d="M-532.8,53.396c0,0,16.185-20.903,38.51,1.377
		c0,0-1.95-20.027-19.555-20.277C-513.845,34.496-530.597,32.618-532.8,53.396z"/>
	<path fill="none" stroke="#000000" stroke-width="0.75" stroke-miterlimit="10" d="M-529.267,79.333c0,0,15.698,23.29,28.176,0"/>
	<path fill="none" stroke="#000000" stroke-width="0.75" stroke-miterlimit="10" d="M-538.988,107.54
		c0,0,11.523-22.542,5.334-28.207"/>
	<path fill="none" stroke="#000000" stroke-width="0.75" stroke-miterlimit="10" d="M-489.289,108.245
		c0,0-11.523-23.105-5.334-28.912"/>
	<path fill="none" stroke="#000000" stroke-width="0.75" stroke-miterlimit="10" d="M-449.268,76.403
		c0.619,0.899,8.386,14.502,17.537,0"/>
	<path fill="none" stroke="#000000" stroke-width="0.75" stroke-miterlimit="10" d="M-455.585,94.031c0,0,7.392-14.039,3.472-17.627
		"/>
	<path fill="none" stroke="#000000" stroke-width="0.75" stroke-miterlimit="10" d="M-424.807,94.477c0,0-7.337-14.396-3.417-18.075
		"/>
	
		<line fill="none" stroke="#000000" stroke-width="0.75" stroke-miterlimit="10" x1="-605.741" y1="106.685" x2="-574.622" y2="106.685"/>
</g>
</svg>
